<?xml version="1.0" encoding="UTF-8" standalone="no"?>
<!-- Created with Inkscape (http://www.inkscape.org/) -->

<svg
   width="20.32mm"
   height="128.5mm"
   viewBox="0 0 20.320001 128.50002"
   version="1.1"
   id="svg8"
   inkscape:version="1.2.1 (9c6d41e, 2022-07-14)"
   sodipodi:docname="Kyle.svg"
   xml:space="preserve"
   xmlns:inkscape="http://www.inkscape.org/namespaces/inkscape"
   xmlns:sodipodi="http://sodipodi.sourceforge.net/DTD/sodipodi-0.dtd"
   xmlns:xlink="http://www.w3.org/1999/xlink"
   xmlns="http://www.w3.org/2000/svg"
   xmlns:svg="http://www.w3.org/2000/svg"
   xmlns:rdf="http://www.w3.org/1999/02/22-rdf-syntax-ns#"
   xmlns:cc="http://creativecommons.org/ns#"
   xmlns:dc="http://purl.org/dc/elements/1.1/"><defs
     id="defs2"><rect
       x="11.111678"
       y="28.284271"
       width="85.862968"
       height="48.487324"
       id="rect951" /><rect
       x="27.274118"
       y="437.39606"
       width="66.670067"
       height="39.39595"
       id="rect1515" /><rect
       x="17.172592"
       y="348.50262"
       width="54.548237"
       height="40.406101"
       id="rect1503" /><rect
       x="15.152288"
       y="238.396"
       width="88.893425"
       height="21.213203"
       id="rect1345" /><linearGradient
       inkscape:collect="always"
       id="linearGradient1128"><stop
         style="stop-color:#000000;stop-opacity:1;"
         offset="0"
         id="stop1124" /><stop
         style="stop-color:#000000;stop-opacity:0;"
         offset="1"
         id="stop1126" /></linearGradient><rect
       x="13.131983"
       y="28.284271"
       width="93.944183"
       height="31.31473"
       id="rect262" /><rect
       x="38.385796"
       y="46.467018"
       width="44.446712"
       height="42.426407"
       id="rect252" /><linearGradient
       inkscape:collect="always"
       xlink:href="#linearGradient1128"
       id="linearGradient1130"
       x1="21.486855"
       y1="180.23653"
       x2="26.847229"
       y2="180.23653"
       gradientUnits="userSpaceOnUse" /><rect
       x="11.111678"
       y="28.284271"
       width="85.862968"
       height="48.487324"
       id="rect951-1" /><rect
       x="11.111678"
       y="28.284271"
       width="85.862968"
       height="48.487324"
       id="rect951-1-5" /><rect
       x="11.111678"
       y="28.284271"
       width="85.862968"
       height="48.487324"
       id="rect951-1-2" /><rect
       x="11.111678"
       y="28.284271"
       width="85.862968"
       height="48.487324"
       id="rect951-1-9" /><linearGradient
       id="SVGID_1_"
       gradientUnits="userSpaceOnUse"
       x1="11.33881"
       y1="-0.0090399999"
       x2="11.33881"
       y2="22.666759">
		<stop
   offset="0"
   style="stop-color:#B0ACAE"
   id="stop1910" />
		<stop
   offset="1"
   style="stop-color:#000000"
   id="stop1912" />
	</linearGradient><linearGradient
       id="SVGID_2_"
       gradientUnits="userSpaceOnUse"
       x1="4.5368199"
       y1="-4120.5469"
       x2="22.556919"
       y2="-4120.5469"
       gradientTransform="rotate(90,-2053.495,-2055.713)">
		<stop
   offset="0"
   style="stop-color:#232223"
   id="stop1921" />
		<stop
   offset="1"
   style="stop-color:#1F1E1F"
   id="stop1923" />
	</linearGradient><linearGradient
       id="path5815_2_"
       gradientUnits="userSpaceOnUse"
       x1="6.7284999"
       y1="18.231609"
       x2="6.7284999"
       y2="27.078119">
		<stop
   offset="0.00559"
   style="stop-color:#3D3B3B"
   id="stop393" />
		<stop
   offset="1"
   style="stop-color:#2D2C2C"
   id="stop395" />
	</linearGradient><linearGradient
       id="path243334_1_"
       gradientUnits="userSpaceOnUse"
       x1="6.7304602"
       y1="1.2695301"
       x2="6.7304602"
       y2="27.078119"
       gradientTransform="matrix(0.26458333,0,0,0.26458333,-80.784619,207.32815)">
	<stop
   offset="0"
   style="stop-color:#3B3B3B"
   id="stop383" />
	<stop
   offset="1"
   style="stop-color:#242424"
   id="stop385" />
</linearGradient></defs><sodipodi:namedview
     id="base"
     pagecolor="#ffffff"
     bordercolor="#666666"
     borderopacity="1.0"
     inkscape:pageopacity="0.0"
     inkscape:pageshadow="2"
     inkscape:zoom="1.329804"
     inkscape:cx="-276.35652"
     inkscape:cy="201.15746"
     inkscape:document-units="mm"
     inkscape:current-layer="layer1"
     showgrid="false"
     units="mm"
     inkscape:snap-bbox="true"
     inkscape:snap-page="true"
     inkscape:bbox-nodes="false"
     inkscape:snap-bbox-edge-midpoints="false"
     inkscape:window-width="1440"
     inkscape:window-height="847"
     inkscape:window-x="0"
     inkscape:window-y="25"
     inkscape:window-maximized="0"
     inkscape:snap-bbox-midpoints="true"
     inkscape:snap-nodes="false"
     inkscape:showpageshadow="0"
     inkscape:pagecheckerboard="0"
     inkscape:deskcolor="#d1d1d1" /><metadata
     id="metadata5"><rdf:RDF><cc:Work
         rdf:about=""><dc:format>image/svg+xml</dc:format><dc:type
           rdf:resource="http://purl.org/dc/dcmitype/StillImage" /></cc:Work></rdf:RDF></metadata><g
     inkscape:label="Layer 1"
     inkscape:groupmode="layer"
     id="layer1"
     transform="translate(0,-168.49998)"><rect
       style="display:inline;opacity:1;vector-effect:none;fill:#cccccc;fill-opacity:1;fill-rule:evenodd;stroke:none;stroke-width:0.530198;stroke-linecap:butt;stroke-linejoin:miter;stroke-miterlimit:4;stroke-dasharray:none;stroke-dashoffset:0;stroke-opacity:1;paint-order:normal"
       id="rect420"
       width="20.32"
       height="128.5"
       x="5.9211732e-17"
       y="168.49997" /><g
       id="g561"
       transform="matrix(0.12598419,0,0,0.1259842,-16.600081,278.72581)"
       style="display:inline"><g
         aria-label="Si"
         transform="scale(0.98337622,1.0169048)"
         id="text1585-7"
         style="font-size:49.3413px;line-height:0;font-family:'Space Mono';-inkscape-font-specification:'Space Mono';text-align:center;text-anchor:middle;display:inline;stroke:#000000;stroke-width:0.513973"
         inkscape:label="Silly Black"><path
           d="m 210.37411,26.059765 q 0,-1.677604 -0.69078,-2.960478 -0.64144,-1.282874 -1.77629,-2.121676 -1.13485,-0.838802 -2.61509,-1.282874 -1.48024,-0.444071 -3.1085,-0.444071 -1.4309,0 -2.71377,0.39473 -1.28287,0.345389 -2.31904,1.036167 -0.98683,0.690778 -1.57892,1.726946 -0.5921,0.986826 -0.5921,2.319041 v 0.296048 q 0,1.430897 0.5921,2.467065 0.59209,0.986826 1.72694,1.726945 1.18419,0.690779 2.91114,1.184192 1.72695,0.444071 4.04599,0.78946 5.42754,0.838802 7.99329,3.207185 2.56575,2.319041 2.56575,6.266345 v 0.592096 q 0,2.220358 -0.78947,4.095328 -0.74012,1.825628 -2.2697,3.157843 -1.48023,1.332215 -3.70059,2.072335 -2.22036,0.740119 -5.1315,0.740119 -3.30587,0 -5.87161,-0.937485 -2.51641,-0.986826 -4.24336,-2.66443 -1.6776,-1.726945 -2.56574,-3.996645 -0.88815,-2.319041 -0.88815,-5.032813 v -1.480239 h 4.14467 v 1.184191 q 0,4.5394 2.46707,6.8091 2.5164,2.2697 6.95712,2.2697 3.84862,0 5.77293,-1.677605 1.97366,-1.726945 1.97366,-4.539399 v -0.296048 q 0,-2.713772 -2.023,-4.144669 -1.97365,-1.430898 -6.46371,-2.072335 -2.61509,-0.345389 -4.73676,-1.036167 -2.07234,-0.74012 -3.55258,-1.87497 -1.48024,-1.184191 -2.2697,-2.812454 -0.78946,-1.628263 -0.78946,-3.848621 v -0.592096 q 0,-2.022993 0.8388,-3.700598 0.83881,-1.677604 2.31905,-2.911136 1.52958,-1.233533 3.60191,-1.87497 2.12168,-0.690778 4.63808,-0.690778 2.91114,0 5.18084,0.838802 2.31904,0.838802 3.89796,2.2697 1.57892,1.381556 2.36839,3.305867 0.8388,1.87497 0.8388,3.947304 v 2.072335 h -4.14467 z"
           id="path10376" /><path
           d="m 229.22246,18.855935 q 0,-1.430898 0.98683,-2.417724 1.03616,-1.036167 2.46706,-1.036167 1.4309,0 2.41773,1.036167 1.03616,0.986826 1.03616,2.417724 0,1.430898 -1.03616,2.467065 -0.98683,0.986826 -2.41773,0.986826 -1.4309,0 -2.46706,-0.986826 -0.98683,-1.036167 -0.98683,-2.467065 z M 222.216,47.079159 h 8.58538 V 29.711021 h -7.69724 V 26.158448 H 234.65 v 20.920711 h 7.99329 v 3.552574 H 222.216 Z"
           id="path10378" /></g><g
         aria-label="So"
         transform="scale(0.96475638,1.0365311)"
         id="text1593-7"
         style="font-size:48.4198px;line-height:0;font-family:'Space Mono';-inkscape-font-specification:'Space Mono';text-align:center;text-anchor:middle;display:inline;stroke:#000000;stroke-width:0.504373"
         inkscape:label="Sounds Black"><path
           d="m 213.63113,63.853225 q 0,-1.646273 -0.67788,-2.905188 -0.62945,-1.258914 -1.74311,-2.082051 -1.11366,-0.823137 -2.56625,-1.258915 -1.45259,-0.435778 -3.05045,-0.435778 -1.40417,0 -2.66309,0.387358 -1.25891,0.338939 -2.27573,1.016816 -0.96839,0.677877 -1.54943,1.694693 -0.58104,0.968396 -0.58104,2.275731 v 0.290519 q 0,1.404174 0.58104,2.42099 0.58104,0.968396 1.69469,1.694693 1.16208,0.677877 2.85677,1.162075 1.69469,0.435778 3.97042,0.774717 5.32618,0.823136 7.84401,3.147287 2.51783,2.27573 2.51783,6.149314 v 0.581038 q 0,2.178891 -0.77472,4.018843 -0.72629,1.791533 -2.22731,3.098867 -1.45259,1.307335 -3.63148,2.033632 -2.17889,0.726297 -5.03566,0.726297 -3.24413,0 -5.76196,-0.919976 -2.46941,-0.968396 -4.1641,-2.614669 -1.64627,-1.694693 -2.51783,-3.922004 -0.87156,-2.275731 -0.87156,-4.93882 V 74.7961 h 4.06727 v 1.162075 q 0,4.454622 2.42099,6.681933 2.46941,2.227311 6.82719,2.227311 3.77674,0 5.66512,-1.646274 1.93679,-1.694693 1.93679,-4.454621 v -0.290519 q 0,-2.663089 -1.98521,-4.067263 -1.9368,-1.404174 -6.343,-2.033632 -2.56625,-0.338938 -4.6483,-1.016816 -2.03363,-0.726297 -3.48622,-1.839952 -1.4526,-1.162075 -2.22731,-2.759929 -0.77472,-1.597853 -0.77472,-3.776744 v -0.581038 q 0,-1.985211 0.82314,-3.631485 0.82313,-1.646273 2.27573,-2.856768 1.50101,-1.210495 3.53464,-1.839952 2.08205,-0.677877 4.55146,-0.677877 2.85677,0 5.08408,0.823136 2.27573,0.823137 3.82517,2.227311 1.54943,1.355754 2.32415,3.244127 0.82313,1.839952 0.82313,3.873584 v 2.033631 h -4.06726 z"
           id="path4094" /><path
           d="m 247.33129,76.248694 q 0,3.002028 -1.01682,5.326178 -0.96839,2.275731 -2.61467,3.873584 -1.64627,1.549434 -3.87358,2.37257 -2.17889,0.823137 -4.55146,0.823137 -2.42099,0 -4.59988,-0.823137 -2.17889,-0.823136 -3.82517,-2.37257 -1.64627,-1.597853 -2.66309,-3.873584 -0.96839,-2.32415 -0.96839,-5.326178 v -0.581037 q 0,-2.953608 0.96839,-5.229339 1.01682,-2.32415 2.66309,-3.922004 1.69469,-1.597853 3.87359,-2.42099 2.17889,-0.823136 4.55146,-0.823136 2.37257,0 4.55146,0.823136 2.17889,0.823137 3.82516,2.42099 1.6947,1.597854 2.66309,3.922004 1.01682,2.275731 1.01682,5.229339 z m -12.05653,8.812404 q 1.74311,0 3.1957,-0.581038 1.50102,-0.629457 2.61467,-1.791532 1.11366,-1.162076 1.74312,-2.759929 0.62945,-1.646273 0.62945,-3.679905 v -0.581037 q 0,-1.936792 -0.62945,-3.534646 -0.62946,-1.646273 -1.74312,-2.808348 -1.11365,-1.162075 -2.61467,-1.791533 -1.50101,-0.677877 -3.1957,-0.677877 -1.6947,0 -3.19571,0.677877 -1.50101,0.629458 -2.61467,1.791533 -1.11365,1.162075 -1.74311,2.808348 -0.62946,1.597854 -0.62946,3.534646 v 0.581037 q 0,2.033632 0.62946,3.679905 0.62946,1.597853 1.74311,2.759929 1.11366,1.162075 2.56625,1.791532 1.50101,0.581038 3.24413,0.581038 z"
           id="path4096" /></g><rect
         style="display:inline;fill:none;stroke:#000000;stroke-width:1.29975;stroke-dasharray:none;stroke-opacity:1"
         id="rect1651-0"
         width="62.200249"
         height="86.012749"
         x="181.30812"
         y="10.763638"
         inkscape:label="First Border" /></g><circle
       style="display:inline;fill:#333333;fill-opacity:1;stroke:none;stroke-width:0.195741;stroke-dasharray:none;stroke-opacity:1"
       id="path2845"
       cx="12.793068"
       cy="269.99454"
       r="7.5" /><circle
       style="display:inline;fill:#333333;fill-opacity:1;stroke:none;stroke-width:0.195741;stroke-dasharray:none;stroke-opacity:1"
       id="path2845-1"
       cx="7.6199999"
       cy="255.51271"
       r="7.5" /><g
       id="g807"
       transform="translate(26.61382,-3.8092135)"><g
         id="g808"
         transform="translate(55.814615,-27.735367)"><g
           aria-label="Ky"
           transform="scale(0.99808616,1.0019175)"
           id="text1585-8"
           style="font-size:6.30815px;line-height:0;font-family:'Space Mono';-inkscape-font-specification:'Space Mono';text-align:center;text-anchor:middle;display:inline;stroke:#000000;stroke-width:0.0657101"
           inkscape:label="Silly Black"><path
             d="m -75.182597,210.85243 h -0.529885 v -4.4157 h 0.529885 v 1.95552 h 0.145087 l 1.696893,-1.95552 h 0.656047 v 0.0378 l -1.829363,2.13215 v 0.0757 l 1.905061,2.13215 v 0.0378 h -0.668664 l -1.759974,-1.96814 h -0.145087 z"
             id="path790" /><path
             d="m -69.59358,210.2847 h -0.0757 q -0.151396,0.30279 -0.397414,0.47942 -0.246018,0.17663 -0.624507,0.17663 -0.258634,0 -0.479419,-0.0883 -0.214477,-0.082 -0.372181,-0.25232 -0.151395,-0.17032 -0.23971,-0.42265 -0.08201,-0.25233 -0.08201,-0.58666 v -1.86721 h 0.492036 v 1.80413 q 0,0.49204 0.201861,0.71913 0.201861,0.22709 0.618199,0.22709 0.447878,0 0.700204,-0.30279 0.258634,-0.3091 0.258634,-0.82006 v -1.6275 h 0.492036 v 3.89844 q 0,0.21447 -0.138779,0.35325 -0.132471,0.13878 -0.346948,0.13878 h -1.785207 v -0.45418 h 1.608578 q 0.17032,0 0.17032,-0.18925 z"
             id="path792" /></g><g
           aria-label="Le"
           transform="scale(0.98823526,1.0119048)"
           id="text1593-9"
           style="font-size:6.24649px;line-height:0;font-family:'Space Mono';-inkscape-font-specification:'Space Mono';text-align:center;text-anchor:middle;display:inline;stroke:#000000;stroke-width:0.0650675"
           inkscape:label="Sounds Black"><path
             d="m -76.467522,209.34012 h 0.524705 v 3.88532 h 2.286215 v 0.48722 h -2.81092 z"
             id="path795" /><path
             d="m -72.288623,212.31345 q 0.01874,0.46224 0.287338,0.74333 0.268599,0.28109 0.749579,0.28109 0.218627,0 0.381036,-0.05 0.162409,-0.05 0.274845,-0.13742 0.118684,-0.0874 0.187395,-0.19989 0.07496,-0.11868 0.118683,-0.24986 l 0.462241,0.12493 q -0.131177,0.43101 -0.487227,0.70585 -0.349803,0.2686 -0.949466,0.2686 -0.331064,0 -0.612156,-0.11243 -0.274846,-0.11869 -0.474733,-0.33107 -0.199888,-0.21238 -0.312325,-0.50596 -0.112437,-0.29359 -0.112437,-0.64964 v -0.14991 q 0,-0.32482 0.112437,-0.60591 0.118683,-0.2811 0.324818,-0.48098 0.206134,-0.20614 0.480979,-0.31857 0.281092,-0.11869 0.60591,-0.11869 0.381036,0 0.655881,0.14367 0.281092,0.13742 0.455994,0.34356 0.181148,0.20613 0.262353,0.44975 0.08745,0.24361 0.08745,0.44974 v 0.39978 z m 1.036917,-1.32426 q -0.206134,0 -0.387282,0.0687 -0.174902,0.0625 -0.312325,0.18115 -0.131176,0.11869 -0.218627,0.28109 -0.0812,0.15617 -0.10619,0.34356 h 1.998876 q -0.01249,-0.19989 -0.09994,-0.3623 -0.0812,-0.1624 -0.218627,-0.27484 -0.131176,-0.11244 -0.306078,-0.1749 -0.168655,-0.0625 -0.349803,-0.0625 z"
             id="path797" /></g><rect
           style="display:inline;fill:none;stroke:#000000;stroke-width:0.163748;stroke-dasharray:none;stroke-opacity:1"
           id="rect1651-5"
           width="7.8362522"
           height="10.836252"
           x="-76.186562"
           y="206.12643"
           inkscape:label="First Border" /></g></g><g
       aria-label="in"
       id="text815"
       style="font-size:3.52778px;line-height:0;font-family:'Space Mono';-inkscape-font-specification:'Space Mono';stroke:#000000;stroke-width:0.1"
       transform="translate(2.5400001,0.16785322)"><path
         d="m 6.2900277,189.93723 q 0,-0.1023 0.070556,-0.17286 0.074083,-0.0741 0.176389,-0.0741 0.1023056,0 0.1728612,0.0741 0.074083,0.0706 0.074083,0.17286 0,0.10231 -0.074083,0.17639 -0.070556,0.0706 -0.1728612,0.0706 -0.1023056,0 -0.176389,-0.0706 -0.070556,-0.0741 -0.070556,-0.17639 z m -0.5009448,2.01789 h 0.6138337 v -1.24178 H 5.852583 v -0.254 h 0.8255005 v 1.49578 h 0.5715004 v 0.254 h -1.460501 z"
         style="line-height:0px"
         id="path574" /><path
         d="M 8.1809161,192.20912 H 7.9057492 v -1.74978 h 0.2751669 v 0.29634 h 0.042333 q 0.1622779,-0.34573 0.5644448,-0.34573 0.3033891,0 0.4833059,0.1905 0.1799168,0.18698 0.1799168,0.56445 v 1.04422 H 9.1757501 v -0.98778 q 0,-0.27516 -0.1234723,-0.41275 -0.1234724,-0.13758 -0.3351392,-0.13758 -0.2504723,0 -0.3951113,0.17286 -0.1411112,0.16933 -0.1411112,0.45508 z"
         style="line-height:0px"
         id="path576" /></g><g
       aria-label="out"
       id="text904"
       style="font-size:3.52777px;line-height:0px;font-family:'Space Mono';-inkscape-font-specification:'Space Mono';fill:#cccccc;fill-opacity:1;stroke:#cccccc;stroke-width:0.1"
       transform="translate(5.0840977,2.3446402)"><path
         d="m 6.5324606,265.40611 q 0,0.21872 -0.074083,0.38805 -0.070555,0.16581 -0.1904995,0.28222 -0.1199442,0.11289 -0.2822216,0.17286 -0.1587497,0.06 -0.3316104,0.06 -0.1763885,0 -0.3351382,-0.06 -0.1587496,-0.06 -0.2786938,-0.17286 -0.1199442,-0.11641 -0.1940274,-0.28222 -0.070555,-0.16933 -0.070555,-0.38805 v -0.0423 q 0,-0.21519 0.070555,-0.381 0.074083,-0.16933 0.1940274,-0.28575 0.1234719,-0.11641 0.2822216,-0.17638 0.1587496,-0.06 0.3316104,-0.06 0.1728607,0 0.3316104,0.06 0.1587496,0.06 0.2786938,0.17638 0.1234719,0.11642 0.1940273,0.28575 0.074083,0.16581 0.074083,0.381 z m -0.8784147,0.64205 q 0.1269997,0 0.2328328,-0.0423 0.1093609,-0.0459 0.1904996,-0.13053 0.081139,-0.0847 0.1269997,-0.20108 0.045861,-0.11995 0.045861,-0.26811 v -0.0423 q 0,-0.14111 -0.045861,-0.25752 -0.045861,-0.11995 -0.1269997,-0.20461 -0.081139,-0.0847 -0.1904996,-0.13053 -0.1093609,-0.0494 -0.2328328,-0.0494 -0.123472,0 -0.2328328,0.0494 -0.1093609,0.0459 -0.1904996,0.13053 -0.081139,0.0847 -0.1269997,0.20461 -0.045861,0.11641 -0.045861,0.25752 v 0.0423 q 0,0.14816 0.045861,0.26811 0.045861,0.11641 0.1269997,0.20108 0.081139,0.0847 0.1869718,0.13053 0.1093609,0.0423 0.2363606,0.0423 z"
         style="fill:#cccccc;fill-opacity:1"
         id="path595" /><path
         d="m 8.2892883,264.51005 h 0.2751661 v 1.74978 H 8.2892883 v -0.3175 h -0.042333 q -0.084666,0.16933 -0.2222495,0.26811 -0.1375831,0.0988 -0.3492493,0.0988 -0.1446385,0 -0.2681105,-0.0494 -0.1199442,-0.0459 -0.2081384,-0.14111 -0.084666,-0.0953 -0.1340553,-0.23636 -0.045861,-0.14112 -0.045861,-0.32809 v -1.04422 h 0.2751661 v 1.00894 q 0,0.27517 0.1128886,0.40217 0.1128886,0.127 0.3457215,0.127 0.2504716,0 0.3915824,-0.16933 0.1446386,-0.17286 0.1446386,-0.45861 z"
         style="fill:#cccccc;fill-opacity:1"
         id="path597" /><path
         d="m 9.1394791,264.51005 h 0.5503321 v -0.71966 h 0.2751661 v 0.71966 h 0.6773317 v 0.254 H 9.9649773 v 1.13594 q 0,0.10584 0.09525,0.10584 h 0.497416 v 0.254 H 9.9614495 q -0.1199441,0 -0.1975551,-0.0776 -0.074083,-0.0776 -0.074083,-0.19756 v -1.22061 H 9.1394791 Z"
         style="fill:#cccccc;fill-opacity:1"
         id="path599" /></g><g
       aria-label="decay"
       id="text812"
       style="font-size:3.52777px;line-height:0px;font-family:'Space Mono';-inkscape-font-specification:'Space Mono';stroke:#000000;stroke-width:0.1"
       transform="translate(5.1730661,12.963435)"><path
         d="m 3.9334837,222.03156 h -0.042333 q -0.042333,0.0811 -0.1093608,0.14111 -0.0635,0.06 -0.1411108,0.0988 -0.074083,0.0388 -0.1587497,0.0564 -0.084666,0.0212 -0.1622774,0.0212 -0.1763885,0 -0.3280826,-0.06 -0.1516941,-0.06 -0.2681105,-0.17286 -0.1128887,-0.11289 -0.1799163,-0.27869 -0.0635,-0.16933 -0.0635,-0.38453 v -0.0564 q 0,-0.21167 0.067028,-0.37747 0.067028,-0.16934 0.1799162,-0.28222 0.1128887,-0.11642 0.2645828,-0.17639 0.1516941,-0.06 0.3210271,-0.06 0.1799162,0 0.3351381,0.0811 0.1587497,0.0776 0.2434161,0.24342 h 0.042333 v -0.99483 h 0.275166 v 2.46944 h -0.275166 z m -0.5856098,0.0564 q 0.1234719,0 0.229305,-0.0459 0.1058331,-0.0459 0.183444,-0.13053 0.081139,-0.0847 0.1269998,-0.20108 0.045861,-0.11994 0.045861,-0.26458 v -0.0423 q 0,-0.14111 -0.045861,-0.25752 -0.045861,-0.11995 -0.1269998,-0.20461 -0.077611,-0.0847 -0.1869718,-0.13053 -0.1058331,-0.0494 -0.2257772,-0.0494 -0.123472,0 -0.2328329,0.0459 -0.1058331,0.0459 -0.1869718,0.13053 -0.077611,0.0847 -0.1234719,0.20108 -0.042333,0.11642 -0.042333,0.25753 v 0.0564 q 0,0.14817 0.042333,0.26459 0.045861,0.11641 0.1234719,0.20108 0.081139,0.0811 0.1869718,0.127 0.1058331,0.0423 0.2328329,0.0423 z"
         id="path1572" /><path
         d="m 4.9388964,221.50945 q 0.010583,0.26105 0.1622774,0.4198 0.1516941,0.15875 0.4233324,0.15875 0.1234719,0 0.215194,-0.0282 0.091722,-0.0282 0.1552218,-0.0776 0.067028,-0.0494 0.1058331,-0.11289 0.042333,-0.067 0.067028,-0.14111 l 0.261055,0.0705 q -0.074083,0.24342 -0.2751661,0.39864 -0.1975551,0.1517 -0.5362211,0.1517 -0.1869718,0 -0.3457214,-0.0635 -0.1552219,-0.067 -0.2681105,-0.18698 -0.1128887,-0.11994 -0.1763885,-0.28574 -0.0635,-0.16581 -0.0635,-0.36689 v -0.0847 q 0,-0.18344 0.0635,-0.34219 0.067028,-0.15875 0.183444,-0.27164 0.1164164,-0.11642 0.2716383,-0.17992 0.1587496,-0.067 0.3421937,-0.067 0.215194,0 0.3704158,0.0811 0.1587497,0.0776 0.2575273,0.19403 0.1023053,0.11642 0.1481663,0.254 0.049389,0.13758 0.049389,0.254 v 0.22578 z m 0.5856098,-0.74789 q -0.1164164,0 -0.2187218,0.0388 -0.098778,0.0353 -0.1763885,0.1023 -0.074083,0.067 -0.1234719,0.15875 -0.045861,0.0882 -0.059972,0.19403 h 1.1288864 q -0.00706,-0.11289 -0.056444,-0.20461 -0.045861,-0.0917 -0.123472,-0.15523 -0.074083,-0.0635 -0.1728607,-0.0988 -0.09525,-0.0353 -0.1975551,-0.0353 z"
         id="path1574" /><path
         d="m 8.5336923,221.67878 q -0.028222,0.14464 -0.098778,0.26811 -0.067028,0.12347 -0.1728607,0.21519 -0.1058331,0.0882 -0.2469439,0.13759 -0.1411108,0.0494 -0.3139716,0.0494 -0.183444,0 -0.3492492,-0.06 -0.1622774,-0.06 -0.2857494,-0.17286 -0.1234719,-0.11641 -0.1975551,-0.28222 -0.070555,-0.1658 -0.070555,-0.381 v -0.0423 q 0,-0.21167 0.070555,-0.381 0.074083,-0.16933 0.1975551,-0.28575 0.123472,-0.11642 0.2857494,-0.17992 0.1658052,-0.0635 0.3492492,-0.0635 0.1658052,0 0.306916,0.0494 0.1411108,0.0494 0.2469439,0.14111 0.1093609,0.0882 0.1763885,0.21167 0.070555,0.12347 0.09525,0.26811 l -0.2751661,0.0635 q -0.010583,-0.0917 -0.052916,-0.17639 -0.038806,-0.0882 -0.1093609,-0.15169 -0.067028,-0.067 -0.1658052,-0.10583 -0.098777,-0.0388 -0.229305,-0.0388 -0.1269997,0 -0.2398884,0.0494 -0.1093609,0.0459 -0.1940273,0.13405 -0.084666,0.0847 -0.1340553,0.20461 -0.045861,0.11995 -0.045861,0.26106 v 0.0423 q 0,0.14817 0.045861,0.26811 0.049389,0.11642 0.1340553,0.19756 0.084666,0.0811 0.1975551,0.127 0.1128886,0.0423 0.2434161,0.0423 0.1305275,0 0.2257773,-0.0388 0.098778,-0.0423 0.1658052,-0.10584 0.070555,-0.067 0.1093609,-0.15169 0.042333,-0.0847 0.056444,-0.17639 z"
         id="path1576" /><path
         d="m 10.325797,222.00333 h -0.04233 q -0.08467,0.17639 -0.23636,0.26106 -0.1481668,0.0847 -0.313972,0.0847 -0.1728607,0 -0.321027,-0.0565 -0.1481664,-0.06 -0.261055,-0.17286 -0.1093609,-0.11642 -0.1728607,-0.28222 -0.0635,-0.16581 -0.0635,-0.38453 v -0.0564 q 0,-0.2152 0.0635,-0.381 0.0635,-0.16581 0.1728607,-0.27869 0.1128886,-0.11642 0.261055,-0.17639 0.1481663,-0.06 0.3139715,-0.06 0.1799163,0 0.3245545,0.0811 0.148167,0.0776 0.232833,0.24342 h 0.04233 v -0.27517 h 0.275166 v 1.38994 q 0,0.10584 0.09525,0.10584 h 0.0882 v 0.254 h -0.186972 q -0.119944,0 -0.197555,-0.0776 -0.07408,-0.0776 -0.07408,-0.19756 z m -0.5644428,0.0847 q 0.123472,0 0.2257773,-0.0459 0.1058335,-0.0459 0.1799165,-0.13053 0.07408,-0.0847 0.116416,-0.20108 0.04233,-0.11994 0.04233,-0.26458 v -0.0423 q 0,-0.14111 -0.04233,-0.25752 -0.04233,-0.11995 -0.119944,-0.20461 -0.07408,-0.0847 -0.1799163,-0.13053 -0.1023053,-0.0494 -0.2222495,-0.0494 -0.1234719,0 -0.2257773,0.0459 -0.1023053,0.0459 -0.1799163,0.13053 -0.074083,0.0811 -0.1164164,0.20108 -0.042333,0.11642 -0.042333,0.25753 v 0.0564 q 0,0.29986 0.1552219,0.4692 0.1587496,0.1658 0.4092213,0.1658 z"
         id="path1578" /><path
         d="m 12.484791,221.98217 h -0.04233 q -0.08467,0.16933 -0.22225,0.26811 -0.137583,0.0988 -0.349249,0.0988 -0.144638,0 -0.26811,-0.0494 -0.119945,-0.0459 -0.208139,-0.14111 -0.08467,-0.0952 -0.134055,-0.23636 -0.04586,-0.14111 -0.04586,-0.32809 v -1.04422 h 0.275166 v 1.00895 q 0,0.27516 0.112889,0.40216 0.112888,0.127 0.345721,0.127 0.250472,0 0.391583,-0.16933 0.144638,-0.17286 0.144638,-0.45861 v -0.91017 h 0.275166 v 2.18017 q 0,0.11994 -0.07761,0.19755 -0.07408,0.0776 -0.194027,0.0776 H 11.48996 v -0.254 h 0.899581 q 0.09525,0 0.09525,-0.10583 z"
         id="path1580" /></g><g
       aria-label="out"
       id="text904-1"
       style="font-size:3.52777px;line-height:0px;font-family:'Space Mono';-inkscape-font-specification:'Space Mono';fill:#cccccc;fill-opacity:1;stroke:#cccccc;stroke-width:0.1"
       transform="translate(-0.08897046,-13.279845)"><path
         d="m 6.5324606,265.40611 q 0,0.21872 -0.074083,0.38805 -0.070555,0.16581 -0.1904995,0.28222 -0.1199442,0.11289 -0.2822216,0.17286 -0.1587497,0.06 -0.3316104,0.06 -0.1763885,0 -0.3351382,-0.06 -0.1587496,-0.06 -0.2786938,-0.17286 -0.1199442,-0.11641 -0.1940274,-0.28222 -0.070555,-0.16933 -0.070555,-0.38805 v -0.0423 q 0,-0.21519 0.070555,-0.381 0.074083,-0.16933 0.1940274,-0.28575 0.1234719,-0.11641 0.2822216,-0.17638 0.1587496,-0.06 0.3316104,-0.06 0.1728607,0 0.3316104,0.06 0.1587496,0.06 0.2786938,0.17638 0.1234719,0.11642 0.1940273,0.28575 0.074083,0.16581 0.074083,0.381 z m -0.8784147,0.64205 q 0.1269997,0 0.2328328,-0.0423 0.1093609,-0.0459 0.1904996,-0.13053 0.081139,-0.0847 0.1269997,-0.20108 0.045861,-0.11995 0.045861,-0.26811 v -0.0423 q 0,-0.14111 -0.045861,-0.25752 -0.045861,-0.11995 -0.1269997,-0.20461 -0.081139,-0.0847 -0.1904996,-0.13053 -0.1093609,-0.0494 -0.2328328,-0.0494 -0.123472,0 -0.2328328,0.0494 -0.1093609,0.0459 -0.1904996,0.13053 -0.081139,0.0847 -0.1269997,0.20461 -0.045861,0.11641 -0.045861,0.25752 v 0.0423 q 0,0.14816 0.045861,0.26811 0.045861,0.11641 0.1269997,0.20108 0.081139,0.0847 0.1869718,0.13053 0.1093609,0.0423 0.2363606,0.0423 z"
         style="fill:#cccccc;fill-opacity:1"
         id="path595-7" /><path
         d="m 8.2892883,264.51005 h 0.2751661 v 1.74978 H 8.2892883 v -0.3175 h -0.042333 q -0.084666,0.16933 -0.2222495,0.26811 -0.1375831,0.0988 -0.3492493,0.0988 -0.1446385,0 -0.2681105,-0.0494 -0.1199442,-0.0459 -0.2081384,-0.14111 -0.084666,-0.0953 -0.1340553,-0.23636 -0.045861,-0.14112 -0.045861,-0.32809 v -1.04422 h 0.2751661 v 1.00894 q 0,0.27517 0.1128886,0.40217 0.1128886,0.127 0.3457215,0.127 0.2504716,0 0.3915824,-0.16933 0.1446386,-0.17286 0.1446386,-0.45861 z"
         style="fill:#cccccc;fill-opacity:1"
         id="path597-5" /><path
         d="m 9.1394791,264.51005 h 0.5503321 v -0.71966 h 0.2751661 v 0.71966 h 0.6773317 v 0.254 H 9.9649773 v 1.13594 q 0,0.10584 0.09525,0.10584 h 0.497416 v 0.254 H 9.9614495 q -0.1199441,0 -0.1975551,-0.0776 -0.074083,-0.0776 -0.074083,-0.19756 v -1.22061 H 9.1394791 Z"
         style="fill:#cccccc;fill-opacity:1"
         id="path599-5" /></g><g
       aria-label="inv"
       id="text885"
       style="font-size:3.52777px;line-height:0px;font-family:'Space Mono';-inkscape-font-specification:'Space Mono';fill:#cccccc;stroke:#cccccc;stroke-width:0.1"
       transform="translate(5.1730681,1.7906774)"><path
         d="m 5.1576181,261.75284 q 0,-0.10231 0.070555,-0.17287 0.074083,-0.0741 0.1763885,-0.0741 0.1023053,0 0.1728607,0.0741 0.074083,0.0706 0.074083,0.17287 0,0.1023 -0.074083,0.17638 -0.070555,0.0706 -0.1728607,0.0706 -0.1023053,0 -0.1763885,-0.0706 -0.070555,-0.0741 -0.070555,-0.17638 z m -0.5009434,2.01788 h 0.613832 v -1.24178 H 4.7201746 v -0.25399 h 0.8254982 v 1.49577 h 0.5714987 v 0.254 H 4.6566747 Z"
         id="path1583" /><path
         d="M 7.048501,264.02472 H 6.773335 v -1.74977 h 0.275166 v 0.29633 h 0.042333 q 0.1622774,-0.34572 0.5644432,-0.34572 0.3033882,0 0.4833045,0.1905 0.1799163,0.18697 0.1799163,0.56444 v 1.04422 H 8.0433322 v -0.98778 q 0,-0.27516 -0.123472,-0.41275 -0.1234719,-0.13758 -0.3351381,-0.13758 -0.2504717,0 -0.3951103,0.17286 -0.1411108,0.16934 -0.1411108,0.45508 z"
         id="path1585" /><path
         d="M 9.9730206,264.02472 H 9.429744 l -0.6103042,-1.74977 h 0.3245549 l 0.536221,1.62277 h 0.042333 l 0.5362213,-1.62277 h 0.324555 z"
         id="path1587" /></g><ellipse
       style="fill:#333333;fill-opacity:1;stroke:#cccccc;stroke-width:0.11328"
       id="path1090"
       cx="2.4999998"
       cy="265.37097"
       rx="1.4433596"
       ry="1.44336" /><ellipse
       style="fill:#333333;fill-opacity:1;stroke:#cccccc;stroke-width:0.11328"
       id="path1090-0"
       cx="17.11721"
       cy="258.00931"
       rx="1.4433596"
       ry="1.44336" /><g
       aria-label="type"
       id="text411"
       style="font-size:3.52777px;line-height:0px;font-family:'Space Mono';-inkscape-font-specification:'Space Mono';stroke:#000000;stroke-width:0.1"
       transform="translate(2.5399982,0.19896419)"><path
         d="m 3.5454282,203.55858 h 0.5503322 v -0.71967 h 0.275166 v 0.71967 h 0.6773319 v 0.254 H 4.3709264 v 1.13594 q 0,0.10583 0.09525,0.10583 H 4.963592 v 0.254 H 4.3673986 q -0.1199441,0 -0.1975551,-0.0776 -0.074083,-0.0776 -0.074083,-0.19756 v -1.2206 H 3.5454282 Z"
         id="path362" /><path
         d="M 7.034391,204.99085 H 6.992058 q -0.084667,0.16933 -0.2222495,0.26811 -0.1375831,0.0988 -0.3492493,0.0988 -0.1446385,0 -0.2681105,-0.0494 -0.1199442,-0.0459 -0.2081384,-0.14111 -0.084666,-0.0952 -0.1340553,-0.23636 -0.045861,-0.14111 -0.045861,-0.32808 v -1.04422 h 0.2751661 v 1.00894 q 0,0.27516 0.1128886,0.40216 0.1128886,0.127 0.3457215,0.127 0.2504716,0 0.3915824,-0.16933 0.1446386,-0.17286 0.1446386,-0.45861 v -0.91016 h 0.2751661 v 2.18016 q 0,0.11994 -0.077611,0.19755 -0.074083,0.0776 -0.1940273,0.0776 H 6.0395599 v -0.254 h 0.8995813 q 0.09525,0 0.09525,-0.10583 z"
         id="path364" /><path
         d="M 8.1350535,206.0139 H 7.8598874 v -2.45532 h 0.2751661 v 0.27516 h 0.042333 q 0.091722,-0.15875 0.2539995,-0.23989 0.1622774,-0.0847 0.352777,-0.0847 0.1622774,0 0.306916,0.06 0.1446385,0.06 0.2539994,0.17286 0.1128887,0.11289 0.1763885,0.27869 0.067028,0.16581 0.067028,0.37747 v 0.0706 q 0,0.21519 -0.0635,0.381 -0.0635,0.1658 -0.1763885,0.27869 -0.1093609,0.11289 -0.2575272,0.17286 -0.1481664,0.0565 -0.3139716,0.0565 -0.084666,0 -0.1728607,-0.0212 -0.088194,-0.0176 -0.169333,-0.0564 -0.077611,-0.0423 -0.1446385,-0.0988 -0.067028,-0.06 -0.1128887,-0.14111 h -0.042333 z m 0.5856098,-0.91722 q 0.1269997,0 0.2328328,-0.0423 0.1058331,-0.0459 0.1834441,-0.127 0.081139,-0.0811 0.1234719,-0.19755 0.045861,-0.11642 0.045861,-0.26106 v -0.0706 q 0,-0.14111 -0.045861,-0.25399 -0.042333,-0.11642 -0.1234719,-0.19756 -0.077611,-0.0847 -0.1869718,-0.13053 -0.1058331,-0.0459 -0.2293051,-0.0459 -0.1234719,0 -0.229305,0.0494 -0.1058331,0.0459 -0.1869719,0.13053 -0.077611,0.0847 -0.1234719,0.20461 -0.045861,0.11642 -0.045861,0.25753 v 0.0423 q 0,0.14464 0.045861,0.26458 0.045861,0.11642 0.1234719,0.20108 0.081139,0.0847 0.1869719,0.13053 0.1058331,0.0459 0.229305,0.0459 z"
         id="path366" /><path
         d="m 10.283463,204.51813 q 0.01058,0.26105 0.162278,0.4198 0.151694,0.15875 0.423332,0.15875 0.123472,0 0.215194,-0.0282 0.09172,-0.0282 0.155222,-0.0776 0.06703,-0.0494 0.105833,-0.11289 0.04233,-0.067 0.06703,-0.14111 l 0.261055,0.0706 q -0.07408,0.24341 -0.275166,0.39863 -0.197555,0.1517 -0.536221,0.1517 -0.186972,0 -0.345722,-0.0635 -0.155222,-0.067 -0.26811,-0.18697 -0.112889,-0.11995 -0.176389,-0.28575 -0.0635,-0.16581 -0.0635,-0.36689 V 204.37 q 0,-0.18344 0.0635,-0.34219 0.06703,-0.15875 0.183444,-0.27164 0.116417,-0.11642 0.271639,-0.17992 0.158749,-0.067 0.342193,-0.067 0.215194,0 0.370416,0.0811 0.15875,0.0776 0.257527,0.19402 0.102306,0.11642 0.148167,0.254 0.04939,0.13759 0.04939,0.254 v 0.22578 z m 0.58561,-0.74789 q -0.116416,0 -0.218721,0.0388 -0.09878,0.0353 -0.176389,0.1023 -0.07408,0.067 -0.123472,0.15875 -0.04586,0.0882 -0.05997,0.19403 h 1.128886 q -0.0071,-0.11289 -0.05644,-0.20461 -0.04586,-0.0917 -0.123472,-0.15522 -0.07408,-0.0635 -0.172861,-0.0988 -0.09525,-0.0353 -0.197555,-0.0353 z"
         id="path368" /></g><g
       aria-label="v.imp"
       id="text1119"
       style="font-size:3.52777px;line-height:0px;font-family:'Space Mono';-inkscape-font-specification:'Space Mono';display:inline;stroke:#000000;stroke-width:0.1"
       transform="translate(0.01019732,0.99482087)"><path
         d="M 3.5665956,221.82237 H 3.023319 L 2.4130148,220.0726 h 0.3245549 l 0.536221,1.62277 h 0.042333 L 3.852345,220.0726 h 0.3245548 z"
         id="path371" /><path
         d="m 5.2105347,221.62482 q 0,-0.10231 0.070555,-0.17286 0.074083,-0.0741 0.1763885,-0.0741 0.1023053,0 0.1728607,0.0741 0.074083,0.0705 0.074083,0.17286 0,0.1023 -0.074083,0.17639 -0.070555,0.0705 -0.1728607,0.0705 -0.1023054,0 -0.1763885,-0.0705 -0.070555,-0.0741 -0.070555,-0.17639 z"
         id="path373" /><path
         d="m 7.387167,219.55049 q 0,-0.10231 0.070555,-0.17286 0.074083,-0.0741 0.1763885,-0.0741 0.1023053,0 0.1728607,0.0741 0.074083,0.0705 0.074083,0.17286 0,0.1023 -0.074083,0.17639 -0.070555,0.0705 -0.1728607,0.0705 -0.1023053,0 -0.1763885,-0.0705 -0.070555,-0.0741 -0.070555,-0.17639 z m -0.5009433,2.01788 h 0.613832 V 220.3266 H 6.9497235 v -0.254 h 0.8254982 v 1.49577 h 0.5714988 v 0.254 H 6.8862237 Z"
         id="path375" /><path
         d="m 10.68563,221.82237 h -0.275166 v -1.25588 q 0,-0.12348 -0.05644,-0.20109 -0.05645,-0.0811 -0.179917,-0.0811 -0.116416,0 -0.1904993,0.0882 -0.070555,0.0847 -0.070555,0.26458 v 1.18533 h -0.275166 v -1.26999 q 0,-0.11642 -0.0635,-0.1905 -0.0635,-0.0776 -0.1693329,-0.0776 -0.1269998,0 -0.1975552,0.0917 -0.067028,0.0917 -0.067028,0.23989 v 1.20649 h -0.27517 v -1.74977 h 0.2751661 v 0.1905 h 0.042333 q 0.045861,-0.12347 0.1340553,-0.17992 0.088194,-0.06 0.2081384,-0.06 0.1269998,0 0.2081385,0.067 0.084666,0.067 0.1164164,0.17286 h 0.042333 q 0.1199447,-0.23989 0.3809997,-0.23989 0.197555,0 0.303388,0.127 0.109361,0.12347 0.109361,0.32455 z"
         id="path377" /><path
         d="m 11.373544,222.52793 h -0.275166 v -2.45533 h 0.275166 v 0.27516 h 0.04233 q 0.09172,-0.15875 0.253999,-0.23988 0.162278,-0.0847 0.352777,-0.0847 0.162278,0 0.306916,0.06 0.144639,0.06 0.254,0.17286 0.112888,0.11289 0.176388,0.2787 0.06703,0.1658 0.06703,0.37747 v 0.0706 q 0,0.2152 -0.0635,0.381 -0.0635,0.16581 -0.176389,0.2787 -0.10936,0.11288 -0.257527,0.17286 -0.148166,0.0564 -0.313971,0.0564 -0.08467,0 -0.172861,-0.0212 -0.08819,-0.0176 -0.169333,-0.0564 -0.07761,-0.0423 -0.144639,-0.0988 -0.06703,-0.06 -0.112888,-0.14111 h -0.04233 z m 0.585609,-0.91722 q 0.127,0 0.232833,-0.0423 0.105833,-0.0459 0.183444,-0.127 0.08114,-0.0811 0.123472,-0.19755 0.04586,-0.11642 0.04586,-0.26106 v -0.0706 q 0,-0.14111 -0.04586,-0.254 -0.04233,-0.11642 -0.123472,-0.19756 -0.07761,-0.0847 -0.186972,-0.13052 -0.105833,-0.0459 -0.229305,-0.0459 -0.123472,0 -0.229305,0.0494 -0.105833,0.0459 -0.186971,0.13053 -0.07761,0.0847 -0.123472,0.20461 -0.04586,0.11642 -0.04586,0.25753 v 0.0423 q 0,0.14464 0.04586,0.26458 0.04586,0.11642 0.123472,0.20109 0.08114,0.0847 0.186971,0.13053 0.105833,0.0459 0.229305,0.0459 z"
         id="path379" /></g><g
       aria-label="lin"
       id="text375"
       style="display:inline;font-size:2.82222px;line-height:0px;font-family:'Space Mono';-inkscape-font-specification:'Space Mono';stroke:#000000;stroke-width:0.1"
       transform="translate(0,168.49998)"><path
         d="M 7.6072046,47.747163 H 8.1152042 V 46.178009 H 7.6241379 v -0.2032 h 0.7111995 v 1.772354 H 8.843337 v 0.2032 H 7.6072046 Z"
         id="path327" /><path
         d="m 9.7690238,46.132853 q 0,-0.08184 0.056444,-0.138288 0.059267,-0.05927 0.141111,-0.05927 0.081845,0 0.1382888,0.05927 0.05927,0.05644 0.05927,0.138288 0,0.08185 -0.05927,0.141111 -0.05644,0.05645 -0.1382888,0.05645 -0.081844,0 -0.141111,-0.05645 -0.056444,-0.05927 -0.056444,-0.141111 z m -0.4007553,1.61431 H 9.8593348 V 46.753742 H 9.4190685 v -0.2032 h 0.6603995 v 1.196621 h 0.4572 v 0.2032 H 9.3682685 Z"
         id="path329" /><path
         d="m 11.281732,47.950363 h -0.220133 v -1.399821 h 0.220133 v 0.237066 h 0.03387 q 0.129822,-0.276577 0.451555,-0.276577 0.242711,0 0.386644,0.1524 0.143934,0.149577 0.143934,0.451555 v 0.835377 h -0.220134 v -0.790221 q 0,-0.220134 -0.09878,-0.3302 -0.09878,-0.110067 -0.268111,-0.110067 -0.200378,0 -0.316089,0.138289 -0.112889,0.135467 -0.112889,0.364066 z"
         id="path331" /></g><g
       aria-label="exp"
       id="text1042"
       style="display:inline;font-size:2.82223px;line-height:0px;font-family:'Space Mono';-inkscape-font-specification:'Space Mono';stroke:#000000;stroke-width:0.1"
       transform="translate(0,168.49998)"><path
         d="m 1.6001807,44.134758 q 0.00847,0.208845 0.1298226,0.335845 0.1213559,0.127 0.3386676,0.127 0.098778,0 0.1721561,-0.02258 0.073378,-0.02258 0.1241781,-0.06209 0.053622,-0.03951 0.084667,-0.09031 0.033867,-0.05362 0.053622,-0.112889 l 0.208845,0.05644 q -0.059267,0.194733 -0.220134,0.318912 -0.1580449,0.121355 -0.4289789,0.121355 -0.1495782,0 -0.2765786,-0.0508 -0.1241781,-0.05362 -0.2144895,-0.149578 -0.090311,-0.09596 -0.1411115,-0.2286 -0.0508,-0.132645 -0.0508,-0.293512 v -0.06773 q 0,-0.146756 0.0508,-0.273756 0.053622,-0.127001 0.146756,-0.217312 0.093134,-0.09313 0.2173117,-0.143934 0.1270004,-0.05362 0.2737563,-0.05362 0.1721561,0 0.2963342,0.06491 0.1270003,0.06209 0.2060228,0.155223 0.081845,0.09313 0.1185336,0.2032 0.039511,0.110067 0.039511,0.203201 v 0.180623 z m 0.4684902,-0.598313 q -0.093134,0 -0.1749782,0.03104 -0.079023,0.02822 -0.1411116,0.08185 -0.059267,0.05362 -0.098778,0.127 -0.036689,0.07056 -0.047978,0.155223 h 0.9031136 q -0.00564,-0.09031 -0.045156,-0.163689 -0.036689,-0.07338 -0.098778,-0.124178 -0.059267,-0.0508 -0.1382893,-0.07902 -0.0762,-0.02822 -0.1580449,-0.02822 z"
         id="path334" /><path
         d="m 4.1627643,43.367111 h 0.2511785 l -0.4120456,0.666046 v 0.03387 l 0.4459124,0.699913 h -0.256823 l -0.381001,-0.615246 h -0.0508 l -0.381001,0.615246 h -0.256823 l 0.4459124,-0.699913 v -0.03387 L 3.1552282,43.367111 h 0.2511785 l 0.3527787,0.58138 h 0.0508 z"
         id="path336" /><path
         d="m 5.0630544,45.331383 h -0.220134 v -1.964272 h 0.220134 v 0.220134 h 0.033867 q 0.073378,-0.127 0.2032005,-0.191912 0.1298226,-0.06773 0.282223,-0.06773 0.1298226,0 0.245534,0.04798 0.1157115,0.04798 0.2032006,0.138289 0.090311,0.09031 0.1411115,0.222956 0.053622,0.132645 0.053622,0.301979 v 0.05644 q 0,0.172157 -0.0508,0.304801 -0.0508,0.132645 -0.1411115,0.222957 -0.087489,0.09031 -0.2060228,0.138289 -0.1185336,0.04516 -0.2511784,0.04516 -0.067734,0 -0.1382893,-0.01693 -0.070556,-0.01411 -0.1354671,-0.04516 -0.062089,-0.03387 -0.1157114,-0.07902 -0.053622,-0.04798 -0.090311,-0.112889 h -0.033867 z m 0.4684902,-0.73378 q 0.1016003,0 0.1862672,-0.03387 0.084667,-0.03669 0.1467559,-0.101601 0.064911,-0.06491 0.098778,-0.158044 0.036689,-0.09313 0.036689,-0.208846 v -0.05644 q 0,-0.112889 -0.036689,-0.203201 -0.033867,-0.09313 -0.098778,-0.158045 -0.062089,-0.06773 -0.1495782,-0.104422 -0.084667,-0.03669 -0.1834449,-0.03669 -0.098778,0 -0.183445,0.03951 -0.084667,0.03669 -0.1495782,0.104423 -0.062089,0.06773 -0.098778,0.163689 -0.036689,0.09313 -0.036689,0.206023 v 0.03387 q 0,0.115711 0.036689,0.211667 0.036689,0.09313 0.098778,0.160867 0.064911,0.06773 0.1495782,0.104422 0.084667,0.03669 0.183445,0.03669 z"
         id="path338" /></g><g
       aria-label="log"
       id="text1046"
       style="display:inline;font-size:2.82223px;line-height:0px;font-family:'Space Mono';-inkscape-font-specification:'Space Mono';stroke:#000000;stroke-width:0.1"
       transform="translate(0,168.49998)"><path
         d="m 13.974052,44.36477 h 0.508001 v -1.56916 h -0.491068 v -0.203201 h 0.711202 v 1.772361 h 0.508001 v 0.2032 h -1.236136 z"
         id="path341" /><path
         d="m 17.022059,43.884991 q 0,0.174978 -0.05927,0.310445 -0.05645,0.132645 -0.152401,0.225778 -0.09596,0.09031 -0.225778,0.13829 -0.127,0.04798 -0.26529,0.04798 -0.141111,0 -0.268111,-0.04798 -0.127001,-0.04798 -0.222957,-0.13829 -0.09596,-0.09313 -0.155222,-0.225778 -0.05645,-0.135467 -0.05645,-0.310445 v -0.03387 q 0,-0.172156 0.05645,-0.304801 0.05927,-0.135467 0.155222,-0.228601 0.09878,-0.09313 0.225779,-0.141111 0.127,-0.04798 0.265289,-0.04798 0.13829,0 0.26529,0.04798 0.127,0.04798 0.222956,0.141111 0.09878,0.09313 0.155223,0.228601 0.05927,0.132645 0.05927,0.304801 z m -0.702736,0.513645 q 0.101601,0 0.186268,-0.03387 0.08749,-0.03669 0.1524,-0.104423 0.06491,-0.06773 0.1016,-0.160867 0.03669,-0.09596 0.03669,-0.214489 v -0.03387 q 0,-0.112889 -0.03669,-0.206023 -0.03669,-0.09596 -0.1016,-0.163689 -0.06491,-0.06773 -0.1524,-0.104423 -0.08749,-0.03951 -0.186268,-0.03951 -0.09878,0 -0.186267,0.03951 -0.08749,0.03669 -0.1524,0.104423 -0.06491,0.06773 -0.1016,0.163689 -0.03669,0.09313 -0.03669,0.206023 v 0.03387 q 0,0.118533 0.03669,0.214489 0.03669,0.09313 0.1016,0.160867 0.06491,0.06773 0.149578,0.104423 0.08749,0.03387 0.189089,0.03387 z"
         id="path343" /><path
         d="m 18.492439,44.353481 h -0.03387 q -0.06773,0.127 -0.186268,0.191911 -0.115711,0.06209 -0.254,0.06209 -0.141112,0 -0.26529,-0.04798 -0.124178,-0.04798 -0.220134,-0.13829 -0.09313,-0.09031 -0.149578,-0.222956 -0.05362,-0.135467 -0.05362,-0.307623 v -0.04516 q 0,-0.169333 0.05645,-0.301978 0.05645,-0.135467 0.149578,-0.225779 0.09313,-0.09313 0.217312,-0.141111 0.124178,-0.04798 0.259645,-0.04798 0.152401,0 0.26529,0.06773 0.115711,0.06491 0.180623,0.191912 h 0.03387 v -0.220134 h 0.220134 v 1.744138 q 0,0.09596 -0.06209,0.158045 -0.05927,0.06209 -0.155222,0.06209 h -0.911581 v -0.2032 h 0.832558 q 0.0762,0 0.0762,-0.08467 z m -0.46849,0.04516 q 0.09878,0 0.183445,-0.03669 0.08467,-0.03669 0.146756,-0.104422 0.06491,-0.06773 0.1016,-0.160867 0.03669,-0.09596 0.03669,-0.211667 v -0.03387 q 0,-0.112889 -0.03669,-0.206023 -0.03669,-0.09596 -0.1016,-0.163689 -0.06209,-0.06773 -0.149578,-0.104423 -0.08467,-0.03951 -0.180623,-0.03951 -0.09878,0 -0.186267,0.03669 -0.08467,0.03669 -0.149578,0.104422 -0.06209,0.06773 -0.09878,0.160868 -0.03387,0.09313 -0.03387,0.206022 v 0.04516 q 0,0.118534 0.03387,0.211667 0.03669,0.09313 0.09878,0.160867 0.06491,0.06491 0.149578,0.101601 0.08467,0.03387 0.186267,0.03387 z"
         id="path345" /></g></g><g
     inkscape:groupmode="layer"
     id="layer2"
     inkscape:label="components"
     style="display:none"><circle
       style="display:inline;vector-effect:none;fill:#0000ff;fill-opacity:1;fill-rule:evenodd;stroke:none;stroke-width:0.625;stroke-linecap:butt;stroke-linejoin:miter;stroke-miterlimit:4;stroke-dasharray:none;stroke-dashoffset:0;stroke-opacity:1;paint-order:normal"
       id="circle4958-4"
       cx="7.6199999"
       cy="89.740356"
       inkscape:label="env"
       r="2.5" /><circle
       style="display:inline;fill:#00ff00;fill-opacity:1;fill-rule:evenodd;stroke:none;stroke-width:0.875;stroke-linecap:butt;stroke-linejoin:miter;stroke-miterlimit:4;stroke-dasharray:none;stroke-dashoffset:0;stroke-opacity:1;paint-order:normal"
       id="path4954-7"
       cx="10.16"
       cy="28.711254"
       inkscape:label="signal"
       r="3.5" /><circle
       style="display:inline;vector-effect:none;fill:#0000ff;fill-opacity:1;fill-rule:evenodd;stroke:none;stroke-width:0.625;stroke-linecap:butt;stroke-linejoin:miter;stroke-miterlimit:4;stroke-dasharray:none;stroke-dashoffset:0;stroke-opacity:1;paint-order:normal"
       id="circle4958"
       cx="12.793068"
       cy="104.49433"
       inkscape:label="envinv"
       r="2.5" /><circle
       cy="72.11924"
       cx="12.793068"
       id="circle4956-6-3-6-1"
       style="display:inline;fill:#ff0000;fill-opacity:1;fill-rule:evenodd;stroke:none;stroke-width:0.875;stroke-linecap:butt;stroke-linejoin:miter;stroke-miterlimit:4;stroke-dasharray:none;stroke-dashoffset:0;stroke-opacity:1;paint-order:normal"
       inkscape:label="pdecay"
       r="3.5" /><rect
       style="fill:#ff0000;stroke:none;stroke-width:0.0895503"
       id="rect708"
       width="7.5"
       height="4"
       x="6.0154138"
       y="38.593067"
       inkscape:label="ptype" /><circle
       cy="59.49028"
       cx="7.6199999"
       id="circle4956-6-3-6-1-0-8"
       style="display:inline;fill:#ff0000;fill-opacity:1;fill-rule:evenodd;stroke:none;stroke-width:0.875;stroke-linecap:butt;stroke-linejoin:miter;stroke-miterlimit:4;stroke-dasharray:none;stroke-dashoffset:0;stroke-opacity:1;paint-order:normal"
       inkscape:label="pvimp"
       r="3.5" /></g></svg>
