<?xml version="1.0" encoding="UTF-8" standalone="no"?>
<!-- Created with Inkscape (http://www.inkscape.org/) -->

<svg
   width="15.24mm"
   height="128.5mm"
   viewBox="0 0 15.240001 128.50002"
   version="1.1"
   id="svg8"
   inkscape:version="1.2.1 (9c6d41e, 2022-07-14)"
   sodipodi:docname="Lola.svg"
   xml:space="preserve"
   xmlns:inkscape="http://www.inkscape.org/namespaces/inkscape"
   xmlns:sodipodi="http://sodipodi.sourceforge.net/DTD/sodipodi-0.dtd"
   xmlns:xlink="http://www.w3.org/1999/xlink"
   xmlns="http://www.w3.org/2000/svg"
   xmlns:svg="http://www.w3.org/2000/svg"
   xmlns:rdf="http://www.w3.org/1999/02/22-rdf-syntax-ns#"
   xmlns:cc="http://creativecommons.org/ns#"
   xmlns:dc="http://purl.org/dc/elements/1.1/"><defs
     id="defs2"><rect
       x="11.111678"
       y="28.284271"
       width="85.862968"
       height="48.487324"
       id="rect951" /><rect
       x="27.274118"
       y="437.39606"
       width="66.670067"
       height="39.39595"
       id="rect1515" /><rect
       x="17.172592"
       y="348.50262"
       width="54.548237"
       height="40.406101"
       id="rect1503" /><rect
       x="15.152288"
       y="238.396"
       width="88.893425"
       height="21.213203"
       id="rect1345" /><linearGradient
       inkscape:collect="always"
       id="linearGradient1128"><stop
         style="stop-color:#000000;stop-opacity:1;"
         offset="0"
         id="stop1124" /><stop
         style="stop-color:#000000;stop-opacity:0;"
         offset="1"
         id="stop1126" /></linearGradient><rect
       x="13.131983"
       y="28.284271"
       width="93.944183"
       height="31.31473"
       id="rect262" /><rect
       x="38.385796"
       y="46.467018"
       width="44.446712"
       height="42.426407"
       id="rect252" /><linearGradient
       inkscape:collect="always"
       xlink:href="#linearGradient1128"
       id="linearGradient1130"
       x1="21.486855"
       y1="180.23653"
       x2="26.847229"
       y2="180.23653"
       gradientUnits="userSpaceOnUse" /><rect
       x="11.111678"
       y="28.284271"
       width="85.862968"
       height="48.487324"
       id="rect951-1" /><rect
       x="11.111678"
       y="28.284271"
       width="85.862968"
       height="48.487324"
       id="rect951-1-5" /><rect
       x="11.111678"
       y="28.284271"
       width="85.862968"
       height="48.487324"
       id="rect951-1-2" /><rect
       x="11.111678"
       y="28.284271"
       width="85.862968"
       height="48.487324"
       id="rect951-1-9" /><linearGradient
       id="SVGID_1_"
       gradientUnits="userSpaceOnUse"
       x1="11.33881"
       y1="-0.0090399999"
       x2="11.33881"
       y2="22.666759">
		<stop
   offset="0"
   style="stop-color:#B0ACAE"
   id="stop1910" />
		<stop
   offset="1"
   style="stop-color:#000000"
   id="stop1912" />
	</linearGradient><linearGradient
       id="SVGID_2_"
       gradientUnits="userSpaceOnUse"
       x1="4.5368199"
       y1="-4120.5469"
       x2="22.556919"
       y2="-4120.5469"
       gradientTransform="rotate(90,-2053.495,-2055.713)">
		<stop
   offset="0"
   style="stop-color:#232223"
   id="stop1921" />
		<stop
   offset="1"
   style="stop-color:#1F1E1F"
   id="stop1923" />
	</linearGradient></defs><sodipodi:namedview
     id="base"
     pagecolor="#ffffff"
     bordercolor="#666666"
     borderopacity="1.0"
     inkscape:pageopacity="0.0"
     inkscape:pageshadow="2"
     inkscape:zoom="2.5199821"
     inkscape:cx="-58.135334"
     inkscape:cy="251.39067"
     inkscape:document-units="mm"
     inkscape:current-layer="layer1"
     showgrid="false"
     units="mm"
     inkscape:snap-bbox="true"
     inkscape:snap-page="true"
     inkscape:bbox-nodes="false"
     inkscape:snap-bbox-edge-midpoints="false"
     inkscape:window-width="1440"
     inkscape:window-height="847"
     inkscape:window-x="0"
     inkscape:window-y="25"
     inkscape:window-maximized="0"
     inkscape:snap-bbox-midpoints="true"
     inkscape:snap-nodes="false"
     inkscape:showpageshadow="0"
     inkscape:pagecheckerboard="0"
     inkscape:deskcolor="#d1d1d1" /><metadata
     id="metadata5"><rdf:RDF><cc:Work
         rdf:about=""><dc:format>image/svg+xml</dc:format><dc:type
           rdf:resource="http://purl.org/dc/dcmitype/StillImage" /></cc:Work></rdf:RDF></metadata><g
     inkscape:label="Layer 1"
     inkscape:groupmode="layer"
     id="layer1"
     transform="translate(0,-168.49998)"><rect
       style="display:inline;opacity:1;vector-effect:none;fill:#cccccc;fill-opacity:1;fill-rule:evenodd;stroke:none;stroke-width:0.459165;stroke-linecap:butt;stroke-linejoin:miter;stroke-miterlimit:4;stroke-dasharray:none;stroke-dashoffset:0;stroke-opacity:1;paint-order:normal"
       id="rect420"
       width="15.24"
       height="128.5"
       x="5.9211732e-17"
       y="168.49997" /><rect
       style="display:inline;fill:#e6e6e6;stroke:none;stroke-width:0.0887331"
       id="rect848"
       width="12.54816"
       height="57.947121"
       x="1.34592"
       y="203.99998"
       ry="2.5" /><g
       id="g561"
       transform="matrix(0.12598419,0,0,0.1259842,-19.140081,278.72581)"
       style="display:inline"><g
         aria-label="Si"
         transform="scale(0.98337622,1.0169048)"
         id="text1585-7"
         style="font-size:49.3413px;line-height:0;font-family:'Space Mono';-inkscape-font-specification:'Space Mono';text-align:center;text-anchor:middle;display:inline;stroke:#000000;stroke-width:0.513973"
         inkscape:label="Silly Black"><path
           d="m 210.37411,26.059765 q 0,-1.677604 -0.69078,-2.960478 -0.64144,-1.282874 -1.77629,-2.121676 -1.13485,-0.838802 -2.61509,-1.282874 -1.48024,-0.444071 -3.1085,-0.444071 -1.4309,0 -2.71377,0.39473 -1.28287,0.345389 -2.31904,1.036167 -0.98683,0.690778 -1.57892,1.726946 -0.5921,0.986826 -0.5921,2.319041 v 0.296048 q 0,1.430897 0.5921,2.467065 0.59209,0.986826 1.72694,1.726945 1.18419,0.690779 2.91114,1.184192 1.72695,0.444071 4.04599,0.78946 5.42754,0.838802 7.99329,3.207185 2.56575,2.319041 2.56575,6.266345 v 0.592096 q 0,2.220358 -0.78947,4.095328 -0.74012,1.825628 -2.2697,3.157843 -1.48023,1.332215 -3.70059,2.072335 -2.22036,0.740119 -5.1315,0.740119 -3.30587,0 -5.87161,-0.937485 -2.51641,-0.986826 -4.24336,-2.66443 -1.6776,-1.726945 -2.56574,-3.996645 -0.88815,-2.319041 -0.88815,-5.032813 v -1.480239 h 4.14467 v 1.184191 q 0,4.5394 2.46707,6.8091 2.5164,2.2697 6.95712,2.2697 3.84862,0 5.77293,-1.677605 1.97366,-1.726945 1.97366,-4.539399 v -0.296048 q 0,-2.713772 -2.023,-4.144669 -1.97365,-1.430898 -6.46371,-2.072335 -2.61509,-0.345389 -4.73676,-1.036167 -2.07234,-0.74012 -3.55258,-1.87497 -1.48024,-1.184191 -2.2697,-2.812454 -0.78946,-1.628263 -0.78946,-3.848621 v -0.592096 q 0,-2.022993 0.8388,-3.700598 0.83881,-1.677604 2.31905,-2.911136 1.52958,-1.233533 3.60191,-1.87497 2.12168,-0.690778 4.63808,-0.690778 2.91114,0 5.18084,0.838802 2.31904,0.838802 3.89796,2.2697 1.57892,1.381556 2.36839,3.305867 0.8388,1.87497 0.8388,3.947304 v 2.072335 h -4.14467 z"
           id="path10376" /><path
           d="m 229.22246,18.855935 q 0,-1.430898 0.98683,-2.417724 1.03616,-1.036167 2.46706,-1.036167 1.4309,0 2.41773,1.036167 1.03616,0.986826 1.03616,2.417724 0,1.430898 -1.03616,2.467065 -0.98683,0.986826 -2.41773,0.986826 -1.4309,0 -2.46706,-0.986826 -0.98683,-1.036167 -0.98683,-2.467065 z M 222.216,47.079159 h 8.58538 V 29.711021 h -7.69724 V 26.158448 H 234.65 v 20.920711 h 7.99329 v 3.552574 H 222.216 Z"
           id="path10378" /></g><g
         aria-label="So"
         transform="scale(0.96475638,1.0365311)"
         id="text1593-7"
         style="font-size:48.4198px;line-height:0;font-family:'Space Mono';-inkscape-font-specification:'Space Mono';text-align:center;text-anchor:middle;display:inline;stroke:#000000;stroke-width:0.504373"
         inkscape:label="Sounds Black"><path
           d="m 213.63113,63.853225 q 0,-1.646273 -0.67788,-2.905188 -0.62945,-1.258914 -1.74311,-2.082051 -1.11366,-0.823137 -2.56625,-1.258915 -1.45259,-0.435778 -3.05045,-0.435778 -1.40417,0 -2.66309,0.387358 -1.25891,0.338939 -2.27573,1.016816 -0.96839,0.677877 -1.54943,1.694693 -0.58104,0.968396 -0.58104,2.275731 v 0.290519 q 0,1.404174 0.58104,2.42099 0.58104,0.968396 1.69469,1.694693 1.16208,0.677877 2.85677,1.162075 1.69469,0.435778 3.97042,0.774717 5.32618,0.823136 7.84401,3.147287 2.51783,2.27573 2.51783,6.149314 v 0.581038 q 0,2.178891 -0.77472,4.018843 -0.72629,1.791533 -2.22731,3.098867 -1.45259,1.307335 -3.63148,2.033632 -2.17889,0.726297 -5.03566,0.726297 -3.24413,0 -5.76196,-0.919976 -2.46941,-0.968396 -4.1641,-2.614669 -1.64627,-1.694693 -2.51783,-3.922004 -0.87156,-2.275731 -0.87156,-4.93882 V 74.7961 h 4.06727 v 1.162075 q 0,4.454622 2.42099,6.681933 2.46941,2.227311 6.82719,2.227311 3.77674,0 5.66512,-1.646274 1.93679,-1.694693 1.93679,-4.454621 v -0.290519 q 0,-2.663089 -1.98521,-4.067263 -1.9368,-1.404174 -6.343,-2.033632 -2.56625,-0.338938 -4.6483,-1.016816 -2.03363,-0.726297 -3.48622,-1.839952 -1.4526,-1.162075 -2.22731,-2.759929 -0.77472,-1.597853 -0.77472,-3.776744 v -0.581038 q 0,-1.985211 0.82314,-3.631485 0.82313,-1.646273 2.27573,-2.856768 1.50101,-1.210495 3.53464,-1.839952 2.08205,-0.677877 4.55146,-0.677877 2.85677,0 5.08408,0.823136 2.27573,0.823137 3.82517,2.227311 1.54943,1.355754 2.32415,3.244127 0.82313,1.839952 0.82313,3.873584 v 2.033631 h -4.06726 z"
           id="path4094" /><path
           d="m 247.33129,76.248694 q 0,3.002028 -1.01682,5.326178 -0.96839,2.275731 -2.61467,3.873584 -1.64627,1.549434 -3.87358,2.37257 -2.17889,0.823137 -4.55146,0.823137 -2.42099,0 -4.59988,-0.823137 -2.17889,-0.823136 -3.82517,-2.37257 -1.64627,-1.597853 -2.66309,-3.873584 -0.96839,-2.32415 -0.96839,-5.326178 v -0.581037 q 0,-2.953608 0.96839,-5.229339 1.01682,-2.32415 2.66309,-3.922004 1.69469,-1.597853 3.87359,-2.42099 2.17889,-0.823136 4.55146,-0.823136 2.37257,0 4.55146,0.823136 2.17889,0.823137 3.82516,2.42099 1.6947,1.597854 2.66309,3.922004 1.01682,2.275731 1.01682,5.229339 z m -12.05653,8.812404 q 1.74311,0 3.1957,-0.581038 1.50102,-0.629457 2.61467,-1.791532 1.11366,-1.162076 1.74312,-2.759929 0.62945,-1.646273 0.62945,-3.679905 v -0.581037 q 0,-1.936792 -0.62945,-3.534646 -0.62946,-1.646273 -1.74312,-2.808348 -1.11365,-1.162075 -2.61467,-1.791533 -1.50101,-0.677877 -3.1957,-0.677877 -1.6947,0 -3.19571,0.677877 -1.50101,0.629458 -2.61467,1.791533 -1.11365,1.162075 -1.74311,2.808348 -0.62946,1.597854 -0.62946,3.534646 v 0.581037 q 0,2.033632 0.62946,3.679905 0.62946,1.597853 1.74311,2.759929 1.11366,1.162075 2.56625,1.791532 1.50101,0.581038 3.24413,0.581038 z"
           id="path4096" /></g><rect
         style="display:inline;fill:none;stroke:#000000;stroke-width:1.29975;stroke-dasharray:none;stroke-opacity:1"
         id="rect1651-0"
         width="62.200249"
         height="86.012749"
         x="181.30812"
         y="10.763638"
         inkscape:label="First Border" /></g><circle
       style="display:inline;fill:#333333;fill-opacity:1;stroke:none;stroke-width:0.195741;stroke-dasharray:none;stroke-opacity:1"
       id="path2845"
       cx="7.6199999"
       cy="271.49997"
       r="7.5" /><circle
       style="display:inline;fill:#e6e6e6;fill-opacity:1;stroke:none;stroke-width:0.195741;stroke-dasharray:none;stroke-opacity:1"
       id="path2845-4"
       cx="7.6199999"
       cy="193.99998"
       r="7.5" /><g
       id="g807"
       transform="translate(24.07382,-3.8092135)"><g
         aria-label="Lo"
         transform="scale(0.97385985,1.0268418)"
         id="text1585-79"
         style="font-size:6.27638px;line-height:0;font-family:'Space Mono';-inkscape-font-specification:'Space Mono';text-align:center;text-anchor:middle;display:inline;stroke:#000000;stroke-width:0.0653791"
         inkscape:label="Silly Black"><path
           d="m -20.284366,174.45909 h 0.527216 v 3.90391 h 2.297155 v 0.48955 h -2.824371 z"
           id="path789" /><path
           d="m -13.505878,177.33367 q 0,0.38914 -0.131804,0.6904 -0.125528,0.29499 -0.338925,0.50211 -0.213397,0.20085 -0.50211,0.30755 -0.282437,0.10669 -0.58998,0.10669 -0.313819,0 -0.596256,-0.10669 -0.282437,-0.1067 -0.495834,-0.30755 -0.213397,-0.20712 -0.345201,-0.50211 -0.125528,-0.30126 -0.125528,-0.6904 v -0.0753 q 0,-0.38286 0.125528,-0.67785 0.131804,-0.30126 0.345201,-0.50838 0.219673,-0.20712 0.50211,-0.31382 0.282437,-0.1067 0.58998,-0.1067 0.307543,0 0.58998,0.1067 0.282437,0.1067 0.495834,0.31382 0.219673,0.20712 0.345201,0.50838 0.131804,0.29499 0.131804,0.67785 z m -1.562819,1.1423 q 0.22595,0 0.414241,-0.0753 0.194568,-0.0816 0.338925,-0.23222 0.144356,-0.15063 0.225949,-0.35775 0.08159,-0.2134 0.08159,-0.47701 v -0.0753 q 0,-0.25105 -0.08159,-0.45817 -0.08159,-0.2134 -0.225949,-0.36403 -0.144357,-0.15064 -0.338925,-0.23223 -0.194568,-0.0879 -0.414241,-0.0879 -0.219673,0 -0.414241,0.0879 -0.194568,0.0816 -0.338925,0.23223 -0.144356,0.15063 -0.225949,0.36403 -0.08159,0.20712 -0.08159,0.45817 v 0.0753 q 0,0.26361 0.08159,0.47701 0.08159,0.20712 0.225949,0.35775 0.144357,0.15063 0.332649,0.23222 0.194567,0.0753 0.420517,0.0753 z"
           id="path792" /></g><g
         aria-label="La"
         transform="scale(0.96409293,1.0372444)"
         id="text1593-8"
         style="font-size:6.2143px;line-height:0;font-family:'Space Mono';-inkscape-font-specification:'Space Mono';text-align:center;text-anchor:middle;display:inline;stroke:#000000;stroke-width:0.0647324"
         inkscape:label="Sounds Black"><path
           d="m -20.490192,177.52957 h 0.522001 v 3.86529 h 2.274434 v 0.48472 h -2.796435 z"
           id="path795" /><path
           d="m -14.449896,181.35758 h -0.07457 q -0.149143,0.31071 -0.416358,0.45985 -0.261001,0.14915 -0.553073,0.14915 -0.304501,0 -0.565501,-0.0994 -0.261001,-0.10564 -0.459859,-0.3045 -0.192643,-0.20507 -0.3045,-0.49715 -0.111858,-0.29207 -0.111858,-0.67735 v -0.0994 q 0,-0.37908 0.111858,-0.67115 0.111857,-0.29207 0.3045,-0.49093 0.198858,-0.20507 0.459859,-0.31071 0.261,-0.10565 0.553072,-0.10565 0.31693,0 0.571716,0.14293 0.261001,0.13672 0.410144,0.42879 h 0.07457 v -0.48472 h 0.484716 v 2.44844 q 0,0.18643 0.167786,0.18643 h 0.155357 v 0.44743 h -0.329357 q -0.211287,0 -0.348001,-0.13672 -0.130501,-0.13671 -0.130501,-0.348 z m -0.994288,0.14914 q 0.217501,0 0.397716,-0.0808 0.186429,-0.0808 0.316929,-0.22993 0.1305,-0.14914 0.205072,-0.35421 0.07457,-0.21129 0.07457,-0.46607 v -0.0746 q 0,-0.24858 -0.07457,-0.45365 -0.07457,-0.21128 -0.211286,-0.36043 -0.130501,-0.14914 -0.31693,-0.22993 -0.180214,-0.087 -0.391501,-0.087 -0.2175,0 -0.397715,0.0808 -0.180215,0.0808 -0.316929,0.22993 -0.1305,0.14293 -0.205072,0.35421 -0.07457,0.20507 -0.07457,0.45365 v 0.0994 q 0,0.52821 0.27343,0.8265 0.279643,0.29207 0.720858,0.29207 z"
           id="path797" /></g><rect
         style="display:inline;fill:none;stroke:#000000;stroke-width:0.163748;stroke-dasharray:none;stroke-opacity:1"
         id="rect1651-2"
         width="7.8362522"
         height="10.836252"
         x="-20.371946"
         y="178.39107"
         inkscape:label="First Border" /></g><g
       aria-label="in"
       id="text815"
       style="font-size:3.52778px;line-height:0;font-family:'Space Mono';-inkscape-font-specification:'Space Mono';stroke:#000000;stroke-width:0.1"
       transform="translate(1.3555908e-7,-0.44929)"><path
         d="m 6.2900277,189.93723 q 0,-0.1023 0.070556,-0.17286 0.074083,-0.0741 0.176389,-0.0741 0.1023056,0 0.1728612,0.0741 0.074083,0.0706 0.074083,0.17286 0,0.10231 -0.074083,0.17639 -0.070556,0.0706 -0.1728612,0.0706 -0.1023056,0 -0.176389,-0.0706 -0.070556,-0.0741 -0.070556,-0.17639 z m -0.5009448,2.01789 h 0.6138337 v -1.24178 H 5.852583 v -0.254 h 0.8255005 v 1.49578 h 0.5715004 v 0.254 h -1.460501 z"
         style="line-height:0px"
         id="path574" /><path
         d="M 8.1809161,192.20912 H 7.9057492 v -1.74978 h 0.2751669 v 0.29634 h 0.042333 q 0.1622779,-0.34573 0.5644448,-0.34573 0.3033891,0 0.4833059,0.1905 0.1799168,0.18698 0.1799168,0.56445 v 1.04422 H 9.1757501 v -0.98778 q 0,-0.27516 -0.1234723,-0.41275 -0.1234724,-0.13758 -0.3351392,-0.13758 -0.2504723,0 -0.3951113,0.17286 -0.1411112,0.16933 -0.1411112,0.45508 z"
         style="line-height:0px"
         id="path576" /></g><g
       aria-label="out"
       id="text904"
       style="font-size:3.52777px;line-height:0px;font-family:'Space Mono';-inkscape-font-specification:'Space Mono';fill:#cccccc;fill-opacity:1;stroke:#cccccc;stroke-width:0.1"
       transform="translate(0,2.95059)"><path
         d="m 6.5324606,265.40611 q 0,0.21872 -0.074083,0.38805 -0.070555,0.16581 -0.1904995,0.28222 -0.1199442,0.11289 -0.2822216,0.17286 -0.1587497,0.06 -0.3316104,0.06 -0.1763885,0 -0.3351382,-0.06 -0.1587496,-0.06 -0.2786938,-0.17286 -0.1199442,-0.11641 -0.1940274,-0.28222 -0.070555,-0.16933 -0.070555,-0.38805 v -0.0423 q 0,-0.21519 0.070555,-0.381 0.074083,-0.16933 0.1940274,-0.28575 0.1234719,-0.11641 0.2822216,-0.17638 0.1587496,-0.06 0.3316104,-0.06 0.1728607,0 0.3316104,0.06 0.1587496,0.06 0.2786938,0.17638 0.1234719,0.11642 0.1940273,0.28575 0.074083,0.16581 0.074083,0.381 z m -0.8784147,0.64205 q 0.1269997,0 0.2328328,-0.0423 0.1093609,-0.0459 0.1904996,-0.13053 0.081139,-0.0847 0.1269997,-0.20108 0.045861,-0.11995 0.045861,-0.26811 v -0.0423 q 0,-0.14111 -0.045861,-0.25752 -0.045861,-0.11995 -0.1269997,-0.20461 -0.081139,-0.0847 -0.1904996,-0.13053 -0.1093609,-0.0494 -0.2328328,-0.0494 -0.123472,0 -0.2328328,0.0494 -0.1093609,0.0459 -0.1904996,0.13053 -0.081139,0.0847 -0.1269997,0.20461 -0.045861,0.11641 -0.045861,0.25752 v 0.0423 q 0,0.14816 0.045861,0.26811 0.045861,0.11641 0.1269997,0.20108 0.081139,0.0847 0.1869718,0.13053 0.1093609,0.0423 0.2363606,0.0423 z"
         style="fill:#cccccc;fill-opacity:1"
         id="path595" /><path
         d="m 8.2892883,264.51005 h 0.2751661 v 1.74978 H 8.2892883 v -0.3175 h -0.042333 q -0.084666,0.16933 -0.2222495,0.26811 -0.1375831,0.0988 -0.3492493,0.0988 -0.1446385,0 -0.2681105,-0.0494 -0.1199442,-0.0459 -0.2081384,-0.14111 -0.084666,-0.0953 -0.1340553,-0.23636 -0.045861,-0.14112 -0.045861,-0.32809 v -1.04422 h 0.2751661 v 1.00894 q 0,0.27517 0.1128886,0.40217 0.1128886,0.127 0.3457215,0.127 0.2504716,0 0.3915824,-0.16933 0.1446386,-0.17286 0.1446386,-0.45861 z"
         style="fill:#cccccc;fill-opacity:1"
         id="path597" /><path
         d="m 9.1394791,264.51005 h 0.5503321 v -0.71966 h 0.2751661 v 0.71966 h 0.6773317 v 0.254 H 9.9649773 v 1.13594 q 0,0.10584 0.09525,0.10584 h 0.497416 v 0.254 H 9.9614495 q -0.1199441,0 -0.1975551,-0.0776 -0.074083,-0.0776 -0.074083,-0.19756 v -1.22061 H 9.1394791 Z"
         style="fill:#cccccc;fill-opacity:1"
         id="path599" /></g><g
       aria-label="rec"
       id="text1031"
       style="font-size:3.52777px;line-height:0px;font-family:'Space Mono';-inkscape-font-specification:'Space Mono';display:inline;fill:#cccccc;stroke:#000000;stroke-width:0.1"
       transform="translate(-0.67674152,4.0628671)"><path
         d="m 5.6195116,201.99119 h 0.6349986 v 0.23284 h 0.042333 q 0.067028,-0.14464 0.1904996,-0.21167 0.123472,-0.0706 0.2822216,-0.0706 0.2645828,0 0.4268602,0.17286 0.1622774,0.17287 0.1728607,0.50448 l -0.2892771,0.0423 q 0,-0.24342 -0.1164164,-0.34925 -0.1164165,-0.10936 -0.2857494,-0.10936 -0.1093609,0 -0.1904996,0.0423 -0.077611,0.0423 -0.1305275,0.11642 -0.052916,0.0741 -0.077611,0.17286 -0.024694,0.0988 -0.024694,0.21167 v 0.74083 h 0.444499 v 0.254 h -1.121831 v -0.254 h 0.4021658 v -1.24178 H 5.6195116 Z"
         style="fill:#000000"
         id="path579" /><path
         d="m 8.0783655,202.95075 q 0.010583,0.26105 0.1622774,0.4198 0.1516941,0.15875 0.4233324,0.15875 0.123472,0 0.215194,-0.0282 0.091722,-0.0282 0.1552219,-0.0776 0.067028,-0.0494 0.1058331,-0.11289 0.042333,-0.067 0.067028,-0.14111 l 0.261055,0.0705 q -0.074083,0.24342 -0.2751661,0.39864 -0.1975551,0.1517 -0.536221,0.1517 -0.1869718,0 -0.3457215,-0.0635 -0.1552219,-0.067 -0.2681105,-0.18698 -0.1128886,-0.11994 -0.1763885,-0.28575 -0.0635,-0.1658 -0.0635,-0.36688 v -0.0847 q 0,-0.18344 0.0635,-0.34219 0.067028,-0.15875 0.183444,-0.27164 0.1164165,-0.11642 0.2716383,-0.17992 0.1587497,-0.067 0.3421937,-0.067 0.215194,0 0.3704159,0.0811 0.1587496,0.0776 0.2575272,0.19403 0.1023053,0.11642 0.1481663,0.254 0.049389,0.13758 0.049389,0.254 v 0.22578 z m 0.5856098,-0.74789 q -0.1164164,0 -0.2187217,0.0388 -0.098778,0.0353 -0.1763885,0.10231 -0.074083,0.067 -0.123472,0.15875 -0.045861,0.0882 -0.059972,0.19403 h 1.1288865 q -0.00706,-0.11289 -0.056444,-0.20461 -0.045861,-0.0917 -0.1234719,-0.15523 -0.074083,-0.0635 -0.1728607,-0.0988 -0.09525,-0.0353 -0.1975552,-0.0353 z"
         style="fill:#000000"
         id="path581" /><path
         d="m 11.673161,203.12008 q -0.02822,0.14464 -0.09878,0.26811 -0.06703,0.12347 -0.172861,0.21519 -0.105833,0.0882 -0.246944,0.13759 -0.141111,0.0494 -0.313971,0.0494 -0.183444,0 -0.34925,-0.06 -0.162277,-0.06 -0.285749,-0.17286 -0.123472,-0.11641 -0.197555,-0.28222 -0.070555,-0.1658 -0.070555,-0.381 v -0.0423 q 0,-0.21167 0.070555,-0.381 0.07408,-0.16933 0.197555,-0.28575 0.123472,-0.11642 0.285749,-0.17992 0.165806,-0.0635 0.34925,-0.0635 0.165805,0 0.306916,0.0494 0.14111,0.0494 0.246944,0.14111 0.10936,0.0882 0.176388,0.21167 0.07056,0.12347 0.09525,0.26811 l -0.275166,0.0635 q -0.01058,-0.0917 -0.05292,-0.17639 -0.0388,-0.0882 -0.109361,-0.15169 -0.06703,-0.067 -0.165805,-0.10584 -0.09878,-0.0388 -0.229305,-0.0388 -0.127,0 -0.239888,0.0494 -0.109361,0.0459 -0.194028,0.13405 -0.08467,0.0847 -0.134055,0.20461 -0.04586,0.11995 -0.04586,0.26106 v 0.0423 q 0,0.14817 0.04586,0.26811 0.04939,0.11642 0.134055,0.19756 0.08467,0.0811 0.197556,0.127 0.112888,0.0423 0.243416,0.0423 0.130527,0 0.225777,-0.0388 0.09878,-0.0423 0.165805,-0.10584 0.07056,-0.067 0.109361,-0.15169 0.04233,-0.0847 0.05644,-0.17639 z"
         style="fill:#000000"
         id="path583" /></g><g
       aria-label="play"
       id="text1085"
       style="font-size:3.52777px;line-height:0px;font-family:'Space Mono';-inkscape-font-specification:'Space Mono';display:inline;stroke:#000000;stroke-width:0.1"
       transform="translate(-0.67674152,-11.714466)"><path
         d="M 5.8523444,242.05951 H 5.5771783 v -2.45533 h 0.2751661 v 0.27517 h 0.042333 q 0.091722,-0.15875 0.2539994,-0.23989 0.1622775,-0.0847 0.3527771,-0.0847 0.1622774,0 0.3069159,0.06 0.1446386,0.06 0.2539995,0.17286 0.1128886,0.11289 0.1763885,0.27869 0.067028,0.16581 0.067028,0.37747 v 0.0706 q 0,0.21519 -0.0635,0.381 -0.0635,0.1658 -0.1763885,0.27869 -0.1093609,0.11289 -0.2575273,0.17286 -0.1481663,0.0564 -0.3139715,0.0564 -0.084666,0 -0.1728607,-0.0212 -0.088194,-0.0176 -0.169333,-0.0564 -0.077611,-0.0423 -0.1446386,-0.0988 -0.067028,-0.06 -0.1128886,-0.14111 h -0.042333 z m 0.5856098,-0.91722 q 0.1269997,0 0.2328328,-0.0423 0.1058331,-0.0459 0.1834441,-0.127 0.081139,-0.0811 0.1234719,-0.19756 0.045861,-0.11641 0.045861,-0.26105 v -0.0706 q 0,-0.14111 -0.045861,-0.254 -0.042333,-0.11641 -0.1234719,-0.19755 -0.077611,-0.0847 -0.1869719,-0.13053 -0.1058331,-0.0459 -0.229305,-0.0459 -0.123472,0 -0.2293051,0.0494 -0.1058331,0.0459 -0.1869718,0.13053 -0.077611,0.0847 -0.1234719,0.20461 -0.045861,0.11641 -0.045861,0.25752 v 0.0423 q 0,0.14464 0.045861,0.26458 0.045861,0.11642 0.1234719,0.20108 0.081139,0.0847 0.1869718,0.13053 0.1058331,0.0459 0.2293051,0.0459 z"
         id="path586" /><path
         d="m 7.7996716,241.09996 h 0.6349987 v -1.96144 h -0.613832 v -0.254 h 0.888998 v 2.21544 h 0.6349986 v 0.254 H 7.7996716 Z"
         id="path588" /><path
         d="m 11.228662,241.05763 h -0.04233 q -0.08467,0.17638 -0.23636,0.26105 -0.148167,0.0847 -0.313972,0.0847 -0.172861,0 -0.321027,-0.0564 -0.148166,-0.06 -0.261055,-0.17286 -0.109361,-0.11641 -0.1728608,-0.28222 -0.0635,-0.1658 -0.0635,-0.38453 v -0.0564 q 0,-0.21519 0.0635,-0.381 0.0635,-0.16581 0.1728608,-0.27869 0.112889,-0.11642 0.261055,-0.17639 0.148166,-0.06 0.313971,-0.06 0.179917,0 0.324555,0.0811 0.148167,0.0776 0.232833,0.24342 h 0.04233 v -0.27517 h 0.275166 v 1.38995 q 0,0.10583 0.09525,0.10583 h 0.08819 v 0.254 h -0.186971 q -0.119945,0 -0.197555,-0.0776 -0.07408,-0.0776 -0.07408,-0.19756 z m -0.564443,0.0847 q 0.123472,0 0.225777,-0.0459 0.105834,-0.0459 0.179917,-0.13053 0.07408,-0.0847 0.116416,-0.20108 0.04233,-0.11994 0.04233,-0.26458 v -0.0423 q 0,-0.14111 -0.04233,-0.25752 -0.04233,-0.11995 -0.119944,-0.20461 -0.07408,-0.0847 -0.179916,-0.13053 -0.102306,-0.0494 -0.22225,-0.0494 -0.123472,0 -0.225777,0.0459 -0.102305,0.0459 -0.179916,0.13053 -0.07408,0.0811 -0.116417,0.20108 -0.04233,0.11642 -0.04233,0.25753 v 0.0564 q 0,0.29986 0.155222,0.4692 0.158749,0.1658 0.409221,0.1658 z"
         id="path590" /><path
         d="m 13.387656,241.03646 h -0.04233 q -0.08467,0.16933 -0.222249,0.26811 -0.137583,0.0988 -0.349249,0.0988 -0.144639,0 -0.268111,-0.0494 -0.119944,-0.0459 -0.208138,-0.14111 -0.08467,-0.0952 -0.134056,-0.23636 -0.04586,-0.14111 -0.04586,-0.32809 v -1.04422 h 0.275166 v 1.00895 q 0,0.27516 0.112889,0.40216 0.112889,0.127 0.345722,0.127 0.250471,0 0.391582,-0.16933 0.144639,-0.17286 0.144639,-0.45861 v -0.91017 h 0.275166 v 2.18017 q 0,0.11994 -0.07761,0.19755 -0.07408,0.0776 -0.194028,0.0776 H 12.39283 v -0.254 h 0.899582 q 0.09525,0 0.09525,-0.10583 z"
         id="path592" /></g><text
       xml:space="preserve"
       style="font-size:3.52777px;line-height:0px;font-family:'Space Mono';-inkscape-font-specification:'Space Mono';fill:#cccccc;fill-opacity:1;stroke:#cccccc;stroke-width:0.1"
       x="-61.924679"
       y="221.28517"
       id="text1037"><tspan
         sodipodi:role="line"
         id="tspan1035"
         style="stroke-width:0.1"
         x="-61.924679"
         y="221.28517" /></text><path
       style="fill:#000000;stroke:#000000;stroke-width:0.3;stroke-dasharray:none;stroke-opacity:1"
       d="m 7.6199999,212.55213 c 0,13.61597 0,13.24293 0,0 z"
       id="path968" /><path
       style="fill:#000000;stroke:#000000;stroke-width:0.3;stroke-dasharray:none;stroke-opacity:1"
       d="m 7.6199999,234.56471 c 0,13.61597 0,13.24293 0,0 z"
       id="path968-7" /><g
       aria-label="stop"
       id="text414"
       style="font-size:3.52777px;line-height:0px;font-family:'Space Mono';-inkscape-font-specification:'Space Mono';stroke:#000000;stroke-width:0.1"
       transform="translate(-0.67674152,1.8328774)"><path
         d="m 5.9370109,249.72121 q 0,0.12699 0.1058331,0.19402 0.1093609,0.067 0.3951103,0.0882 0.3069159,0.0247 0.4656656,0.14816 0.1622774,0.11995 0.1622774,0.35278 v 0.0212 q 0,0.127 -0.052916,0.2293 -0.049389,0.0988 -0.1411108,0.16933 -0.088194,0.0706 -0.2187218,0.10584 -0.1269997,0.0388 -0.2786938,0.0388 -0.2046107,0 -0.352777,-0.0529 -0.1446386,-0.0564 -0.2434161,-0.14464 -0.09525,-0.0917 -0.1446386,-0.20461 -0.049389,-0.11642 -0.056444,-0.23284 l 0.2610549,-0.0635 q 0.017639,0.20109 0.1552219,0.32456 0.1375831,0.11994 0.3668881,0.11994 0.1940274,0 0.3104438,-0.0741 0.1199442,-0.0776 0.1199442,-0.21519 0,-0.14817 -0.1164165,-0.21167 -0.1164164,-0.0635 -0.3774713,-0.0811 -0.3033883,-0.0212 -0.4656657,-0.14111 -0.1622774,-0.11994 -0.1622774,-0.34925 v -0.0212 q 0,-0.12348 0.052917,-0.2152 0.052917,-0.0952 0.1411108,-0.15875 0.091722,-0.0635 0.2046107,-0.0952 0.1128886,-0.0318 0.2363606,-0.0318 0.1728607,0 0.3033882,0.0494 0.1305275,0.0459 0.2187218,0.12347 0.088194,0.0741 0.1340552,0.17286 0.049389,0.0988 0.0635,0.19756 l -0.261055,0.0635 q -0.017639,-0.16933 -0.137583,-0.26458 -0.1164164,-0.0952 -0.306916,-0.0952 -0.074083,0 -0.1446386,0.0176 -0.067028,0.0141 -0.1199442,0.0459 -0.052917,0.0317 -0.084666,0.0811 -0.03175,0.0459 -0.03175,0.10937 z"
         id="path359" /><path
         d="m 7.672672,249.26965 h 0.5503321 v -0.71966 h 0.2751661 v 0.71966 H 9.175502 v 0.254 H 8.4981702 v 1.13594 q 0,0.10583 0.09525,0.10583 h 0.4974155 v 0.254 H 8.4946424 q -0.1199442,0 -0.1975551,-0.0776 -0.074083,-0.0776 -0.074083,-0.19755 v -1.22061 H 7.672672 Z"
         id="path361" /><path
         d="m 11.542634,250.1657 q 0,0.21873 -0.07408,0.38806 -0.07056,0.1658 -0.1905,0.28222 -0.119944,0.11289 -0.282221,0.17286 -0.15875,0.06 -0.331611,0.06 -0.176388,0 -0.335138,-0.06 -0.15875,-0.06 -0.278694,-0.17286 -0.119944,-0.11642 -0.1940271,-0.28222 -0.070555,-0.16933 -0.070555,-0.38806 v -0.0423 q 0,-0.21519 0.070555,-0.381 0.074083,-0.16933 0.1940271,-0.28575 0.123472,-0.11641 0.282222,-0.17639 0.158749,-0.06 0.33161,-0.06 0.172861,0 0.331611,0.06 0.158749,0.06 0.278693,0.17639 0.123472,0.11642 0.194028,0.28575 0.07408,0.16581 0.07408,0.381 z m -0.878415,0.64206 q 0.127,0 0.232833,-0.0423 0.109361,-0.0459 0.1905,-0.13052 0.08114,-0.0847 0.126999,-0.20109 0.04586,-0.11994 0.04586,-0.26811 v -0.0423 q 0,-0.14111 -0.04586,-0.25753 -0.04586,-0.11994 -0.126999,-0.20461 -0.08114,-0.0847 -0.1905,-0.13052 -0.109361,-0.0494 -0.232833,-0.0494 -0.123472,0 -0.232833,0.0494 -0.10936,0.0459 -0.190499,0.13052 -0.08114,0.0847 -0.127,0.20461 -0.04586,0.11642 -0.04586,0.25753 v 0.0423 q 0,0.14817 0.04586,0.26811 0.04586,0.11642 0.127,0.20109 0.08114,0.0847 0.186972,0.13052 0.10936,0.0423 0.23636,0.0423 z"
         id="path363" /><path
         d="m 12.262297,251.72498 h -0.275166 v -2.45533 h 0.275166 v 0.27517 h 0.04233 q 0.09172,-0.15875 0.254,-0.23989 0.162277,-0.0847 0.352777,-0.0847 0.162277,0 0.306916,0.06 0.144638,0.06 0.253999,0.17286 0.112889,0.11289 0.176389,0.2787 0.06703,0.1658 0.06703,0.37747 v 0.0706 q 0,0.21519 -0.0635,0.38099 -0.0635,0.16581 -0.176388,0.2787 -0.109361,0.11289 -0.257527,0.17286 -0.148167,0.0564 -0.313972,0.0564 -0.08467,0 -0.172861,-0.0212 -0.08819,-0.0176 -0.169333,-0.0565 -0.07761,-0.0423 -0.144638,-0.0988 -0.06703,-0.06 -0.112889,-0.14111 H 12.2623 Z m 0.58561,-0.91722 q 0.127,0 0.232833,-0.0423 0.105833,-0.0459 0.183444,-0.12699 0.08114,-0.0811 0.123472,-0.19756 0.04586,-0.11642 0.04586,-0.26105 v -0.0706 q 0,-0.14111 -0.04586,-0.254 -0.04233,-0.11642 -0.123472,-0.19755 -0.07761,-0.0847 -0.186972,-0.13053 -0.105833,-0.0459 -0.229305,-0.0459 -0.123472,0 -0.229305,0.0494 -0.105833,0.0459 -0.186972,0.13052 -0.07761,0.0847 -0.123472,0.20461 -0.04586,0.11642 -0.04586,0.25753 v 0.0423 q 0,0.14464 0.04586,0.26459 0.04586,0.11641 0.123472,0.20108 0.08114,0.0847 0.186972,0.13053 0.105833,0.0459 0.229305,0.0459 z"
         id="path365" /></g></g><g
     inkscape:groupmode="layer"
     id="layer2"
     inkscape:label="components"
     style="display:none"><circle
       style="display:inline;fill:#00ff00;fill-opacity:1;fill-rule:evenodd;stroke:none;stroke-width:0.875;stroke-linecap:butt;stroke-linejoin:miter;stroke-miterlimit:4;stroke-dasharray:none;stroke-dashoffset:0;stroke-opacity:1;paint-order:normal"
       id="path4954-7"
       cx="7.6199999"
       cy="28"
       inkscape:label="signal"
       r="3.5" /><circle
       style="display:inline;vector-effect:none;fill:#0000ff;fill-opacity:1;fill-rule:evenodd;stroke:none;stroke-width:0.625;stroke-linecap:butt;stroke-linejoin:miter;stroke-miterlimit:4;stroke-dasharray:none;stroke-dashoffset:0;stroke-opacity:1;paint-order:normal"
       id="circle4958"
       cx="7.6199999"
       cy="105.5"
       inkscape:label="out"
       r="2.5" /><circle
       inkscape:label="lrecord"
       r="1"
       cy="38.428947"
       cx="2.9432583"
       id="circle66"
       style="display:inline;fill:#ff00ff;fill-opacity:1;fill-rule:evenodd;stroke:none;stroke-width:0.25;stroke-linecap:butt;stroke-linejoin:miter;stroke-miterlimit:4;stroke-dasharray:none;stroke-dashoffset:0;stroke-opacity:1;paint-order:normal" /><circle
       inkscape:label="lplay"
       r="1"
       cy="60.257568"
       cx="2.9432583"
       id="circle66-3"
       style="display:inline;fill:#ff00ff;fill-opacity:1;fill-rule:evenodd;stroke:none;stroke-width:0.25;stroke-linecap:butt;stroke-linejoin:miter;stroke-miterlimit:4;stroke-dasharray:none;stroke-dashoffset:0;stroke-opacity:1;paint-order:normal" /><circle
       inkscape:label="lstop"
       r="1"
       cy="83.470383"
       cx="2.9432583"
       id="circle66-3-7"
       style="display:inline;fill:#ff00ff;fill-opacity:1;fill-rule:evenodd;stroke:none;stroke-width:0.25;stroke-linecap:butt;stroke-linejoin:miter;stroke-miterlimit:4;stroke-dasharray:none;stroke-dashoffset:0;stroke-opacity:1;paint-order:normal" /><circle
       cy="53.954643"
       cx="7.6199999"
       id="circle4956-6-3-6-1"
       style="display:inline;fill:#ff0000;fill-opacity:1;fill-rule:evenodd;stroke:none;stroke-width:0.5;stroke-linecap:butt;stroke-linejoin:miter;stroke-miterlimit:4;stroke-dasharray:none;stroke-dashoffset:0;stroke-opacity:1;paint-order:normal"
       inkscape:label="brecord"
       r="2" /><circle
       style="display:inline;fill:#00ff00;fill-opacity:1;fill-rule:evenodd;stroke:none;stroke-width:0.875;stroke-linecap:butt;stroke-linejoin:miter;stroke-miterlimit:4;stroke-dasharray:none;stroke-dashoffset:0;stroke-opacity:1;paint-order:normal"
       id="path4954-7-2"
       cx="7.6199999"
       cy="45.454643"
       inkscape:label="irecord"
       r="3.5" /><circle
       cy="75.120071"
       cx="7.6199999"
       id="circle4956-6-3-6-1-5"
       style="display:inline;fill:#ff0000;fill-opacity:1;fill-rule:evenodd;stroke:none;stroke-width:0.5;stroke-linecap:butt;stroke-linejoin:miter;stroke-miterlimit:4;stroke-dasharray:none;stroke-dashoffset:0;stroke-opacity:1;paint-order:normal"
       inkscape:label="bplay"
       r="2" /><circle
       cy="88.832878"
       cx="7.6199999"
       id="circle4956-6-3-6-1-5-2"
       style="display:inline;fill:#ff0000;fill-opacity:1;fill-rule:evenodd;stroke:none;stroke-width:0.5;stroke-linecap:butt;stroke-linejoin:miter;stroke-miterlimit:4;stroke-dasharray:none;stroke-dashoffset:0;stroke-opacity:1;paint-order:normal"
       inkscape:label="bstop"
       r="2" /><circle
       style="display:inline;fill:#00ff00;fill-opacity:1;fill-rule:evenodd;stroke:none;stroke-width:0.875;stroke-linecap:butt;stroke-linejoin:miter;stroke-miterlimit:4;stroke-dasharray:none;stroke-dashoffset:0;stroke-opacity:1;paint-order:normal"
       id="path4954-7-2-4"
       cx="7.6199999"
       cy="66.620071"
       inkscape:label="iplay"
       r="3.5" /></g></svg>
