<?xml version="1.0" encoding="UTF-8" standalone="no"?>
<!-- Created with Inkscape (http://www.inkscape.org/) -->

<svg
   width="30.48mm"
   height="128.5mm"
   viewBox="0 0 30.480002 128.50002"
   version="1.1"
   id="svg8"
   inkscape:version="1.2.1 (9c6d41e, 2022-07-14)"
   sodipodi:docname="Sesame.svg"
   xml:space="preserve"
   xmlns:inkscape="http://www.inkscape.org/namespaces/inkscape"
   xmlns:sodipodi="http://sodipodi.sourceforge.net/DTD/sodipodi-0.dtd"
   xmlns:xlink="http://www.w3.org/1999/xlink"
   xmlns="http://www.w3.org/2000/svg"
   xmlns:svg="http://www.w3.org/2000/svg"
   xmlns:rdf="http://www.w3.org/1999/02/22-rdf-syntax-ns#"
   xmlns:cc="http://creativecommons.org/ns#"
   xmlns:dc="http://purl.org/dc/elements/1.1/"><defs
     id="defs2"><rect
       x="11.111678"
       y="28.284271"
       width="85.862966"
       height="48.487323"
       id="rect951" /><rect
       x="27.274119"
       y="437.39605"
       width="66.670068"
       height="39.395949"
       id="rect1515" /><rect
       x="17.172593"
       y="348.50263"
       width="54.548237"
       height="40.406102"
       id="rect1503" /><rect
       x="15.152288"
       y="238.396"
       width="88.893424"
       height="21.213204"
       id="rect1345" /><linearGradient
       inkscape:collect="always"
       id="linearGradient1128"><stop
         style="stop-color:#000000;stop-opacity:1;"
         offset="0"
         id="stop1124" /><stop
         style="stop-color:#000000;stop-opacity:0;"
         offset="1"
         id="stop1126" /></linearGradient><rect
       x="13.131983"
       y="28.284271"
       width="93.944187"
       height="31.314729"
       id="rect262" /><rect
       x="38.385797"
       y="46.467017"
       width="44.446712"
       height="42.426407"
       id="rect252" /><linearGradient
       inkscape:collect="always"
       xlink:href="#linearGradient1128"
       id="linearGradient1130"
       x1="21.486854"
       y1="180.23652"
       x2="26.847229"
       y2="180.23652"
       gradientUnits="userSpaceOnUse" /><rect
       x="11.111678"
       y="28.284271"
       width="85.862968"
       height="48.487324"
       id="rect951-1" /><rect
       x="11.111678"
       y="28.284271"
       width="85.862968"
       height="48.487324"
       id="rect951-1-5" /><rect
       x="11.111678"
       y="28.284271"
       width="85.862968"
       height="48.487324"
       id="rect951-1-2" /><rect
       x="11.111678"
       y="28.284271"
       width="85.862968"
       height="48.487324"
       id="rect951-1-9" /><linearGradient
       id="SVGID_1_"
       gradientUnits="userSpaceOnUse"
       x1="11.33881"
       y1="-0.0090399999"
       x2="11.33881"
       y2="22.666759">
		<stop
   offset="0"
   style="stop-color:#B0ACAE"
   id="stop1910" />
		<stop
   offset="1"
   style="stop-color:#000000"
   id="stop1912" />
	</linearGradient><linearGradient
       id="SVGID_2_"
       gradientUnits="userSpaceOnUse"
       x1="4.5368199"
       y1="-4120.5469"
       x2="22.556919"
       y2="-4120.5469"
       gradientTransform="rotate(90,-2053.495,-2055.713)">
		<stop
   offset="0"
   style="stop-color:#232223"
   id="stop1921" />
		<stop
   offset="1"
   style="stop-color:#1F1E1F"
   id="stop1923" />
	</linearGradient></defs><sodipodi:namedview
     id="base"
     pagecolor="#ffffff"
     bordercolor="#666666"
     borderopacity="1.0"
     inkscape:pageopacity="0.0"
     inkscape:pageshadow="2"
     inkscape:zoom="1.8492413"
     inkscape:cx="-30.012308"
     inkscape:cy="174.39585"
     inkscape:document-units="mm"
     inkscape:current-layer="layer1"
     showgrid="false"
     units="mm"
     inkscape:snap-bbox="true"
     inkscape:snap-page="true"
     inkscape:bbox-nodes="false"
     inkscape:snap-bbox-edge-midpoints="false"
     inkscape:window-width="1440"
     inkscape:window-height="847"
     inkscape:window-x="0"
     inkscape:window-y="25"
     inkscape:window-maximized="0"
     inkscape:snap-bbox-midpoints="true"
     inkscape:snap-nodes="false"
     inkscape:showpageshadow="0"
     inkscape:pagecheckerboard="0"
     inkscape:deskcolor="#d1d1d1" /><metadata
     id="metadata5"><rdf:RDF><cc:Work
         rdf:about=""><dc:format>image/svg+xml</dc:format><dc:type
           rdf:resource="http://purl.org/dc/dcmitype/StillImage" /><dc:title /></cc:Work></rdf:RDF></metadata><g
     inkscape:label="Layer 1"
     inkscape:groupmode="layer"
     id="layer1"
     transform="translate(0,-168.49998)"><rect
       style="display:inline;opacity:1;vector-effect:none;fill:#cccccc;fill-opacity:1;fill-rule:evenodd;stroke:none;stroke-width:0.64935839;stroke-linecap:butt;stroke-linejoin:miter;stroke-miterlimit:4;stroke-dasharray:none;stroke-dashoffset:0;stroke-opacity:1;paint-order:normal"
       id="rect420"
       width="30.48"
       height="128.5"
       x="5.9211732e-17"
       y="168.49997" /><g
       id="g561"
       transform="matrix(0.12598419,0,0,0.1259842,-11.520081,278.72581)"
       style="display:inline"><g
         aria-label="Si"
         transform="scale(0.98337622,1.0169048)"
         id="text1585-7"
         style="font-size:49.3413px;line-height:0;font-family:'Space Mono';-inkscape-font-specification:'Space Mono';text-align:center;text-anchor:middle;display:inline;stroke:#000000;stroke-width:0.513973"
         inkscape:label="Silly Black"><path
           d="m 210.37411,26.059765 q 0,-1.677604 -0.69078,-2.960478 -0.64144,-1.282874 -1.77629,-2.121676 -1.13485,-0.838802 -2.61509,-1.282874 -1.48024,-0.444071 -3.1085,-0.444071 -1.4309,0 -2.71377,0.39473 -1.28287,0.345389 -2.31904,1.036167 -0.98683,0.690778 -1.57892,1.726946 -0.5921,0.986826 -0.5921,2.319041 v 0.296048 q 0,1.430897 0.5921,2.467065 0.59209,0.986826 1.72694,1.726945 1.18419,0.690779 2.91114,1.184192 1.72695,0.444071 4.04599,0.78946 5.42754,0.838802 7.99329,3.207185 2.56575,2.319041 2.56575,6.266345 v 0.592096 q 0,2.220358 -0.78947,4.095328 -0.74012,1.825628 -2.2697,3.157843 -1.48023,1.332215 -3.70059,2.072335 -2.22036,0.740119 -5.1315,0.740119 -3.30587,0 -5.87161,-0.937485 -2.51641,-0.986826 -4.24336,-2.66443 -1.6776,-1.726945 -2.56574,-3.996645 -0.88815,-2.319041 -0.88815,-5.032813 v -1.480239 h 4.14467 v 1.184191 q 0,4.5394 2.46707,6.8091 2.5164,2.2697 6.95712,2.2697 3.84862,0 5.77293,-1.677605 1.97366,-1.726945 1.97366,-4.539399 v -0.296048 q 0,-2.713772 -2.023,-4.144669 -1.97365,-1.430898 -6.46371,-2.072335 -2.61509,-0.345389 -4.73676,-1.036167 -2.07234,-0.74012 -3.55258,-1.87497 -1.48024,-1.184191 -2.2697,-2.812454 -0.78946,-1.628263 -0.78946,-3.848621 v -0.592096 q 0,-2.022993 0.8388,-3.700598 0.83881,-1.677604 2.31905,-2.911136 1.52958,-1.233533 3.60191,-1.87497 2.12168,-0.690778 4.63808,-0.690778 2.91114,0 5.18084,0.838802 2.31904,0.838802 3.89796,2.2697 1.57892,1.381556 2.36839,3.305867 0.8388,1.87497 0.8388,3.947304 v 2.072335 h -4.14467 z"
           id="path10376" /><path
           d="m 229.22246,18.855935 q 0,-1.430898 0.98683,-2.417724 1.03616,-1.036167 2.46706,-1.036167 1.4309,0 2.41773,1.036167 1.03616,0.986826 1.03616,2.417724 0,1.430898 -1.03616,2.467065 -0.98683,0.986826 -2.41773,0.986826 -1.4309,0 -2.46706,-0.986826 -0.98683,-1.036167 -0.98683,-2.467065 z M 222.216,47.079159 h 8.58538 V 29.711021 h -7.69724 V 26.158448 H 234.65 v 20.920711 h 7.99329 v 3.552574 H 222.216 Z"
           id="path10378" /></g><g
         aria-label="So"
         transform="scale(0.96475638,1.0365311)"
         id="text1593-7"
         style="font-size:48.4198px;line-height:0;font-family:'Space Mono';-inkscape-font-specification:'Space Mono';text-align:center;text-anchor:middle;display:inline;stroke:#000000;stroke-width:0.504373"
         inkscape:label="Sounds Black"><path
           d="m 213.63113,63.853225 q 0,-1.646273 -0.67788,-2.905188 -0.62945,-1.258914 -1.74311,-2.082051 -1.11366,-0.823137 -2.56625,-1.258915 -1.45259,-0.435778 -3.05045,-0.435778 -1.40417,0 -2.66309,0.387358 -1.25891,0.338939 -2.27573,1.016816 -0.96839,0.677877 -1.54943,1.694693 -0.58104,0.968396 -0.58104,2.275731 v 0.290519 q 0,1.404174 0.58104,2.42099 0.58104,0.968396 1.69469,1.694693 1.16208,0.677877 2.85677,1.162075 1.69469,0.435778 3.97042,0.774717 5.32618,0.823136 7.84401,3.147287 2.51783,2.27573 2.51783,6.149314 v 0.581038 q 0,2.178891 -0.77472,4.018843 -0.72629,1.791533 -2.22731,3.098867 -1.45259,1.307335 -3.63148,2.033632 -2.17889,0.726297 -5.03566,0.726297 -3.24413,0 -5.76196,-0.919976 -2.46941,-0.968396 -4.1641,-2.614669 -1.64627,-1.694693 -2.51783,-3.922004 -0.87156,-2.275731 -0.87156,-4.93882 V 74.7961 h 4.06727 v 1.162075 q 0,4.454622 2.42099,6.681933 2.46941,2.227311 6.82719,2.227311 3.77674,0 5.66512,-1.646274 1.93679,-1.694693 1.93679,-4.454621 v -0.290519 q 0,-2.663089 -1.98521,-4.067263 -1.9368,-1.404174 -6.343,-2.033632 -2.56625,-0.338938 -4.6483,-1.016816 -2.03363,-0.726297 -3.48622,-1.839952 -1.4526,-1.162075 -2.22731,-2.759929 -0.77472,-1.597853 -0.77472,-3.776744 v -0.581038 q 0,-1.985211 0.82314,-3.631485 0.82313,-1.646273 2.27573,-2.856768 1.50101,-1.210495 3.53464,-1.839952 2.08205,-0.677877 4.55146,-0.677877 2.85677,0 5.08408,0.823136 2.27573,0.823137 3.82517,2.227311 1.54943,1.355754 2.32415,3.244127 0.82313,1.839952 0.82313,3.873584 v 2.033631 h -4.06726 z"
           id="path4094" /><path
           d="m 247.33129,76.248694 q 0,3.002028 -1.01682,5.326178 -0.96839,2.275731 -2.61467,3.873584 -1.64627,1.549434 -3.87358,2.37257 -2.17889,0.823137 -4.55146,0.823137 -2.42099,0 -4.59988,-0.823137 -2.17889,-0.823136 -3.82517,-2.37257 -1.64627,-1.597853 -2.66309,-3.873584 -0.96839,-2.32415 -0.96839,-5.326178 v -0.581037 q 0,-2.953608 0.96839,-5.229339 1.01682,-2.32415 2.66309,-3.922004 1.69469,-1.597853 3.87359,-2.42099 2.17889,-0.823136 4.55146,-0.823136 2.37257,0 4.55146,0.823136 2.17889,0.823137 3.82516,2.42099 1.6947,1.597854 2.66309,3.922004 1.01682,2.275731 1.01682,5.229339 z m -12.05653,8.812404 q 1.74311,0 3.1957,-0.581038 1.50102,-0.629457 2.61467,-1.791532 1.11366,-1.162076 1.74312,-2.759929 0.62945,-1.646273 0.62945,-3.679905 v -0.581037 q 0,-1.936792 -0.62945,-3.534646 -0.62946,-1.646273 -1.74312,-2.808348 -1.11365,-1.162075 -2.61467,-1.791533 -1.50101,-0.677877 -3.1957,-0.677877 -1.6947,0 -3.19571,0.677877 -1.50101,0.629458 -2.61467,1.791533 -1.11365,1.162075 -1.74311,2.808348 -0.62946,1.597854 -0.62946,3.534646 v 0.581037 q 0,2.033632 0.62946,3.679905 0.62946,1.597853 1.74311,2.759929 1.11366,1.162075 2.56625,1.791532 1.50101,0.581038 3.24413,0.581038 z"
           id="path4096" /></g><rect
         style="display:inline;fill:none;stroke:#000000;stroke-width:1.29975;stroke-dasharray:none;stroke-opacity:1"
         id="rect1651-0"
         width="62.200249"
         height="86.012749"
         x="181.30812"
         y="10.763638"
         inkscape:label="First Border" /></g><g
       id="g1106"
       transform="translate(47.845181,96.843405)"
       style="display:inline"
       inkscape:label="g1106"><g
         aria-label="Se"
         transform="scale(0.96953,1.0314276)"
         id="text1585-0-4-4"
         style="font-size:6.1299px;line-height:0;font-family:'Space Mono';-inkscape-font-specification:'Space Mono';text-align:center;text-anchor:middle;display:inline;stroke:#000000;stroke-width:0.0638536"
         inkscape:label="Silly Black"><path
           d="m -34.423742,77.28253 q 0,-0.208416 -0.08582,-0.367794 -0.07969,-0.159377 -0.220676,-0.263586 -0.140988,-0.104208 -0.324885,-0.159377 -0.183897,-0.05517 -0.386183,-0.05517 -0.177768,0 -0.337145,0.04904 -0.159377,0.04291 -0.288105,0.128728 -0.122598,0.08582 -0.196157,0.214547 -0.07356,0.122598 -0.07356,0.288105 v 0.03678 q 0,0.177767 0.07356,0.306495 0.07356,0.122598 0.214546,0.214547 0.147118,0.08582 0.361665,0.147117 0.214546,0.05517 0.502651,0.09808 0.674289,0.104208 0.993044,0.398443 0.318755,0.288106 0.318755,0.778498 v 0.07356 q 0,0.275846 -0.09808,0.508782 -0.09195,0.226806 -0.281976,0.392314 -0.183897,0.165507 -0.459742,0.257455 -0.275846,0.09195 -0.63751,0.09195 -0.410703,0 -0.729458,-0.116468 -0.312625,-0.122598 -0.527171,-0.331015 -0.208417,-0.214546 -0.318755,-0.496522 -0.110338,-0.288105 -0.110338,-0.625249 v -0.183897 h 0.514911 v 0.147117 q 0,0.563951 0.306495,0.845926 0.312625,0.281976 0.864316,0.281976 0.478132,0 0.717198,-0.208417 0.245196,-0.214546 0.245196,-0.563951 v -0.03678 q 0,-0.337145 -0.251326,-0.514912 -0.245196,-0.177767 -0.803016,-0.257455 -0.324885,-0.04291 -0.588471,-0.128728 -0.257456,-0.09195 -0.441353,-0.232937 -0.183897,-0.147117 -0.281975,-0.349404 -0.09808,-0.202287 -0.09808,-0.478132 v -0.07356 q 0,-0.251326 0.104208,-0.459742 0.104208,-0.208417 0.288105,-0.361664 0.190027,-0.153248 0.447483,-0.232937 0.263586,-0.08582 0.57621,-0.08582 0.361665,0 0.64364,0.104208 0.288105,0.104208 0.484262,0.281975 0.196157,0.171638 0.294235,0.410704 0.104209,0.232936 0.104209,0.490392 v 0.257456 h -0.514912 z"
           id="path786" /><path
           d="m -32.676724,78.962123 q 0.01839,0.453612 0.281976,0.729458 0.263586,0.275845 0.735588,0.275845 0.214546,0 0.373924,-0.04904 0.159377,-0.04904 0.269715,-0.134858 0.116468,-0.08582 0.183897,-0.196156 0.07356,-0.116469 0.116468,-0.245196 l 0.453613,0.122598 q -0.128728,0.422963 -0.478132,0.692678 -0.343275,0.263586 -0.931745,0.263586 -0.324885,0 -0.60073,-0.110338 -0.269716,-0.116468 -0.465873,-0.324885 -0.196156,-0.208417 -0.306495,-0.496522 -0.110338,-0.288105 -0.110338,-0.637509 v -0.147118 q 0,-0.318755 0.110338,-0.5946 0.116469,-0.275846 0.318755,-0.472003 0.202287,-0.202286 0.472003,-0.312625 0.275845,-0.116468 0.5946,-0.116468 0.373924,0 0.643639,0.140988 0.275846,0.134858 0.447483,0.337145 0.177767,0.202286 0.257456,0.441352 0.08582,0.239066 0.08582,0.441353 v 0.392314 z m 1.017564,-1.299539 q -0.202287,0 -0.380054,0.06743 -0.171637,0.0613 -0.306495,0.177767 -0.128728,0.116468 -0.214546,0.275845 -0.07969,0.153248 -0.104209,0.337145 h 1.961568 q -0.01226,-0.196157 -0.09808,-0.355534 -0.07969,-0.159378 -0.214547,-0.269716 -0.128728,-0.110338 -0.300365,-0.171637 -0.165507,-0.0613 -0.343274,-0.0613 z"
           id="path788" /></g><g
         aria-label="Sa"
         transform="scale(0.95541672,1.0466637)"
         id="text1593-4-5-5"
         style="font-size:6.04184px;line-height:0;font-family:'Space Mono';-inkscape-font-specification:'Space Mono';text-align:center;text-anchor:middle;display:inline;stroke:#000000;stroke-width:0.0629359"
         inkscape:label="Sounds Black"><path
           d="m -35.008764,80.934431 q 0,-0.205422 -0.08459,-0.36251 -0.07854,-0.157088 -0.217506,-0.259799 -0.138963,-0.102711 -0.320218,-0.157088 -0.181255,-0.05438 -0.380636,-0.05438 -0.175213,0 -0.332301,0.04833 -0.157088,0.04229 -0.283967,0.126879 -0.120836,0.08459 -0.193339,0.211464 -0.0725,0.120837 -0.0725,0.283967 v 0.03625 q 0,0.175213 0.0725,0.302092 0.0725,0.120837 0.211465,0.211464 0.145004,0.08459 0.356468,0.145004 0.211465,0.05438 0.495431,0.09667 0.664603,0.102711 0.978778,0.392719 0.314176,0.283967 0.314176,0.767314 v 0.0725 q 0,0.271883 -0.09667,0.501473 -0.09063,0.223548 -0.277925,0.386678 -0.181255,0.163129 -0.453138,0.253757 -0.271883,0.09063 -0.628351,0.09063 -0.404804,0 -0.718979,-0.114795 -0.308134,-0.120837 -0.519599,-0.32626 -0.205422,-0.211464 -0.314175,-0.489389 -0.108753,-0.283966 -0.108753,-0.616267 v -0.181256 h 0.507514 v 0.145004 q 0,0.55585 0.302092,0.833774 0.308134,0.277925 0.8519,0.277925 0.471263,0 0.706895,-0.205423 0.241674,-0.211464 0.241674,-0.555849 v -0.03625 q 0,-0.332301 -0.247716,-0.507514 -0.241673,-0.175214 -0.791481,-0.253758 -0.320217,-0.04229 -0.580017,-0.126878 -0.253757,-0.09063 -0.435012,-0.22959 -0.181255,-0.145004 -0.277925,-0.344385 -0.09667,-0.199381 -0.09667,-0.471264 v -0.0725 q 0,-0.247715 0.102711,-0.453138 0.102711,-0.205422 0.283967,-0.356468 0.187297,-0.151046 0.441054,-0.22959 0.259799,-0.08459 0.567933,-0.08459 0.356468,0 0.634393,0.102711 0.283967,0.102712 0.477305,0.277925 0.193339,0.169171 0.290009,0.404803 0.102711,0.22959 0.102711,0.483347 v 0.253758 h -0.507514 z"
           id="path791" /><path
           d="m -31.456165,83.435753 h -0.0725 q -0.145005,0.302092 -0.404804,0.447096 -0.253757,0.145005 -0.537724,0.145005 -0.29605,0 -0.549807,-0.09667 -0.253757,-0.102711 -0.447096,-0.29605 -0.187297,-0.199381 -0.29605,-0.483347 -0.108753,-0.283967 -0.108753,-0.658561 v -0.09667 q 0,-0.368552 0.108753,-0.652519 0.108753,-0.283966 0.29605,-0.477305 0.193339,-0.199381 0.447096,-0.302092 0.253757,-0.102712 0.537724,-0.102712 0.308134,0 0.555849,0.138963 0.253757,0.13292 0.398762,0.416887 h 0.0725 v -0.471264 h 0.471263 V 83.327 q 0,0.181255 0.16313,0.181255 h 0.151046 v 0.435013 h -0.320218 q -0.205422,0 -0.338343,-0.132921 -0.126878,-0.13292 -0.126878,-0.338343 z m -0.966695,0.145004 q 0.211465,0 0.386678,-0.07854 0.181255,-0.07854 0.308134,-0.223548 0.126878,-0.145004 0.199381,-0.344384 0.0725,-0.205423 0.0725,-0.453138 v -0.0725 q 0,-0.241673 -0.0725,-0.441054 -0.0725,-0.205422 -0.205423,-0.350427 -0.126879,-0.145004 -0.308134,-0.223548 -0.175213,-0.08459 -0.380636,-0.08459 -0.211464,0 -0.386678,0.07854 -0.175213,0.07854 -0.308133,0.223549 -0.126879,0.138962 -0.199381,0.344384 -0.0725,0.199381 -0.0725,0.441055 v 0.09667 q 0,0.513557 0.265841,0.803565 0.271883,0.283966 0.700853,0.283966 z"
           id="path793" /></g><rect
         style="display:inline;fill:none;stroke:#000000;stroke-width:0.163748;stroke-dasharray:none;stroke-opacity:1"
         id="rect1651-5-3-5"
         width="7.8362517"
         height="10.836252"
         x="-36.523308"
         y="77.738449"
         inkscape:label="First Border" /></g><path
       style="fill:none;stroke:#000000;stroke-width:0.323976;stroke-dasharray:none;stroke-opacity:1"
       d="m 7.9110904,242.2347 14.3521296,0"
       id="path1129-0"
       sodipodi:nodetypes="cc" /><circle
       style="display:inline;fill:#333333;fill-opacity:1;stroke:none;stroke-width:0.195741;stroke-dasharray:none;stroke-opacity:1"
       id="path2845"
       cx="15.24"
       cy="268.20386"
       r="7.5" /><path
       style="fill:none;stroke:#000000;stroke-width:0.3;stroke-dasharray:none;stroke-opacity:1"
       d="M 8.382141,255.7347 H 23.025323"
       id="path1129-5" /><path
       style="fill:none;stroke:#000000;stroke-width:0.305095;stroke-dasharray:none;stroke-opacity:1"
       d="M 8.0959997,255.44377 V 242.18782"
       id="path1129-2" /><path
       style="fill:none;stroke:#000000;stroke-width:0.3;stroke-dasharray:none;stroke-opacity:1"
       d="m 8.0972318,225.41851 14.1867852,0"
       id="path1129-5-9"
       sodipodi:nodetypes="cc" /><path
       style="fill:none;stroke:#000000;stroke-width:0.307839;stroke-dasharray:none;stroke-opacity:1"
       d="M 8.0959997,225.52375 V 212.02831"
       id="path1129-2-7" /><g
       aria-label="clock
"
       id="text946"
       style="font-size:3.52777px;line-height:0px;font-family:'Space Mono';-inkscape-font-specification:'Space Mono';stroke:#000000;stroke-width:0.1"><path
         d="m 11.807483,191.07673 q -0.02822,0.14464 -0.09878,0.26811 -0.06703,0.12347 -0.172861,0.21519 -0.105833,0.0882 -0.246944,0.13759 -0.141111,0.0494 -0.313972,0.0494 -0.183444,0 -0.349249,-0.06 -0.162277,-0.06 -0.285749,-0.17286 -0.123472,-0.11641 -0.197555,-0.28222 -0.07056,-0.1658 -0.07056,-0.381 v -0.0423 q 0,-0.21167 0.07056,-0.381 0.07408,-0.16933 0.197555,-0.28575 0.123472,-0.11642 0.285749,-0.17992 0.165805,-0.0635 0.349249,-0.0635 0.165806,0 0.306916,0.0494 0.141111,0.0494 0.246944,0.14111 0.109361,0.0882 0.176389,0.21167 0.07056,0.12347 0.09525,0.26811 l -0.275167,0.0635 q -0.01058,-0.0917 -0.05292,-0.17639 -0.03881,-0.0882 -0.109361,-0.15169 -0.06703,-0.067 -0.165805,-0.10584 -0.09878,-0.0388 -0.229305,-0.0388 -0.127,0 -0.239889,0.0494 -0.10936,0.0459 -0.194027,0.13405 -0.08467,0.0847 -0.134055,0.20461 -0.04586,0.11995 -0.04586,0.26106 v 0.0423 q 0,0.14817 0.04586,0.26811 0.04939,0.11642 0.134055,0.19756 0.08467,0.0811 0.197555,0.127 0.112889,0.0423 0.243416,0.0423 0.130528,0 0.225778,-0.0388 0.09878,-0.0423 0.165805,-0.10583 0.07056,-0.067 0.109361,-0.15169 0.04233,-0.0847 0.05644,-0.17639 z"
         id="path3104" /><path
         d="m 12.329591,191.44362 h 0.634999 v -1.96144 h -0.613832 v -0.254 h 0.888998 v 2.21544 h 0.634999 v 0.254 h -1.545164 z"
         id="path3106" /><path
         d="m 16.139581,190.8439 q 0,0.21872 -0.07408,0.38805 -0.07056,0.16581 -0.1905,0.28222 -0.119944,0.11289 -0.282221,0.17286 -0.15875,0.06 -0.331611,0.06 -0.176388,0 -0.335138,-0.06 -0.158749,-0.06 -0.278694,-0.17286 -0.119944,-0.11641 -0.194027,-0.28222 -0.07056,-0.16933 -0.07056,-0.38805 v -0.0423 q 0,-0.21519 0.07056,-0.381 0.07408,-0.16933 0.194027,-0.28575 0.123472,-0.11641 0.282222,-0.17638 0.15875,-0.06 0.33161,-0.06 0.172861,0 0.331611,0.06 0.158749,0.06 0.278694,0.17638 0.123472,0.11642 0.194027,0.28575 0.07408,0.16581 0.07408,0.381 z m -0.878415,0.64205 q 0.127,0 0.232833,-0.0423 0.109361,-0.0459 0.1905,-0.13053 0.08114,-0.0847 0.127,-0.20108 0.04586,-0.11995 0.04586,-0.26811 v -0.0423 q 0,-0.14111 -0.04586,-0.25752 -0.04586,-0.11995 -0.127,-0.20461 -0.08114,-0.0847 -0.1905,-0.13053 -0.109361,-0.0494 -0.232833,-0.0494 -0.123472,0 -0.232832,0.0494 -0.109361,0.0459 -0.1905,0.13053 -0.08114,0.0847 -0.127,0.20461 -0.04586,0.11641 -0.04586,0.25752 v 0.0423 q 0,0.14816 0.04586,0.26811 0.04586,0.11641 0.127,0.20108 0.08114,0.0847 0.186972,0.13053 0.109361,0.0423 0.23636,0.0423 z"
         id="path3108" /><path
         d="m 18.284463,191.07673 q -0.02822,0.14464 -0.09878,0.26811 -0.06703,0.12347 -0.172861,0.21519 -0.105833,0.0882 -0.246944,0.13759 -0.141111,0.0494 -0.313971,0.0494 -0.183444,0 -0.34925,-0.06 -0.162277,-0.06 -0.285749,-0.17286 -0.123472,-0.11641 -0.197555,-0.28222 -0.07056,-0.1658 -0.07056,-0.381 v -0.0423 q 0,-0.21167 0.07056,-0.381 0.07408,-0.16933 0.197555,-0.28575 0.123472,-0.11642 0.285749,-0.17992 0.165806,-0.0635 0.34925,-0.0635 0.165805,0 0.306916,0.0494 0.14111,0.0494 0.246943,0.14111 0.109361,0.0882 0.176389,0.21167 0.07055,0.12347 0.09525,0.26811 l -0.275166,0.0635 q -0.01058,-0.0917 -0.05292,-0.17639 -0.0388,-0.0882 -0.109361,-0.15169 -0.06703,-0.067 -0.165805,-0.10584 -0.09878,-0.0388 -0.229305,-0.0388 -0.127,0 -0.239888,0.0494 -0.109361,0.0459 -0.194028,0.13405 -0.08467,0.0847 -0.134055,0.20461 -0.04586,0.11995 -0.04586,0.26106 v 0.0423 q 0,0.14817 0.04586,0.26811 0.04939,0.11642 0.134055,0.19756 0.08467,0.0811 0.197555,0.127 0.112889,0.0423 0.243417,0.0423 0.130527,0 0.225777,-0.0388 0.09878,-0.0423 0.165805,-0.10583 0.07055,-0.067 0.109361,-0.15169 0.04233,-0.0847 0.05644,-0.17639 z"
         id="path3110" /><path
         d="m 19.258126,190.67456 h 0.05997 l 0.666749,-0.72672 h 0.338666 v 0.0212 l -0.726721,0.8008 v 0.0635 l 0.811387,0.84314 v 0.0212 h -0.338666 l -0.744359,-0.76906 h -0.06703 v 0.76906 H 18.98296 v -2.46944 h 0.275166 z"
         id="path3112" /></g><g
       aria-label="swing"
       id="text2282"
       style="font-size:3.52777px;line-height:0px;font-family:'Space Mono';-inkscape-font-specification:'Space Mono';stroke:#000000;stroke-width:0.1"><path
         d="m 3.3370406,204.01875 q 0,0.127 0.1058331,0.19403 0.1093608,0.067 0.3951102,0.0882 0.306916,0.0247 0.4656657,0.14817 0.1622774,0.11994 0.1622774,0.35278 v 0.0212 q 0,0.127 -0.052917,0.22931 -0.049389,0.0988 -0.1411108,0.16933 -0.088194,0.0706 -0.2187217,0.10583 -0.1269997,0.0388 -0.2786938,0.0388 -0.2046107,0 -0.3527771,-0.0529 -0.1446385,-0.0564 -0.2434161,-0.14464 -0.09525,-0.0917 -0.1446386,-0.20461 -0.049389,-0.11641 -0.056444,-0.23283 l 0.261055,-0.0635 q 0.017639,0.20108 0.1552219,0.32456 0.137583,0.11994 0.3668881,0.11994 0.1940273,0 0.3104437,-0.0741 0.1199442,-0.0776 0.1199442,-0.2152 0,-0.14816 -0.1164164,-0.21166 -0.1164164,-0.0635 -0.3774714,-0.0811 -0.3033882,-0.0212 -0.4656656,-0.14111 Q 3.06893,204.26922 3.06893,204.03992 v -0.0212 q 0,-0.12347 0.052917,-0.21519 0.052916,-0.0952 0.1411108,-0.15875 0.091722,-0.0635 0.2046107,-0.0952 0.1128886,-0.0318 0.2363606,-0.0318 0.1728607,0 0.3033882,0.0494 0.1305275,0.0459 0.2187217,0.12347 0.088194,0.0741 0.1340553,0.17286 0.049389,0.0988 0.0635,0.19755 l -0.2610549,0.0635 q -0.017639,-0.16933 -0.1375831,-0.26458 -0.1164164,-0.0953 -0.306916,-0.0953 -0.074083,0 -0.1446385,0.0176 -0.067028,0.0141 -0.1199442,0.0459 -0.052917,0.0318 -0.084667,0.0811 -0.03175,0.0459 -0.03175,0.10936 z"
         id="path3115" /><path
         d="M 6.6460871,205.31697 H 6.1380882 L 5.926422,203.6942 h -0.042333 l -0.2116662,1.62277 H 5.1644237 L 4.8892576,203.5672 h 0.2822216 l 0.2328328,1.62277 h 0.042333 l 0.2046106,-1.62277 h 0.5079989 l 0.2046107,1.62277 h 0.042333 l 0.2328328,-1.62277 h 0.2822216 z"
         id="path3117" /><path
         d="m 7.8349438,203.04509 q 0,-0.10231 0.070555,-0.17286 0.074083,-0.0741 0.1763885,-0.0741 0.1023053,0 0.1728607,0.0741 0.074083,0.0705 0.074083,0.17286 0,0.1023 -0.074083,0.17639 -0.070555,0.0705 -0.1728607,0.0705 -0.1023053,0 -0.1763885,-0.0705 -0.070555,-0.0741 -0.070555,-0.17639 z m -0.5009433,2.01788 H 7.9478324 V 203.8212 H 7.3975003 v -0.254 h 0.8254982 v 1.49577 h 0.5714988 v 0.254 H 7.3340005 Z"
         id="path3119" /><path
         d="m 9.7258265,205.31697 h -0.275166 v -1.74977 h 0.275166 v 0.29633 h 0.042333 q 0.1622774,-0.34572 0.5644432,-0.34572 0.303388,0 0.483304,0.1905 0.179917,0.18697 0.179917,0.56444 v 1.04422 h -0.275166 v -0.98777 q 0,-0.27517 -0.123472,-0.41275 -0.123472,-0.13759 -0.335138,-0.13759 -0.250472,0 -0.3951107,0.17286 -0.1411108,0.16934 -0.1411108,0.45509 z"
         id="path3121" /><path
         d="m 12.939623,205.04886 h -0.04233 q -0.08467,0.15875 -0.232833,0.23989 -0.144638,0.0776 -0.317499,0.0776 -0.176388,0 -0.33161,-0.06 -0.155222,-0.06 -0.275166,-0.17286 -0.116417,-0.11289 -0.186972,-0.2787 -0.06703,-0.16933 -0.06703,-0.38452 v -0.0565 q 0,-0.21166 0.07056,-0.37747 0.07056,-0.16933 0.186971,-0.28222 0.116417,-0.11642 0.271639,-0.17639 0.155222,-0.06 0.324555,-0.06 0.190499,0 0.33161,0.0847 0.144639,0.0811 0.225777,0.23989 h 0.04233 v -0.27516 h 0.275167 v 2.18016 q 0,0.11994 -0.07761,0.19755 -0.07408,0.0776 -0.194028,0.0776 h -1.139469 v -0.25399 h 1.040692 q 0.09525,0 0.09525,-0.10584 z m -0.585609,0.0564 q 0.123472,0 0.229305,-0.0459 0.105833,-0.0459 0.183444,-0.13052 0.08114,-0.0847 0.126999,-0.20109 0.04586,-0.11994 0.04586,-0.26458 v -0.0423 q 0,-0.14111 -0.04586,-0.25753 -0.04586,-0.11994 -0.126999,-0.20461 -0.07761,-0.0847 -0.186972,-0.13053 -0.105833,-0.0494 -0.225777,-0.0494 -0.123472,0 -0.232833,0.0459 -0.105833,0.0459 -0.186972,0.13053 -0.07761,0.0847 -0.123472,0.20108 -0.04233,0.11642 -0.04233,0.25753 v 0.0565 q 0,0.14816 0.04233,0.26458 0.04586,0.11642 0.123472,0.20108 0.08114,0.0811 0.186972,0.127 0.105833,0.0423 0.232833,0.0423 z"
         id="path3123" /></g><g
       aria-label="swap"
       id="text2286"
       style="font-size:2.82222px;line-height:0px;font-family:'Space Mono';-inkscape-font-specification:'Space Mono';stroke:#000000;stroke-width:0.1"><path
         d="m 19.416435,205.35338 q 0,0.1016 0.08467,0.15522 0.08749,0.0536 0.316089,0.0705 0.245533,0.0198 0.372533,0.11854 0.129822,0.096 0.129822,0.28222 v 0.0169 q 0,0.1016 -0.04233,0.18345 -0.03951,0.079 -0.112889,0.13546 -0.07056,0.0564 -0.174978,0.0847 -0.1016,0.031 -0.222955,0.031 -0.163689,0 -0.282222,-0.0423 -0.115711,-0.0452 -0.194733,-0.11571 -0.0762,-0.0734 -0.115711,-0.16369 -0.03951,-0.0931 -0.04516,-0.18627 l 0.208844,-0.0508 q 0.01411,0.16087 0.124178,0.25965 0.110067,0.096 0.293511,0.096 0.155222,0 0.248355,-0.0593 0.09596,-0.0621 0.09596,-0.17216 0,-0.11853 -0.09313,-0.16933 -0.09313,-0.0508 -0.301978,-0.0649 -0.242711,-0.0169 -0.372533,-0.11289 -0.129822,-0.096 -0.129822,-0.2794 v -0.0169 q 0,-0.0988 0.04233,-0.17216 0.04233,-0.0762 0.112889,-0.127 0.07338,-0.0508 0.163689,-0.0762 0.09031,-0.0254 0.189088,-0.0254 0.138289,0 0.242711,0.0395 0.104423,0.0367 0.174978,0.0988 0.07056,0.0593 0.107244,0.13829 0.03951,0.079 0.0508,0.15804 l -0.208844,0.0508 q -0.01411,-0.13546 -0.110066,-0.21166 -0.09313,-0.0762 -0.245534,-0.0762 -0.05927,0 -0.115711,0.0141 -0.05362,0.0113 -0.09596,0.0367 -0.04233,0.0254 -0.06773,0.0649 -0.0254,0.0367 -0.0254,0.0875 z"
         id="path3126" /><path
         d="m 22.063676,206.39195 h -0.4064 l -0.169333,-1.29822 h -0.03387 l -0.169333,1.29822 h -0.4064 l -0.220133,-1.39982 h 0.225778 l 0.186266,1.29822 h 0.03387 l 0.163689,-1.29822 h 0.406399 l 0.163689,1.29822 h 0.03387 l 0.186266,-1.29822 h 0.225778 z"
         id="path3128" /><path
         d="m 23.59614,206.15489 h -0.03387 q -0.06773,0.14111 -0.189089,0.20884 -0.118533,0.0677 -0.251177,0.0677 -0.138289,0 -0.256822,-0.0451 -0.118534,-0.048 -0.208845,-0.13829 -0.08749,-0.0931 -0.138288,-0.22578 -0.0508,-0.13264 -0.0508,-0.30762 v -0.0452 q 0,-0.17215 0.0508,-0.3048 0.0508,-0.13264 0.138288,-0.22295 0.09031,-0.0931 0.208845,-0.14111 0.118533,-0.048 0.251177,-0.048 0.143934,0 0.259645,0.0649 0.118533,0.0621 0.186266,0.19473 h 0.03387 v -0.22013 h 0.220133 v 1.11196 q 0,0.0847 0.0762,0.0847 h 0.07056 v 0.2032 h -0.149577 q -0.09596,0 -0.158045,-0.0621 -0.05927,-0.0621 -0.05927,-0.15804 z m -0.451555,0.0677 q 0.09878,0 0.180622,-0.0367 0.08467,-0.0367 0.143933,-0.10442 0.05927,-0.0677 0.09313,-0.16087 0.03387,-0.0959 0.03387,-0.21166 v -0.0339 q 0,-0.11289 -0.03387,-0.20602 -0.03387,-0.096 -0.09596,-0.16369 -0.05927,-0.0677 -0.143934,-0.10442 -0.08184,-0.0395 -0.177799,-0.0395 -0.09878,0 -0.180623,0.0367 -0.08184,0.0367 -0.143933,0.10443 -0.05927,0.0649 -0.09313,0.16086 -0.03387,0.0931 -0.03387,0.20602 v 0.0452 q 0,0.23989 0.124178,0.37535 0.127,0.13265 0.327378,0.13265 z"
         id="path3130" /><path
         d="m 24.476671,206.9564 h -0.220133 v -1.96427 h 0.220133 v 0.22013 h 0.03387 q 0.07338,-0.127 0.2032,-0.19191 0.129822,-0.0677 0.282222,-0.0677 0.129822,0 0.245533,0.048 0.115711,0.048 0.2032,0.13829 0.09031,0.0903 0.141111,0.22295 0.05362,0.13265 0.05362,0.30198 v 0.0564 q 0,0.17216 -0.0508,0.3048 -0.0508,0.13265 -0.141111,0.22296 -0.08749,0.0903 -0.206022,0.13829 -0.118533,0.0451 -0.251178,0.0451 -0.06773,0 -0.138289,-0.0169 -0.07055,-0.0141 -0.135466,-0.0452 -0.06209,-0.0339 -0.115711,-0.079 -0.05362,-0.048 -0.09031,-0.11289 h -0.03387 z m 0.468489,-0.73378 q 0.1016,0 0.186266,-0.0339 0.08467,-0.0367 0.146756,-0.1016 0.06491,-0.0649 0.09878,-0.15804 0.03669,-0.0931 0.03669,-0.20885 v -0.0564 q 0,-0.11289 -0.03669,-0.2032 -0.03387,-0.0931 -0.09878,-0.15804 -0.06209,-0.0677 -0.149578,-0.10443 -0.08467,-0.0367 -0.183444,-0.0367 -0.09878,0 -0.183445,0.0395 -0.08467,0.0367 -0.149577,0.10442 -0.06209,0.0677 -0.09878,0.16369 -0.03669,0.0931 -0.03669,0.20602 v 0.0339 q 0,0.11571 0.03669,0.21166 0.03669,0.0931 0.09878,0.16087 0.06491,0.0677 0.149577,0.10442 0.08467,0.0367 0.183445,0.0367 z"
         id="path3132" /></g><g
       aria-label="mod"
       id="text2290"
       style="font-size:2.82223px;line-height:0px;font-family:'Space Mono';-inkscape-font-specification:'Space Mono';stroke:#000000;stroke-width:0.1"><path
         d="m 21.406111,219.60828 h -0.220134 v -1.00472 q 0,-0.0988 -0.04516,-0.16086 -0.04516,-0.0649 -0.143934,-0.0649 -0.09313,0 -0.1524,0.0706 -0.05645,0.0677 -0.05645,0.21167 v 0.94827 h -0.220134 v -1.01601 q 0,-0.0931 -0.0508,-0.1524 -0.0508,-0.0621 -0.135467,-0.0621 -0.1016,0 -0.158045,0.0734 -0.05362,0.0734 -0.05362,0.19191 v 0.96521 H 19.94984 v -1.39983 h 0.220134 v 0.1524 h 0.03387 q 0.03669,-0.0988 0.107245,-0.14393 0.07055,-0.048 0.166511,-0.048 0.1016,0 0.166512,0.0536 0.06773,0.0536 0.09313,0.13829 h 0.03387 q 0.09596,-0.19191 0.304801,-0.19191 0.158045,0 0.242712,0.1016 0.08749,0.0988 0.08749,0.25964 z"
         id="path3135" /><path
         d="m 23.107914,218.9253 q 0,0.17497 -0.05927,0.31044 -0.05644,0.13265 -0.1524,0.22578 -0.09596,0.0903 -0.225778,0.13829 -0.127001,0.048 -0.26529,0.048 -0.141112,0 -0.268112,-0.048 -0.127,-0.048 -0.222956,-0.13829 -0.09596,-0.0931 -0.155223,-0.22578 -0.05644,-0.13547 -0.05644,-0.31044 v -0.0339 q 0,-0.17216 0.05644,-0.3048 0.05927,-0.13547 0.155223,-0.2286 0.09878,-0.0931 0.225778,-0.14111 0.127001,-0.048 0.26529,-0.048 0.138289,0 0.26529,0.048 0.127,0.048 0.222956,0.14111 0.09878,0.0931 0.155222,0.2286 0.05927,0.13264 0.05927,0.3048 z m -0.702735,0.51364 q 0.1016,0 0.186267,-0.0339 0.08749,-0.0367 0.152401,-0.10443 0.06491,-0.0677 0.1016,-0.16086 0.03669,-0.096 0.03669,-0.21449 v -0.0339 q 0,-0.11289 -0.03669,-0.20602 -0.03669,-0.096 -0.1016,-0.16369 -0.06491,-0.0677 -0.152401,-0.10442 -0.08749,-0.0395 -0.186267,-0.0395 -0.09878,0 -0.186267,0.0395 -0.08749,0.0367 -0.152401,0.10442 -0.06491,0.0677 -0.1016,0.16369 -0.03669,0.0931 -0.03669,0.20602 v 0.0339 q 0,0.11853 0.03669,0.21449 0.03669,0.0931 0.1016,0.16086 0.06491,0.0677 0.149578,0.10443 0.08749,0.0339 0.18909,0.0339 z"
         id="path3137" /><path
         d="m 24.59805,219.39379 h -0.03387 q -0.03387,0.0649 -0.08749,0.11289 -0.0508,0.048 -0.112889,0.079 -0.05927,0.031 -0.127,0.0452 -0.06773,0.0169 -0.129823,0.0169 -0.141111,0 -0.262467,-0.048 -0.121356,-0.048 -0.21449,-0.13829 -0.09031,-0.0903 -0.143933,-0.22296 -0.0508,-0.13546 -0.0508,-0.30762 v -0.0452 q 0,-0.16934 0.05362,-0.30198 0.05362,-0.13547 0.143934,-0.22578 0.09031,-0.0931 0.211667,-0.14111 0.121356,-0.048 0.256823,-0.048 0.143934,0 0.268112,0.0649 0.127,0.0621 0.194734,0.19473 h 0.03387 v -0.79586 h 0.220134 v 1.97556 H 24.59805 Z m -0.46849,0.0452 q 0.09878,0 0.183445,-0.0367 0.08467,-0.0367 0.146756,-0.10442 0.06491,-0.0677 0.1016,-0.16087 0.03669,-0.0959 0.03669,-0.21166 v -0.0339 q 0,-0.11289 -0.03669,-0.20602 -0.03669,-0.096 -0.1016,-0.16369 -0.06209,-0.0677 -0.149578,-0.10442 -0.08467,-0.0395 -0.180623,-0.0395 -0.09878,0 -0.186267,0.0367 -0.08467,0.0367 -0.149578,0.10443 -0.06209,0.0677 -0.09878,0.16086 -0.03387,0.0931 -0.03387,0.20603 v 0.0452 q 0,0.11853 0.03387,0.21167 0.03669,0.0931 0.09878,0.16087 0.06491,0.0649 0.149578,0.1016 0.08467,0.0339 0.186267,0.0339 z"
         id="path3139" /></g><g
       aria-label="rept"
       id="text2294"
       style="font-size:3.52778px;line-height:0px;font-family:'Space Mono';-inkscape-font-specification:'Space Mono';stroke:#000000;stroke-width:0.1"><path
         d="m 4.1078468,233.42529 h 0.6350004 v 0.23283 h 0.042333 q 0.067028,-0.14464 0.1905001,-0.21167 0.1234723,-0.0705 0.2822224,-0.0705 0.2645835,0 0.4268614,0.17286 0.1622779,0.17286 0.1728612,0.50447 l -0.2892779,0.0423 q 0,-0.24341 -0.1164168,-0.34925 -0.1164167,-0.10936 -0.2857502,-0.10936 -0.1093611,0 -0.1905001,0.0423 -0.077611,0.0423 -0.1305279,0.11641 -0.052917,0.0741 -0.077611,0.17286 -0.024694,0.0988 -0.024694,0.21167 v 0.74083 h 0.4445003 v 0.254 h -1.121834 v -0.254 h 0.4021669 v -1.24177 H 4.1078468 Z"
         id="path3142" /><path
         d="m 6.5667078,234.38484 q 0.010583,0.26106 0.1622779,0.41981 0.1516945,0.15875 0.4233336,0.15875 0.1234723,0 0.2151946,-0.0282 0.091722,-0.0282 0.1552223,-0.0776 0.067028,-0.0494 0.1058334,-0.11289 0.042333,-0.067 0.067028,-0.14111 l 0.2610557,0.0706 q -0.074083,0.24342 -0.2751668,0.39864 -0.1975557,0.15169 -0.5362226,0.15169 -0.1869723,0 -0.3457224,-0.0635 -0.1552223,-0.067 -0.2681113,-0.18697 -0.112889,-0.11994 -0.176389,-0.28575 -0.0635,-0.16581 -0.0635,-0.36689 v -0.0847 q 0,-0.18344 0.0635,-0.34219 0.067028,-0.15875 0.1834446,-0.27164 0.1164167,-0.11642 0.271639,-0.17992 0.1587501,-0.067 0.3421947,-0.067 0.2151946,0 0.3704169,0.0811 0.1587501,0.0776 0.2575279,0.19402 0.1023057,0.11642 0.1481668,0.254 0.049389,0.13759 0.049389,0.254 v 0.22578 z m 0.5856115,-0.74789 q -0.1164167,0 -0.2187224,0.0388 -0.098778,0.0353 -0.176389,0.1023 -0.074083,0.067 -0.1234723,0.15875 -0.045861,0.0882 -0.059972,0.19403 H 7.702653 q -0.00706,-0.11289 -0.056444,-0.20461 -0.045861,-0.0917 -0.1234723,-0.15522 -0.074083,-0.0635 -0.1728612,-0.0988 -0.09525,-0.0353 -0.1975557,-0.0353 z"
         id="path3144" /><path
         d="M 8.7362908,235.88062 H 8.461124 v -2.45533 h 0.2751668 v 0.27516 h 0.042333 q 0.091722,-0.15875 0.2540002,-0.23989 0.1622778,-0.0847 0.352778,-0.0847 0.1622778,0 0.3069168,0.06 0.144639,0.06 0.2540002,0.17286 0.1128886,0.11289 0.1763886,0.27869 0.06703,0.16581 0.06703,0.37748 v 0.0705 q 0,0.2152 -0.0635,0.381 -0.0635,0.16581 -0.1763888,0.2787 -0.1093612,0.11289 -0.257528,0.17286 -0.1481667,0.0564 -0.3139724,0.0564 -0.084667,0 -0.1728612,-0.0212 -0.088195,-0.0176 -0.1693335,-0.0565 -0.077611,-0.0423 -0.144639,-0.0988 -0.067028,-0.06 -0.1128889,-0.14111 h -0.042333 z m 0.5856115,-0.91722 q 0.1270001,0 0.2328335,-0.0423 0.1058334,-0.0459 0.1834446,-0.127 0.081139,-0.0811 0.1234723,-0.19755 0.045861,-0.11642 0.045861,-0.26106 v -0.0705 q 0,-0.14111 -0.045861,-0.254 -0.042333,-0.11642 -0.1234723,-0.19756 -0.077611,-0.0847 -0.1869724,-0.13053 -0.1058334,-0.0459 -0.2293057,-0.0459 -0.1234723,0 -0.2293057,0.0494 -0.1058334,0.0459 -0.1869723,0.13053 -0.077611,0.0847 -0.1234723,0.20461 -0.045861,0.11642 -0.045861,0.25753 v 0.0423 q 0,0.14464 0.045861,0.26458 0.045861,0.11642 0.1234723,0.20109 0.081139,0.0847 0.1869723,0.13053 0.1058334,0.0459 0.2293057,0.0459 z"
         id="path3146" /><path
         d="m 10.623652,233.42529 h 0.550333 v -0.71967 h 0.275167 v 0.71967 h 0.677334 v 0.254 h -0.677334 v 1.13594 q 0,0.10583 0.09525,0.10583 h 0.497417 v 0.254 h -0.596195 q -0.119944,0 -0.197555,-0.0776 -0.07408,-0.0776 -0.07408,-0.19755 v -1.22061 h -0.550333 z"
         id="path3148" /></g><g
       aria-label="trig"
       id="text2298"
       style="font-size:2.82222px;line-height:0px;font-family:'Space Mono';-inkscape-font-specification:'Space Mono';stroke:#000000;stroke-width:0.1"><path
         d="m 19.127157,234.99738 h 0.440266 v -0.57573 h 0.220134 v 0.57573 h 0.541866 v 0.2032 h -0.541866 v 0.90876 q 0,0.0847 0.0762,0.0847 h 0.397933 v 0.2032 h -0.476956 q -0.09596,0 -0.158044,-0.0621 -0.05927,-0.0621 -0.05927,-0.15804 v -0.97649 h -0.440266 z"
         id="path3151" /><path
         d="m 20.82331,234.99738 h 0.508 v 0.18627 h 0.03387 q 0.05362,-0.11571 0.1524,-0.16934 0.09878,-0.0564 0.225778,-0.0564 0.211666,0 0.341488,0.13829 0.129822,0.13829 0.138289,0.40358 l -0.231422,0.0339 q 0,-0.19473 -0.09313,-0.2794 -0.09313,-0.0875 -0.2286,-0.0875 -0.08749,0 -0.1524,0.0339 -0.06209,0.0339 -0.104422,0.0931 -0.04233,0.0593 -0.06209,0.13829 -0.01975,0.079 -0.01975,0.16934 v 0.59266 h 0.355599 v 0.2032 h -0.897466 v -0.2032 h 0.321733 v -0.99342 H 20.82331 Z"
         id="path3153" /><path
         d="m 23.064151,234.57969 q 0,-0.0818 0.05645,-0.13829 0.05927,-0.0593 0.141111,-0.0593 0.08184,0 0.138288,0.0593 0.05927,0.0565 0.05927,0.13829 0,0.0819 -0.05927,0.14111 -0.05644,0.0565 -0.138288,0.0565 -0.08185,0 -0.141111,-0.0565 -0.05645,-0.0593 -0.05645,-0.14111 z m -0.400755,1.61431 h 0.491066 v -0.99342 h -0.440266 v -0.2032 h 0.660399 v 1.19662 h 0.4572 v 0.2032 h -1.168399 z"
         id="path3155" /><path
         d="m 25.420704,236.18271 h -0.03387 q -0.06773,0.127 -0.186266,0.19191 -0.115711,0.0621 -0.254,0.0621 -0.141111,0 -0.265289,-0.048 -0.124178,-0.048 -0.220133,-0.13828 -0.09313,-0.0903 -0.149578,-0.22296 -0.05362,-0.13547 -0.05362,-0.30762 v -0.0452 q 0,-0.16933 0.05645,-0.30197 0.05644,-0.13547 0.149577,-0.22578 0.09313,-0.0931 0.217311,-0.14111 0.124178,-0.048 0.259644,-0.048 0.1524,0 0.265289,0.0677 0.115711,0.0649 0.180622,0.19191 h 0.03387 v -0.22013 h 0.220133 v 1.74413 q 0,0.096 -0.06209,0.15805 -0.05927,0.0621 -0.155222,0.0621 h -0.911577 v -0.2032 h 0.832555 q 0.0762,0 0.0762,-0.0847 z m -0.468489,0.0452 q 0.09878,0 0.183445,-0.0367 0.08467,-0.0367 0.146755,-0.10442 0.06491,-0.0677 0.1016,-0.16087 0.03669,-0.096 0.03669,-0.21167 v -0.0339 q 0,-0.11289 -0.03669,-0.20602 -0.03669,-0.096 -0.1016,-0.16369 -0.06209,-0.0677 -0.149578,-0.10443 -0.08467,-0.0395 -0.180622,-0.0395 -0.09878,0 -0.186266,0.0367 -0.08467,0.0367 -0.149578,0.10442 -0.06209,0.0677 -0.09878,0.16087 -0.03387,0.0931 -0.03387,0.20602 v 0.0452 q 0,0.11853 0.03387,0.21167 0.03669,0.0931 0.09878,0.16086 0.06491,0.0649 0.149578,0.1016 0.08467,0.0339 0.186266,0.0339 z"
         id="path3157" /></g><g
       aria-label="mod"
       id="text2302"
       style="font-size:2.82223px;line-height:0px;font-family:'Space Mono';-inkscape-font-specification:'Space Mono';stroke:#000000;stroke-width:0.1"><path
         d="m 21.406111,250.44064 h -0.220134 v -1.00471 q 0,-0.0988 -0.04516,-0.16087 -0.04516,-0.0649 -0.143934,-0.0649 -0.09313,0 -0.1524,0.0706 -0.05645,0.0677 -0.05645,0.21166 v 0.94827 h -0.220134 v -1.016 q 0,-0.0931 -0.0508,-0.1524 -0.0508,-0.0621 -0.135467,-0.0621 -0.1016,0 -0.158045,0.0734 -0.05362,0.0734 -0.05362,0.19191 v 0.9652 H 19.94984 v -1.39982 h 0.220134 v 0.1524 h 0.03387 q 0.03669,-0.0988 0.107245,-0.14394 0.07055,-0.048 0.166511,-0.048 0.1016,0 0.166512,0.0536 0.06773,0.0536 0.09313,0.13829 h 0.03387 q 0.09596,-0.19191 0.304801,-0.19191 0.158045,0 0.242712,0.1016 0.08749,0.0988 0.08749,0.25964 z"
         id="path3160" /><path
         d="m 23.107914,249.75766 q 0,0.17498 -0.05927,0.31045 -0.05644,0.13264 -0.1524,0.22578 -0.09596,0.0903 -0.225778,0.13829 -0.127001,0.048 -0.26529,0.048 -0.141112,0 -0.268112,-0.048 -0.127,-0.048 -0.222956,-0.13829 -0.09596,-0.0931 -0.155223,-0.22578 -0.05644,-0.13547 -0.05644,-0.31045 v -0.0339 q 0,-0.17216 0.05644,-0.3048 0.05927,-0.13547 0.155223,-0.2286 0.09878,-0.0931 0.225778,-0.14112 0.127001,-0.048 0.26529,-0.048 0.138289,0 0.26529,0.048 0.127,0.048 0.222956,0.14112 0.09878,0.0931 0.155222,0.2286 0.05927,0.13264 0.05927,0.3048 z m -0.702735,0.51365 q 0.1016,0 0.186267,-0.0339 0.08749,-0.0367 0.152401,-0.10442 0.06491,-0.0677 0.1016,-0.16087 0.03669,-0.0959 0.03669,-0.21449 v -0.0339 q 0,-0.11289 -0.03669,-0.20603 -0.03669,-0.096 -0.1016,-0.16369 -0.06491,-0.0677 -0.152401,-0.10442 -0.08749,-0.0395 -0.186267,-0.0395 -0.09878,0 -0.186267,0.0395 -0.08749,0.0367 -0.152401,0.10442 -0.06491,0.0677 -0.1016,0.16369 -0.03669,0.0931 -0.03669,0.20603 v 0.0339 q 0,0.11854 0.03669,0.21449 0.03669,0.0931 0.1016,0.16087 0.06491,0.0677 0.149578,0.10442 0.08749,0.0339 0.18909,0.0339 z"
         id="path3162" /><path
         d="m 24.59805,250.22615 h -0.03387 q -0.03387,0.0649 -0.08749,0.11289 -0.0508,0.048 -0.112889,0.079 -0.05927,0.031 -0.127,0.0452 -0.06773,0.0169 -0.129823,0.0169 -0.141111,0 -0.262467,-0.048 -0.121356,-0.048 -0.21449,-0.13829 -0.09031,-0.0903 -0.143933,-0.22296 -0.0508,-0.13547 -0.0508,-0.30762 v -0.0452 q 0,-0.16933 0.05362,-0.30198 0.05362,-0.13546 0.143934,-0.22577 0.09031,-0.0931 0.211667,-0.14112 0.121356,-0.048 0.256823,-0.048 0.143934,0 0.268112,0.0649 0.127,0.0621 0.194734,0.19473 h 0.03387 v -0.79587 h 0.220134 v 1.97556 H 24.59805 Z m -0.46849,0.0452 q 0.09878,0 0.183445,-0.0367 0.08467,-0.0367 0.146756,-0.10442 0.06491,-0.0677 0.1016,-0.16087 0.03669,-0.096 0.03669,-0.21167 v -0.0339 q 0,-0.11289 -0.03669,-0.20603 -0.03669,-0.096 -0.1016,-0.16369 -0.06209,-0.0677 -0.149578,-0.10442 -0.08467,-0.0395 -0.180623,-0.0395 -0.09878,0 -0.186267,0.0367 -0.08467,0.0367 -0.149578,0.10442 -0.06209,0.0677 -0.09878,0.16087 -0.03387,0.0931 -0.03387,0.20602 v 0.0452 q 0,0.11853 0.03387,0.21167 0.03669,0.0931 0.09878,0.16086 0.06491,0.0649 0.149578,0.1016 0.08467,0.0339 0.186267,0.0339 z"
         id="path3164" /></g><g
       aria-label="out"
       id="text2306"
       style="font-size:3.52778px;line-height:0px;font-family:'Space Mono';-inkscape-font-specification:'Space Mono';fill:#cccccc;stroke:#cccccc;stroke-width:0.1"><path
         d="m 14.063487,265.58967 q 0,0.21872 -0.07408,0.38805 -0.07055,0.16581 -0.1905,0.28223 -0.119944,0.11288 -0.282222,0.17286 -0.15875,0.06 -0.331611,0.06 -0.176389,0 -0.33514,-0.06 -0.15875,-0.06 -0.278694,-0.17286 -0.119945,-0.11642 -0.194028,-0.28223 -0.07056,-0.16933 -0.07056,-0.38805 v -0.0423 q 0,-0.21519 0.07056,-0.381 0.07408,-0.16933 0.194028,-0.28575 0.123472,-0.11641 0.282222,-0.17639 0.15875,-0.06 0.331612,-0.06 0.172861,0 0.331611,0.06 0.15875,0.06 0.278695,0.17639 0.123472,0.11642 0.194027,0.28575 0.07408,0.16581 0.07408,0.381 z m -0.878417,0.64205 q 0.127,0 0.232833,-0.0423 0.109361,-0.0459 0.1905,-0.13053 0.08114,-0.0847 0.127,-0.20108 0.04586,-0.11995 0.04586,-0.26811 v -0.0423 q 0,-0.14111 -0.04586,-0.25752 -0.04586,-0.11995 -0.127,-0.20462 -0.08114,-0.0847 -0.1905,-0.13052 -0.109361,-0.0494 -0.232833,-0.0494 -0.123473,0 -0.232834,0.0494 -0.109361,0.0459 -0.1905,0.13052 -0.08114,0.0847 -0.127,0.20462 -0.04586,0.11641 -0.04586,0.25752 v 0.0423 q 0,0.14816 0.04586,0.26811 0.04586,0.11642 0.127,0.20108 0.08114,0.0847 0.186972,0.13053 0.109362,0.0423 0.236362,0.0423 z"
         id="path3167" /><path
         d="m 15.82032,264.69361 h 0.275166 v 1.74978 H 15.82032 v -0.3175 h -0.04233 q -0.08467,0.16933 -0.22225,0.26811 -0.137583,0.0988 -0.34925,0.0988 -0.144639,0 -0.268111,-0.0494 -0.119945,-0.0459 -0.208139,-0.14111 -0.08467,-0.0953 -0.134056,-0.23636 -0.04586,-0.14111 -0.04586,-0.32809 v -1.04422 h 0.275167 v 1.00895 q 0,0.27516 0.112889,0.40216 0.112889,0.127 0.345722,0.127 0.250472,0 0.391584,-0.16933 0.144639,-0.17286 0.144639,-0.45861 z"
         id="path3169" /><path
         d="m 16.670513,264.69361 h 0.550334 v -0.71967 h 0.275166 v 0.71967 h 0.677334 v 0.254 h -0.677334 v 1.13595 q 0,0.10583 0.09525,0.10583 h 0.497417 v 0.254 h -0.596194 q -0.119945,0 -0.197556,-0.0776 -0.07408,-0.0776 -0.07408,-0.19756 v -1.22061 h -0.550334 z"
         id="path3171" /></g></g><g
     inkscape:groupmode="layer"
     id="layer2"
     inkscape:label="components"
     style="display:none"><circle
       style="display:inline;fill:#00ff00;fill-opacity:1;fill-rule:evenodd;stroke:none;stroke-width:0.875;stroke-linecap:butt;stroke-linejoin:miter;stroke-miterlimit:4;stroke-dasharray:none;stroke-dashoffset:0;stroke-opacity:1;paint-order:normal"
       id="path4954-7"
       cx="15.24"
       cy="28.683685"
       inkscape:label="clock"
       r="3.5" /><circle
       cy="43.4189"
       cx="8.0959997"
       id="circle4956-6"
       style="display:inline;fill:#ff0000;fill-opacity:1;fill-rule:evenodd;stroke:none;stroke-width:1.25;stroke-linecap:butt;stroke-linejoin:miter;stroke-miterlimit:4;stroke-dasharray:none;stroke-dashoffset:0;stroke-opacity:1;paint-order:normal"
       inkscape:label="swing"
       r="5" /><circle
       style="display:inline;vector-effect:none;fill:#00ff00;fill-opacity:1;fill-rule:evenodd;stroke:none;stroke-width:0.875;stroke-linecap:butt;stroke-linejoin:miter;stroke-miterlimit:4;stroke-dasharray:none;stroke-dashoffset:0;stroke-opacity:1;paint-order:normal"
       id="path4954-5"
       cx="22.384001"
       cy="56.918526"
       inkscape:label="swingMod"
       r="3.5" /><circle
       cy="73.734726"
       cx="8.0959997"
       id="circle4956"
       style="display:inline;fill:#ff0000;fill-opacity:1;fill-rule:evenodd;stroke:none;stroke-width:1.25;stroke-linecap:butt;stroke-linejoin:miter;stroke-miterlimit:4;stroke-dasharray:none;stroke-dashoffset:0;stroke-opacity:1;paint-order:normal"
       inkscape:label="repeat"
       r="5" /><circle
       style="display:inline;vector-effect:none;fill:#00ff00;fill-opacity:1;fill-rule:evenodd;stroke:none;stroke-width:0.875;stroke-linecap:butt;stroke-linejoin:miter;stroke-miterlimit:4;stroke-dasharray:none;stroke-dashoffset:0;stroke-opacity:1;paint-order:normal"
       id="path4954"
       cx="22.384001"
       cy="87.234726"
       inkscape:label="repeatMod"
       r="3.5" /><circle
       style="display:inline;vector-effect:none;fill:#00ff00;fill-opacity:1;fill-rule:evenodd;stroke:none;stroke-width:0.875;stroke-linecap:butt;stroke-linejoin:miter;stroke-miterlimit:4;stroke-dasharray:none;stroke-dashoffset:0;stroke-opacity:1;paint-order:normal"
       id="path4954-0"
       cx="22.384001"
       cy="73.734726"
       inkscape:label="trigger"
       r="3.5" /><circle
       style="display:inline;vector-effect:none;fill:#0000ff;fill-opacity:1;fill-rule:evenodd;stroke:none;stroke-width:0.625;stroke-linecap:butt;stroke-linejoin:miter;stroke-miterlimit:4;stroke-dasharray:none;stroke-dashoffset:0;stroke-opacity:1;paint-order:normal"
       id="circle4958"
       cx="15.24"
       cy="102.70366"
       inkscape:label="out"
       r="2.5" /><circle
       cy="56.918526"
       cx="8.0959997"
       id="circle4956-6-3"
       style="display:inline;fill:#ff0000;fill-opacity:1;fill-rule:evenodd;stroke:none;stroke-width:0.875;stroke-linecap:butt;stroke-linejoin:miter;stroke-miterlimit:4;stroke-dasharray:none;stroke-dashoffset:0;stroke-opacity:1;paint-order:normal"
       inkscape:label="swingModAmp"
       r="3.5" /><circle
       cy="87.234726"
       cx="8.0959997"
       id="circle4956-6-3-2"
       style="display:inline;fill:#ff0000;fill-opacity:1;fill-rule:evenodd;stroke:none;stroke-width:0.875;stroke-linecap:butt;stroke-linejoin:miter;stroke-miterlimit:4;stroke-dasharray:none;stroke-dashoffset:0;stroke-opacity:1;paint-order:normal"
       inkscape:label="repeatModAmp"
       r="3.5" /><circle
       inkscape:label="swingLight"
       r="2.3413029"
       cy="49.519966"
       cx="15.24"
       id="circle66"
       style="display:inline;vector-effect:none;fill:#ff00ff;fill-opacity:1;fill-rule:evenodd;stroke:none;stroke-width:0.585326;stroke-linecap:butt;stroke-linejoin:miter;stroke-miterlimit:4;stroke-dasharray:none;stroke-dashoffset:0;stroke-opacity:1;paint-order:normal" /><circle
       inkscape:label="repeatLight"
       r="2.3413029"
       cy="80.484726"
       cx="15.24"
       id="circle66-9"
       style="display:inline;vector-effect:none;fill:#ff00ff;fill-opacity:1;fill-rule:evenodd;stroke:none;stroke-width:0.585326;stroke-linecap:butt;stroke-linejoin:miter;stroke-miterlimit:4;stroke-dasharray:none;stroke-dashoffset:0;stroke-opacity:1;paint-order:normal" /><circle
       cy="43.4189"
       cx="22.384001"
       id="circle4956-6-3-6"
       style="display:inline;fill:#ff0000;fill-opacity:1;fill-rule:evenodd;stroke:none;stroke-width:0.875;stroke-linecap:butt;stroke-linejoin:miter;stroke-miterlimit:4;stroke-dasharray:none;stroke-dashoffset:0;stroke-opacity:1;paint-order:normal"
       inkscape:label="swingModAmp"
       r="3.5" /></g></svg>
