<?xml version="1.0" encoding="UTF-8" standalone="no"?>
<!-- Created with Inkscape (http://www.inkscape.org/) -->

<svg
   width="30.48mm"
   height="128.5mm"
   viewBox="0 0 30.480002 128.50002"
   version="1.1"
   id="svg8"
   inkscape:version="1.2.1 (9c6d41e, 2022-07-14)"
   sodipodi:docname="Sesame.svg"
   xml:space="preserve"
   xmlns:inkscape="http://www.inkscape.org/namespaces/inkscape"
   xmlns:sodipodi="http://sodipodi.sourceforge.net/DTD/sodipodi-0.dtd"
   xmlns:xlink="http://www.w3.org/1999/xlink"
   xmlns="http://www.w3.org/2000/svg"
   xmlns:svg="http://www.w3.org/2000/svg"
   xmlns:rdf="http://www.w3.org/1999/02/22-rdf-syntax-ns#"
   xmlns:cc="http://creativecommons.org/ns#"
   xmlns:dc="http://purl.org/dc/elements/1.1/"><defs
     id="defs2"><rect
       x="11.111678"
       y="28.284271"
       width="85.862966"
       height="48.487323"
       id="rect951" /><rect
       x="27.274119"
       y="437.39605"
       width="66.670068"
       height="39.395949"
       id="rect1515" /><rect
       x="17.172593"
       y="348.50263"
       width="54.548237"
       height="40.406102"
       id="rect1503" /><rect
       x="15.152288"
       y="238.396"
       width="88.893424"
       height="21.213204"
       id="rect1345" /><linearGradient
       inkscape:collect="always"
       id="linearGradient1128"><stop
         style="stop-color:#000000;stop-opacity:1;"
         offset="0"
         id="stop1124" /><stop
         style="stop-color:#000000;stop-opacity:0;"
         offset="1"
         id="stop1126" /></linearGradient><rect
       x="13.131983"
       y="28.284271"
       width="93.944187"
       height="31.314729"
       id="rect262" /><rect
       x="38.385797"
       y="46.467017"
       width="44.446712"
       height="42.426407"
       id="rect252" /><linearGradient
       inkscape:collect="always"
       xlink:href="#linearGradient1128"
       id="linearGradient1130"
       x1="21.486854"
       y1="180.23652"
       x2="26.847229"
       y2="180.23652"
       gradientUnits="userSpaceOnUse" /><rect
       x="11.111678"
       y="28.284271"
       width="85.862968"
       height="48.487324"
       id="rect951-1" /><rect
       x="11.111678"
       y="28.284271"
       width="85.862968"
       height="48.487324"
       id="rect951-1-5" /><rect
       x="11.111678"
       y="28.284271"
       width="85.862968"
       height="48.487324"
       id="rect951-1-2" /><rect
       x="11.111678"
       y="28.284271"
       width="85.862968"
       height="48.487324"
       id="rect951-1-9" /><linearGradient
       id="SVGID_1_"
       gradientUnits="userSpaceOnUse"
       x1="11.33881"
       y1="-0.0090399999"
       x2="11.33881"
       y2="22.666759">
		<stop
   offset="0"
   style="stop-color:#B0ACAE"
   id="stop1910" />
		<stop
   offset="1"
   style="stop-color:#000000"
   id="stop1912" />
	</linearGradient><linearGradient
       id="SVGID_2_"
       gradientUnits="userSpaceOnUse"
       x1="4.5368199"
       y1="-4120.5469"
       x2="22.556919"
       y2="-4120.5469"
       gradientTransform="rotate(90,-2053.495,-2055.713)">
		<stop
   offset="0"
   style="stop-color:#232223"
   id="stop1921" />
		<stop
   offset="1"
   style="stop-color:#1F1E1F"
   id="stop1923" />
	</linearGradient></defs><sodipodi:namedview
     id="base"
     pagecolor="#ffffff"
     bordercolor="#666666"
     borderopacity="1.0"
     inkscape:pageopacity="0.0"
     inkscape:pageshadow="2"
     inkscape:zoom="1.5557678"
     inkscape:cx="-164.87036"
     inkscape:cy="207.93591"
     inkscape:document-units="mm"
     inkscape:current-layer="layer2"
     showgrid="false"
     units="mm"
     inkscape:snap-bbox="true"
     inkscape:snap-page="true"
     inkscape:bbox-nodes="false"
     inkscape:snap-bbox-edge-midpoints="false"
     inkscape:window-width="1440"
     inkscape:window-height="847"
     inkscape:window-x="0"
     inkscape:window-y="25"
     inkscape:window-maximized="0"
     inkscape:snap-bbox-midpoints="true"
     inkscape:snap-nodes="false"
     inkscape:showpageshadow="0"
     inkscape:pagecheckerboard="0"
     inkscape:deskcolor="#d1d1d1" /><metadata
     id="metadata5"><rdf:RDF><cc:Work
         rdf:about=""><dc:format>image/svg+xml</dc:format><dc:type
           rdf:resource="http://purl.org/dc/dcmitype/StillImage" /><dc:title /></cc:Work></rdf:RDF></metadata><g
     inkscape:label="Layer 1"
     inkscape:groupmode="layer"
     id="layer1"
     transform="translate(0,-168.49998)"><rect
       style="display:inline;opacity:1;vector-effect:none;fill:#cccccc;fill-opacity:1;fill-rule:evenodd;stroke:none;stroke-width:0.64935839;stroke-linecap:butt;stroke-linejoin:miter;stroke-miterlimit:4;stroke-dasharray:none;stroke-dashoffset:0;stroke-opacity:1;paint-order:normal"
       id="rect420"
       width="30.48"
       height="128.5"
       x="5.9211732e-17"
       y="168.49997" /><rect
       style="display:inline;fill:#e5e5e5;fill-opacity:1;stroke:none;stroke-width:0.301747;stroke-dasharray:none"
       id="rect2066"
       width="26"
       height="38"
       x="2.2399998"
       y="190.75998"
       ry="4.3483944" /><rect
       style="display:inline;fill:#e6e6e6;stroke:none;stroke-width:0.301747;stroke-dasharray:none"
       id="rect2066-7"
       width="26"
       height="38"
       x="2.2399998"
       y="235.49998"
       ry="4.3483944" /><g
       id="g561"
       transform="matrix(0.12598419,0,0,0.1259842,-18.760083,278.72581)"
       style="display:inline"><g
         aria-label="Si"
         transform="scale(0.98337622,1.0169048)"
         id="text1585-7"
         style="font-size:49.3413px;line-height:0;font-family:'Space Mono';-inkscape-font-specification:'Space Mono';text-align:center;text-anchor:middle;display:inline;stroke:#000000;stroke-width:0.513973"
         inkscape:label="Silly Black"><path
           d="m 210.37411,26.059765 q 0,-1.677604 -0.69078,-2.960478 -0.64144,-1.282874 -1.77629,-2.121676 -1.13485,-0.838802 -2.61509,-1.282874 -1.48024,-0.444071 -3.1085,-0.444071 -1.4309,0 -2.71377,0.39473 -1.28287,0.345389 -2.31904,1.036167 -0.98683,0.690778 -1.57892,1.726946 -0.5921,0.986826 -0.5921,2.319041 v 0.296048 q 0,1.430897 0.5921,2.467065 0.59209,0.986826 1.72694,1.726945 1.18419,0.690779 2.91114,1.184192 1.72695,0.444071 4.04599,0.78946 5.42754,0.838802 7.99329,3.207185 2.56575,2.319041 2.56575,6.266345 v 0.592096 q 0,2.220358 -0.78947,4.095328 -0.74012,1.825628 -2.2697,3.157843 -1.48023,1.332215 -3.70059,2.072335 -2.22036,0.740119 -5.1315,0.740119 -3.30587,0 -5.87161,-0.937485 -2.51641,-0.986826 -4.24336,-2.66443 -1.6776,-1.726945 -2.56574,-3.996645 -0.88815,-2.319041 -0.88815,-5.032813 v -1.480239 h 4.14467 v 1.184191 q 0,4.5394 2.46707,6.8091 2.5164,2.2697 6.95712,2.2697 3.84862,0 5.77293,-1.677605 1.97366,-1.726945 1.97366,-4.539399 v -0.296048 q 0,-2.713772 -2.023,-4.144669 -1.97365,-1.430898 -6.46371,-2.072335 -2.61509,-0.345389 -4.73676,-1.036167 -2.07234,-0.74012 -3.55258,-1.87497 -1.48024,-1.184191 -2.2697,-2.812454 -0.78946,-1.628263 -0.78946,-3.848621 v -0.592096 q 0,-2.022993 0.8388,-3.700598 0.83881,-1.677604 2.31905,-2.911136 1.52958,-1.233533 3.60191,-1.87497 2.12168,-0.690778 4.63808,-0.690778 2.91114,0 5.18084,0.838802 2.31904,0.838802 3.89796,2.2697 1.57892,1.381556 2.36839,3.305867 0.8388,1.87497 0.8388,3.947304 v 2.072335 h -4.14467 z"
           id="path10376" /><path
           d="m 229.22246,18.855935 q 0,-1.430898 0.98683,-2.417724 1.03616,-1.036167 2.46706,-1.036167 1.4309,0 2.41773,1.036167 1.03616,0.986826 1.03616,2.417724 0,1.430898 -1.03616,2.467065 -0.98683,0.986826 -2.41773,0.986826 -1.4309,0 -2.46706,-0.986826 -0.98683,-1.036167 -0.98683,-2.467065 z M 222.216,47.079159 h 8.58538 V 29.711021 h -7.69724 V 26.158448 H 234.65 v 20.920711 h 7.99329 v 3.552574 H 222.216 Z"
           id="path10378" /></g><g
         aria-label="So"
         transform="scale(0.96475638,1.0365311)"
         id="text1593-7"
         style="font-size:48.4198px;line-height:0;font-family:'Space Mono';-inkscape-font-specification:'Space Mono';text-align:center;text-anchor:middle;display:inline;stroke:#000000;stroke-width:0.504373"
         inkscape:label="Sounds Black"><path
           d="m 213.63113,63.853225 q 0,-1.646273 -0.67788,-2.905188 -0.62945,-1.258914 -1.74311,-2.082051 -1.11366,-0.823137 -2.56625,-1.258915 -1.45259,-0.435778 -3.05045,-0.435778 -1.40417,0 -2.66309,0.387358 -1.25891,0.338939 -2.27573,1.016816 -0.96839,0.677877 -1.54943,1.694693 -0.58104,0.968396 -0.58104,2.275731 v 0.290519 q 0,1.404174 0.58104,2.42099 0.58104,0.968396 1.69469,1.694693 1.16208,0.677877 2.85677,1.162075 1.69469,0.435778 3.97042,0.774717 5.32618,0.823136 7.84401,3.147287 2.51783,2.27573 2.51783,6.149314 v 0.581038 q 0,2.178891 -0.77472,4.018843 -0.72629,1.791533 -2.22731,3.098867 -1.45259,1.307335 -3.63148,2.033632 -2.17889,0.726297 -5.03566,0.726297 -3.24413,0 -5.76196,-0.919976 -2.46941,-0.968396 -4.1641,-2.614669 -1.64627,-1.694693 -2.51783,-3.922004 -0.87156,-2.275731 -0.87156,-4.93882 V 74.7961 h 4.06727 v 1.162075 q 0,4.454622 2.42099,6.681933 2.46941,2.227311 6.82719,2.227311 3.77674,0 5.66512,-1.646274 1.93679,-1.694693 1.93679,-4.454621 v -0.290519 q 0,-2.663089 -1.98521,-4.067263 -1.9368,-1.404174 -6.343,-2.033632 -2.56625,-0.338938 -4.6483,-1.016816 -2.03363,-0.726297 -3.48622,-1.839952 -1.4526,-1.162075 -2.22731,-2.759929 -0.77472,-1.597853 -0.77472,-3.776744 v -0.581038 q 0,-1.985211 0.82314,-3.631485 0.82313,-1.646273 2.27573,-2.856768 1.50101,-1.210495 3.53464,-1.839952 2.08205,-0.677877 4.55146,-0.677877 2.85677,0 5.08408,0.823136 2.27573,0.823137 3.82517,2.227311 1.54943,1.355754 2.32415,3.244127 0.82313,1.839952 0.82313,3.873584 v 2.033631 h -4.06726 z"
           id="path4094" /><path
           d="m 247.33129,76.248694 q 0,3.002028 -1.01682,5.326178 -0.96839,2.275731 -2.61467,3.873584 -1.64627,1.549434 -3.87358,2.37257 -2.17889,0.823137 -4.55146,0.823137 -2.42099,0 -4.59988,-0.823137 -2.17889,-0.823136 -3.82517,-2.37257 -1.64627,-1.597853 -2.66309,-3.873584 -0.96839,-2.32415 -0.96839,-5.326178 v -0.581037 q 0,-2.953608 0.96839,-5.229339 1.01682,-2.32415 2.66309,-3.922004 1.69469,-1.597853 3.87359,-2.42099 2.17889,-0.823136 4.55146,-0.823136 2.37257,0 4.55146,0.823136 2.17889,0.823137 3.82516,2.42099 1.6947,1.597854 2.66309,3.922004 1.01682,2.275731 1.01682,5.229339 z m -12.05653,8.812404 q 1.74311,0 3.1957,-0.581038 1.50102,-0.629457 2.61467,-1.791532 1.11366,-1.162076 1.74312,-2.759929 0.62945,-1.646273 0.62945,-3.679905 v -0.581037 q 0,-1.936792 -0.62945,-3.534646 -0.62946,-1.646273 -1.74312,-2.808348 -1.11365,-1.162075 -2.61467,-1.791533 -1.50101,-0.677877 -3.1957,-0.677877 -1.6947,0 -3.19571,0.677877 -1.50101,0.629458 -2.61467,1.791533 -1.11365,1.162075 -1.74311,2.808348 -0.62946,1.597854 -0.62946,3.534646 v 0.581037 q 0,2.033632 0.62946,3.679905 0.62946,1.597853 1.74311,2.759929 1.11366,1.162075 2.56625,1.791532 1.50101,0.581038 3.24413,0.581038 z"
           id="path4096" /></g><rect
         style="display:inline;fill:none;stroke:#000000;stroke-width:1.29975;stroke-dasharray:none;stroke-opacity:1"
         id="rect1651-0"
         width="62.200249"
         height="86.012749"
         x="181.30812"
         y="10.763638"
         inkscape:label="First Border" /></g><g
       id="g1106"
       transform="translate(40.605182,96.843405)"
       style="display:inline"
       inkscape:label="g1106"><g
         aria-label="Se"
         transform="scale(0.96953,1.0314276)"
         id="text1585-0-4-4"
         style="font-size:6.1299px;line-height:0;font-family:'Space Mono';-inkscape-font-specification:'Space Mono';text-align:center;text-anchor:middle;display:inline;stroke:#000000;stroke-width:0.0638536"
         inkscape:label="Silly Black"><path
           d="m -34.423742,77.28253 q 0,-0.208416 -0.08582,-0.367794 -0.07969,-0.159377 -0.220676,-0.263586 -0.140988,-0.104208 -0.324885,-0.159377 -0.183897,-0.05517 -0.386183,-0.05517 -0.177768,0 -0.337145,0.04904 -0.159377,0.04291 -0.288105,0.128728 -0.122598,0.08582 -0.196157,0.214547 -0.07356,0.122598 -0.07356,0.288105 v 0.03678 q 0,0.177767 0.07356,0.306495 0.07356,0.122598 0.214546,0.214547 0.147118,0.08582 0.361665,0.147117 0.214546,0.05517 0.502651,0.09808 0.674289,0.104208 0.993044,0.398443 0.318755,0.288106 0.318755,0.778498 v 0.07356 q 0,0.275846 -0.09808,0.508782 -0.09195,0.226806 -0.281976,0.392314 -0.183897,0.165507 -0.459742,0.257455 -0.275846,0.09195 -0.63751,0.09195 -0.410703,0 -0.729458,-0.116468 -0.312625,-0.122598 -0.527171,-0.331015 -0.208417,-0.214546 -0.318755,-0.496522 -0.110338,-0.288105 -0.110338,-0.625249 v -0.183897 h 0.514911 v 0.147117 q 0,0.563951 0.306495,0.845926 0.312625,0.281976 0.864316,0.281976 0.478132,0 0.717198,-0.208417 0.245196,-0.214546 0.245196,-0.563951 v -0.03678 q 0,-0.337145 -0.251326,-0.514912 -0.245196,-0.177767 -0.803016,-0.257455 -0.324885,-0.04291 -0.588471,-0.128728 -0.257456,-0.09195 -0.441353,-0.232937 -0.183897,-0.147117 -0.281975,-0.349404 -0.09808,-0.202287 -0.09808,-0.478132 v -0.07356 q 0,-0.251326 0.104208,-0.459742 0.104208,-0.208417 0.288105,-0.361664 0.190027,-0.153248 0.447483,-0.232937 0.263586,-0.08582 0.57621,-0.08582 0.361665,0 0.64364,0.104208 0.288105,0.104208 0.484262,0.281975 0.196157,0.171638 0.294235,0.410704 0.104209,0.232936 0.104209,0.490392 v 0.257456 h -0.514912 z"
           id="path786" /><path
           d="m -32.676724,78.962123 q 0.01839,0.453612 0.281976,0.729458 0.263586,0.275845 0.735588,0.275845 0.214546,0 0.373924,-0.04904 0.159377,-0.04904 0.269715,-0.134858 0.116468,-0.08582 0.183897,-0.196156 0.07356,-0.116469 0.116468,-0.245196 l 0.453613,0.122598 q -0.128728,0.422963 -0.478132,0.692678 -0.343275,0.263586 -0.931745,0.263586 -0.324885,0 -0.60073,-0.110338 -0.269716,-0.116468 -0.465873,-0.324885 -0.196156,-0.208417 -0.306495,-0.496522 -0.110338,-0.288105 -0.110338,-0.637509 v -0.147118 q 0,-0.318755 0.110338,-0.5946 0.116469,-0.275846 0.318755,-0.472003 0.202287,-0.202286 0.472003,-0.312625 0.275845,-0.116468 0.5946,-0.116468 0.373924,0 0.643639,0.140988 0.275846,0.134858 0.447483,0.337145 0.177767,0.202286 0.257456,0.441352 0.08582,0.239066 0.08582,0.441353 v 0.392314 z m 1.017564,-1.299539 q -0.202287,0 -0.380054,0.06743 -0.171637,0.0613 -0.306495,0.177767 -0.128728,0.116468 -0.214546,0.275845 -0.07969,0.153248 -0.104209,0.337145 h 1.961568 q -0.01226,-0.196157 -0.09808,-0.355534 -0.07969,-0.159378 -0.214547,-0.269716 -0.128728,-0.110338 -0.300365,-0.171637 -0.165507,-0.0613 -0.343274,-0.0613 z"
           id="path788" /></g><g
         aria-label="Sa"
         transform="scale(0.95541672,1.0466637)"
         id="text1593-4-5-5"
         style="font-size:6.04184px;line-height:0;font-family:'Space Mono';-inkscape-font-specification:'Space Mono';text-align:center;text-anchor:middle;display:inline;stroke:#000000;stroke-width:0.0629359"
         inkscape:label="Sounds Black"><path
           d="m -35.008764,80.934431 q 0,-0.205422 -0.08459,-0.36251 -0.07854,-0.157088 -0.217506,-0.259799 -0.138963,-0.102711 -0.320218,-0.157088 -0.181255,-0.05438 -0.380636,-0.05438 -0.175213,0 -0.332301,0.04833 -0.157088,0.04229 -0.283967,0.126879 -0.120836,0.08459 -0.193339,0.211464 -0.0725,0.120837 -0.0725,0.283967 v 0.03625 q 0,0.175213 0.0725,0.302092 0.0725,0.120837 0.211465,0.211464 0.145004,0.08459 0.356468,0.145004 0.211465,0.05438 0.495431,0.09667 0.664603,0.102711 0.978778,0.392719 0.314176,0.283967 0.314176,0.767314 v 0.0725 q 0,0.271883 -0.09667,0.501473 -0.09063,0.223548 -0.277925,0.386678 -0.181255,0.163129 -0.453138,0.253757 -0.271883,0.09063 -0.628351,0.09063 -0.404804,0 -0.718979,-0.114795 -0.308134,-0.120837 -0.519599,-0.32626 -0.205422,-0.211464 -0.314175,-0.489389 -0.108753,-0.283966 -0.108753,-0.616267 v -0.181256 h 0.507514 v 0.145004 q 0,0.55585 0.302092,0.833774 0.308134,0.277925 0.8519,0.277925 0.471263,0 0.706895,-0.205423 0.241674,-0.211464 0.241674,-0.555849 v -0.03625 q 0,-0.332301 -0.247716,-0.507514 -0.241673,-0.175214 -0.791481,-0.253758 -0.320217,-0.04229 -0.580017,-0.126878 -0.253757,-0.09063 -0.435012,-0.22959 -0.181255,-0.145004 -0.277925,-0.344385 -0.09667,-0.199381 -0.09667,-0.471264 v -0.0725 q 0,-0.247715 0.102711,-0.453138 0.102711,-0.205422 0.283967,-0.356468 0.187297,-0.151046 0.441054,-0.22959 0.259799,-0.08459 0.567933,-0.08459 0.356468,0 0.634393,0.102711 0.283967,0.102712 0.477305,0.277925 0.193339,0.169171 0.290009,0.404803 0.102711,0.22959 0.102711,0.483347 v 0.253758 h -0.507514 z"
           id="path791" /><path
           d="m -31.456165,83.435753 h -0.0725 q -0.145005,0.302092 -0.404804,0.447096 -0.253757,0.145005 -0.537724,0.145005 -0.29605,0 -0.549807,-0.09667 -0.253757,-0.102711 -0.447096,-0.29605 -0.187297,-0.199381 -0.29605,-0.483347 -0.108753,-0.283967 -0.108753,-0.658561 v -0.09667 q 0,-0.368552 0.108753,-0.652519 0.108753,-0.283966 0.29605,-0.477305 0.193339,-0.199381 0.447096,-0.302092 0.253757,-0.102712 0.537724,-0.102712 0.308134,0 0.555849,0.138963 0.253757,0.13292 0.398762,0.416887 h 0.0725 v -0.471264 h 0.471263 V 83.327 q 0,0.181255 0.16313,0.181255 h 0.151046 v 0.435013 h -0.320218 q -0.205422,0 -0.338343,-0.132921 -0.126878,-0.13292 -0.126878,-0.338343 z m -0.966695,0.145004 q 0.211465,0 0.386678,-0.07854 0.181255,-0.07854 0.308134,-0.223548 0.126878,-0.145004 0.199381,-0.344384 0.0725,-0.205423 0.0725,-0.453138 v -0.0725 q 0,-0.241673 -0.0725,-0.441054 -0.0725,-0.205422 -0.205423,-0.350427 -0.126879,-0.145004 -0.308134,-0.223548 -0.175213,-0.08459 -0.380636,-0.08459 -0.211464,0 -0.386678,0.07854 -0.175213,0.07854 -0.308133,0.223549 -0.126879,0.138962 -0.199381,0.344384 -0.0725,0.199381 -0.0725,0.441055 v 0.09667 q 0,0.513557 0.265841,0.803565 0.271883,0.283966 0.700853,0.283966 z"
           id="path793" /></g><rect
         style="display:inline;fill:none;stroke:#000000;stroke-width:0.163748;stroke-dasharray:none;stroke-opacity:1"
         id="rect1651-5-3-5"
         width="7.8362517"
         height="10.836252"
         x="-36.523308"
         y="77.738449"
         inkscape:label="First Border" /></g><circle
       style="display:inline;fill:#e6e6e6;fill-opacity:1;stroke:none;stroke-width:0.195741;stroke-dasharray:none;stroke-opacity:1"
       id="path2845-0"
       cx="21.375902"
       cy="179.99998"
       r="7.5" /><circle
       style="display:inline;fill:#333333;fill-opacity:1;stroke:none;stroke-width:0.195741;stroke-dasharray:none;stroke-opacity:1"
       id="path2845"
       cx="21.375902"
       cy="285.49997"
       r="7.5" /><path
       style="fill:none;stroke:#000000;stroke-width:0.4;stroke-dasharray:none;stroke-opacity:1"
       d="m 9.1040001,265.72647 v -12.7087"
       id="path1129-2" /><path
       style="fill:none;stroke:#000000;stroke-width:0.4;stroke-dasharray:none;stroke-opacity:1"
       d="M 9.1040001,221.2643 V 208.30202"
       id="path1129-2-7" /><g
       aria-label="clock "
       id="text946"
       style="font-size:3.52777px;line-height:0px;font-family:'Space Mono';-inkscape-font-specification:'Space Mono';stroke:#000000;stroke-width:0.1"
       transform="translate(6.1359072,-13.9872)"><path
         d="m 11.807483,191.07673 q -0.02822,0.14464 -0.09878,0.26811 -0.06703,0.12347 -0.172861,0.21519 -0.105833,0.0882 -0.246944,0.13759 -0.141111,0.0494 -0.313972,0.0494 -0.183444,0 -0.349249,-0.06 -0.162277,-0.06 -0.285749,-0.17286 -0.123472,-0.11641 -0.197555,-0.28222 -0.07056,-0.1658 -0.07056,-0.381 v -0.0423 q 0,-0.21167 0.07056,-0.381 0.07408,-0.16933 0.197555,-0.28575 0.123472,-0.11642 0.285749,-0.17992 0.165805,-0.0635 0.349249,-0.0635 0.165806,0 0.306916,0.0494 0.141111,0.0494 0.246944,0.14111 0.109361,0.0882 0.176389,0.21167 0.07056,0.12347 0.09525,0.26811 l -0.275167,0.0635 q -0.01058,-0.0917 -0.05292,-0.17639 -0.03881,-0.0882 -0.109361,-0.15169 -0.06703,-0.067 -0.165805,-0.10584 -0.09878,-0.0388 -0.229305,-0.0388 -0.127,0 -0.239889,0.0494 -0.10936,0.0459 -0.194027,0.13405 -0.08467,0.0847 -0.134055,0.20461 -0.04586,0.11995 -0.04586,0.26106 v 0.0423 q 0,0.14817 0.04586,0.26811 0.04939,0.11642 0.134055,0.19756 0.08467,0.0811 0.197555,0.127 0.112889,0.0423 0.243416,0.0423 0.130528,0 0.225778,-0.0388 0.09878,-0.0423 0.165805,-0.10583 0.07056,-0.067 0.109361,-0.15169 0.04233,-0.0847 0.05644,-0.17639 z"
         id="path3104" /><path
         d="m 12.329591,191.44362 h 0.634999 v -1.96144 h -0.613832 v -0.254 h 0.888998 v 2.21544 h 0.634999 v 0.254 h -1.545164 z"
         id="path3106" /><path
         d="m 16.139581,190.8439 q 0,0.21872 -0.07408,0.38805 -0.07056,0.16581 -0.1905,0.28222 -0.119944,0.11289 -0.282221,0.17286 -0.15875,0.06 -0.331611,0.06 -0.176388,0 -0.335138,-0.06 -0.158749,-0.06 -0.278694,-0.17286 -0.119944,-0.11641 -0.194027,-0.28222 -0.07056,-0.16933 -0.07056,-0.38805 v -0.0423 q 0,-0.21519 0.07056,-0.381 0.07408,-0.16933 0.194027,-0.28575 0.123472,-0.11641 0.282222,-0.17638 0.15875,-0.06 0.33161,-0.06 0.172861,0 0.331611,0.06 0.158749,0.06 0.278694,0.17638 0.123472,0.11642 0.194027,0.28575 0.07408,0.16581 0.07408,0.381 z m -0.878415,0.64205 q 0.127,0 0.232833,-0.0423 0.109361,-0.0459 0.1905,-0.13053 0.08114,-0.0847 0.127,-0.20108 0.04586,-0.11995 0.04586,-0.26811 v -0.0423 q 0,-0.14111 -0.04586,-0.25752 -0.04586,-0.11995 -0.127,-0.20461 -0.08114,-0.0847 -0.1905,-0.13053 -0.109361,-0.0494 -0.232833,-0.0494 -0.123472,0 -0.232832,0.0494 -0.109361,0.0459 -0.1905,0.13053 -0.08114,0.0847 -0.127,0.20461 -0.04586,0.11641 -0.04586,0.25752 v 0.0423 q 0,0.14816 0.04586,0.26811 0.04586,0.11641 0.127,0.20108 0.08114,0.0847 0.186972,0.13053 0.109361,0.0423 0.23636,0.0423 z"
         id="path3108" /><path
         d="m 18.284463,191.07673 q -0.02822,0.14464 -0.09878,0.26811 -0.06703,0.12347 -0.172861,0.21519 -0.105833,0.0882 -0.246944,0.13759 -0.141111,0.0494 -0.313971,0.0494 -0.183444,0 -0.34925,-0.06 -0.162277,-0.06 -0.285749,-0.17286 -0.123472,-0.11641 -0.197555,-0.28222 -0.07056,-0.1658 -0.07056,-0.381 v -0.0423 q 0,-0.21167 0.07056,-0.381 0.07408,-0.16933 0.197555,-0.28575 0.123472,-0.11642 0.285749,-0.17992 0.165806,-0.0635 0.34925,-0.0635 0.165805,0 0.306916,0.0494 0.14111,0.0494 0.246943,0.14111 0.109361,0.0882 0.176389,0.21167 0.07055,0.12347 0.09525,0.26811 l -0.275166,0.0635 q -0.01058,-0.0917 -0.05292,-0.17639 -0.0388,-0.0882 -0.109361,-0.15169 -0.06703,-0.067 -0.165805,-0.10584 -0.09878,-0.0388 -0.229305,-0.0388 -0.127,0 -0.239888,0.0494 -0.109361,0.0459 -0.194028,0.13405 -0.08467,0.0847 -0.134055,0.20461 -0.04586,0.11995 -0.04586,0.26106 v 0.0423 q 0,0.14817 0.04586,0.26811 0.04939,0.11642 0.134055,0.19756 0.08467,0.0811 0.197555,0.127 0.112889,0.0423 0.243417,0.0423 0.130527,0 0.225777,-0.0388 0.09878,-0.0423 0.165805,-0.10583 0.07055,-0.067 0.109361,-0.15169 0.04233,-0.0847 0.05644,-0.17639 z"
         id="path3110" /><path
         d="m 19.258126,190.67456 h 0.05997 l 0.666749,-0.72672 h 0.338666 v 0.0212 l -0.726721,0.8008 v 0.0635 l 0.811387,0.84314 v 0.0212 h -0.338666 l -0.744359,-0.76906 h -0.06703 v 0.76906 H 18.98296 v -2.46944 h 0.275166 z"
         id="path3112" /></g><g
       aria-label="out"
       id="text2306"
       style="font-size:3.52778px;line-height:0px;font-family:'Space Mono';-inkscape-font-specification:'Space Mono';fill:#cccccc;stroke:#cccccc;stroke-width:0.1"
       transform="translate(6.1359027,16.76704)"><path
         d="m 14.063487,265.58967 q 0,0.21872 -0.07408,0.38805 -0.07055,0.16581 -0.1905,0.28223 -0.119944,0.11288 -0.282222,0.17286 -0.15875,0.06 -0.331611,0.06 -0.176389,0 -0.33514,-0.06 -0.15875,-0.06 -0.278694,-0.17286 -0.119945,-0.11642 -0.194028,-0.28223 -0.07056,-0.16933 -0.07056,-0.38805 v -0.0423 q 0,-0.21519 0.07056,-0.381 0.07408,-0.16933 0.194028,-0.28575 0.123472,-0.11641 0.282222,-0.17639 0.15875,-0.06 0.331612,-0.06 0.172861,0 0.331611,0.06 0.15875,0.06 0.278695,0.17639 0.123472,0.11642 0.194027,0.28575 0.07408,0.16581 0.07408,0.381 z m -0.878417,0.64205 q 0.127,0 0.232833,-0.0423 0.109361,-0.0459 0.1905,-0.13053 0.08114,-0.0847 0.127,-0.20108 0.04586,-0.11995 0.04586,-0.26811 v -0.0423 q 0,-0.14111 -0.04586,-0.25752 -0.04586,-0.11995 -0.127,-0.20462 -0.08114,-0.0847 -0.1905,-0.13052 -0.109361,-0.0494 -0.232833,-0.0494 -0.123473,0 -0.232834,0.0494 -0.109361,0.0459 -0.1905,0.13052 -0.08114,0.0847 -0.127,0.20462 -0.04586,0.11641 -0.04586,0.25752 v 0.0423 q 0,0.14816 0.04586,0.26811 0.04586,0.11642 0.127,0.20108 0.08114,0.0847 0.186972,0.13053 0.109362,0.0423 0.236362,0.0423 z"
         id="path3167" /><path
         d="m 15.82032,264.69361 h 0.275166 v 1.74978 H 15.82032 v -0.3175 h -0.04233 q -0.08467,0.16933 -0.22225,0.26811 -0.137583,0.0988 -0.34925,0.0988 -0.144639,0 -0.268111,-0.0494 -0.119945,-0.0459 -0.208139,-0.14111 -0.08467,-0.0953 -0.134056,-0.23636 -0.04586,-0.14111 -0.04586,-0.32809 v -1.04422 h 0.275167 v 1.00895 q 0,0.27516 0.112889,0.40216 0.112889,0.127 0.345722,0.127 0.250472,0 0.391584,-0.16933 0.144639,-0.17286 0.144639,-0.45861 z"
         id="path3169" /><path
         d="m 16.670513,264.69361 h 0.550334 v -0.71967 h 0.275166 v 0.71967 h 0.677334 v 0.254 h -0.677334 v 1.13595 q 0,0.10583 0.09525,0.10583 h 0.497417 v 0.254 h -0.596194 q -0.119945,0 -0.197556,-0.0776 -0.07408,-0.0776 -0.07408,-0.19756 v -1.22061 h -0.550334 z"
         id="path3171" /></g><g
       aria-label="swap"
       id="text437"
       style="font-size:3.52777px;line-height:0px;font-family:'Space Mono';-inkscape-font-specification:'Space Mono';stroke:#000000;stroke-width:0.1"
       transform="translate(0,-0.37656)"><path
         d="m 17.666454,201.24393 q 0,0.127 0.105833,0.19402 0.109361,0.067 0.39511,0.0882 0.306916,0.0247 0.465666,0.14816 0.162277,0.11995 0.162277,0.35278 v 0.0212 q 0,0.127 -0.05292,0.2293 -0.04939,0.0988 -0.141111,0.16933 -0.08819,0.0706 -0.218722,0.10584 -0.126999,0.0388 -0.278694,0.0388 -0.20461,0 -0.352777,-0.0529 -0.144638,-0.0565 -0.243416,-0.14464 -0.09525,-0.0917 -0.144638,-0.20461 -0.04939,-0.11642 -0.05645,-0.23284 l 0.261055,-0.0635 q 0.01764,0.20108 0.155222,0.32455 0.137583,0.11994 0.366888,0.11994 0.194028,0 0.310444,-0.0741 0.119944,-0.0776 0.119944,-0.21519 0,-0.14817 -0.116416,-0.21167 -0.116416,-0.0635 -0.377471,-0.0811 -0.303389,-0.0212 -0.465666,-0.14111 -0.162278,-0.11994 -0.162278,-0.34925 v -0.0212 q 0,-0.12348 0.05292,-0.2152 0.05292,-0.0952 0.141111,-0.15875 0.09172,-0.0635 0.20461,-0.0952 0.112889,-0.0318 0.236361,-0.0318 0.172861,0 0.303388,0.0494 0.130528,0.0459 0.218722,0.12347 0.08819,0.0741 0.134055,0.17286 0.04939,0.0988 0.0635,0.19756 l -0.261055,0.0635 q -0.01764,-0.16933 -0.137583,-0.26458 -0.116416,-0.0953 -0.306916,-0.0953 -0.07408,0 -0.144638,0.0176 -0.06703,0.0141 -0.119945,0.0459 -0.05292,0.0318 -0.08467,0.0811 -0.03175,0.0459 -0.03175,0.10937 z"
         id="path388" /><path
         d="m 20.9755,202.54214 h -0.507998 l -0.211667,-1.62277 h -0.04233 l -0.211666,1.62277 H 19.49384 l -0.275166,-1.74977 h 0.282222 l 0.232832,1.62278 h 0.04233 l 0.20461,-1.62278 h 0.507999 l 0.204611,1.62278 h 0.04233 l 0.232833,-1.62278 h 0.282222 z"
         id="path390" /><path
         d="m 22.891078,202.24581 h -0.04233 q -0.08467,0.17639 -0.236361,0.26106 -0.148166,0.0847 -0.313972,0.0847 -0.17286,0 -0.321027,-0.0564 -0.148166,-0.06 -0.261055,-0.17286 -0.10936,-0.11642 -0.17286,-0.28222 -0.0635,-0.16581 -0.0635,-0.38453 v -0.0564 q 0,-0.2152 0.0635,-0.381 0.0635,-0.16581 0.17286,-0.2787 0.112889,-0.11641 0.261055,-0.17639 0.148167,-0.06 0.313972,-0.06 0.179916,0 0.324555,0.0811 0.148166,0.0776 0.232833,0.24342 h 0.04233 v -0.27517 h 0.275166 v 1.38994 q 0,0.10584 0.09525,0.10584 h 0.08819 v 0.25399 h -0.186972 q -0.119944,0 -0.197555,-0.0776 -0.07408,-0.0776 -0.07408,-0.19755 z m -0.564443,0.0847 q 0.123472,0 0.225777,-0.0459 0.105833,-0.0459 0.179916,-0.13053 0.07408,-0.0847 0.116417,-0.20108 0.04233,-0.11995 0.04233,-0.26459 v -0.0423 q 0,-0.14111 -0.04233,-0.25753 -0.04233,-0.11994 -0.119945,-0.20461 -0.07408,-0.0847 -0.179916,-0.13052 -0.102305,-0.0494 -0.222249,-0.0494 -0.123472,0 -0.225778,0.0459 -0.102305,0.0459 -0.179916,0.13053 -0.07408,0.0811 -0.116416,0.20108 -0.04233,0.11641 -0.04233,0.25753 v 0.0564 q 0,0.29986 0.155222,0.46919 0.15875,0.16581 0.409222,0.16581 z"
         id="path392" /><path
         d="m 23.99174,203.2477 h -0.275166 v -2.45533 h 0.275166 v 0.27517 h 0.04233 q 0.09172,-0.15875 0.254,-0.23989 0.162277,-0.0847 0.352777,-0.0847 0.162277,0 0.306916,0.06 0.144638,0.06 0.253999,0.17286 0.112889,0.11289 0.176389,0.2787 0.06703,0.1658 0.06703,0.37747 v 0.0706 q 0,0.21519 -0.0635,0.38099 -0.0635,0.16581 -0.176388,0.2787 -0.109361,0.11289 -0.257527,0.17286 -0.148167,0.0564 -0.313972,0.0564 -0.08467,0 -0.172861,-0.0212 -0.08819,-0.0176 -0.169332,-0.0564 -0.07761,-0.0423 -0.144639,-0.0988 -0.06703,-0.06 -0.112889,-0.14112 h -0.04233 z m 0.58561,-0.91722 q 0.127,0 0.232833,-0.0423 0.105833,-0.0459 0.183444,-0.127 0.08114,-0.0811 0.123472,-0.19756 0.04586,-0.11642 0.04586,-0.26105 v -0.0706 q 0,-0.14111 -0.04586,-0.254 -0.04233,-0.11642 -0.123472,-0.19755 -0.07761,-0.0847 -0.186972,-0.13053 -0.105833,-0.0459 -0.229305,-0.0459 -0.123472,0 -0.229305,0.0494 -0.105833,0.0459 -0.186972,0.13052 -0.07761,0.0847 -0.123472,0.20461 -0.04586,0.11642 -0.04586,0.25753 v 0.0423 q 0,0.14464 0.04586,0.26459 0.04586,0.11641 0.123472,0.20108 0.08114,0.0847 0.186972,0.13053 0.105833,0.0459 0.229305,0.0459 z"
         id="path394" /></g><g
       aria-label="trig"
       id="text491"
       style="font-size:3.52777px;line-height:0px;font-family:'Space Mono';-inkscape-font-specification:'Space Mono';stroke:#000000;stroke-width:0.1"
       transform="translate(0,-1.52462)"><path
         d="m 17.304859,245.86303 h 0.550332 v -0.71966 h 0.275166 v 0.71966 h 0.677332 v 0.254 h -0.677332 v 1.13595 q 0,0.10583 0.09525,0.10583 h 0.497415 v 0.254 h -0.596193 q -0.119944,0 -0.197555,-0.0776 -0.07408,-0.0776 -0.07408,-0.19756 v -1.22061 h -0.550332 z"
         id="path426" /><path
         d="m 19.425047,245.86303 h 0.634998 v 0.23284 h 0.04233 q 0.06703,-0.14464 0.1905,-0.21167 0.123472,-0.0705 0.282222,-0.0705 0.264582,0 0.42686,0.17286 0.162277,0.17286 0.172861,0.50447 l -0.289278,0.0423 q 0,-0.24342 -0.116416,-0.34925 -0.116416,-0.10936 -0.285749,-0.10936 -0.109361,0 -0.1905,0.0423 -0.07761,0.0423 -0.130527,0.11642 -0.05292,0.0741 -0.07761,0.17286 -0.0247,0.0988 -0.0247,0.21167 v 0.74083 h 0.444499 v 0.254 h -1.121831 v -0.254 h 0.402166 v -1.24178 H 19.42504 Z"
         id="path428" /><path
         d="m 22.226094,245.34092 q 0,-0.1023 0.07056,-0.17286 0.07408,-0.0741 0.176388,-0.0741 0.102306,0 0.172861,0.0741 0.07408,0.0706 0.07408,0.17286 0,0.10231 -0.07408,0.17639 -0.07055,0.0706 -0.172861,0.0706 -0.102305,0 -0.176388,-0.0706 -0.07056,-0.0741 -0.07056,-0.17639 z m -0.500943,2.01789 h 0.613832 v -1.24178 h -0.550332 v -0.254 h 0.825498 v 1.49578 h 0.571499 v 0.254 h -1.460497 z"
         id="path430" /><path
         d="m 25.17178,247.3447 h -0.04233 q -0.08467,0.15875 -0.232833,0.23989 -0.144638,0.0776 -0.317499,0.0776 -0.176389,0 -0.331611,-0.06 -0.155221,-0.06 -0.275166,-0.17286 -0.116416,-0.11288 -0.186971,-0.27869 -0.06703,-0.16933 -0.06703,-0.38453 v -0.0564 q 0,-0.21167 0.07055,-0.37747 0.07056,-0.16934 0.186972,-0.28222 0.116417,-0.11642 0.271638,-0.17639 0.155222,-0.06 0.324555,-0.06 0.1905,0 0.331611,0.0847 0.144638,0.0811 0.225777,0.23989 h 0.04233 v -0.27517 h 0.275166 v 2.18017 q 0,0.11994 -0.07761,0.19755 -0.07408,0.0776 -0.194027,0.0776 h -1.13947 v -0.254 h 1.040692 q 0.09525,0 0.09525,-0.10583 z m -0.58561,0.0564 q 0.123472,0 0.229305,-0.0459 0.105834,-0.0459 0.183445,-0.13053 0.08114,-0.0847 0.126999,-0.20108 0.04586,-0.11994 0.04586,-0.26458 v -0.0423 q 0,-0.14111 -0.04586,-0.25752 -0.04586,-0.11995 -0.126999,-0.20461 -0.07761,-0.0847 -0.186972,-0.13053 -0.105833,-0.0494 -0.225778,-0.0494 -0.123472,0 -0.232832,0.0459 -0.105834,0.0459 -0.186972,0.13053 -0.07761,0.0847 -0.123472,0.20108 -0.04233,0.11642 -0.04233,0.25753 v 0.0564 q 0,0.14817 0.04233,0.26459 0.04586,0.11641 0.123472,0.20108 0.08114,0.0811 0.186972,0.127 0.105833,0.0423 0.232832,0.0423 z"
         id="path432" /></g><g
       aria-label="mod"
       id="text495"
       style="font-size:3.52777px;line-height:0px;font-family:'Space Mono';-inkscape-font-specification:'Space Mono';stroke:#000000;stroke-width:0.1"
       transform="translate(0,0.50004)"><path
         d="M 13.189066,227.27942 H 12.9139 v -1.25589 q 0,-0.12347 -0.05644,-0.20108 -0.05645,-0.0811 -0.179917,-0.0811 -0.116416,0 -0.190499,0.0882 -0.07056,0.0847 -0.07056,0.26458 v 1.18533 h -0.275166 v -1.27 q 0,-0.11641 -0.0635,-0.1905 -0.0635,-0.0776 -0.169333,-0.0776 -0.127,0 -0.197556,0.0917 -0.06703,0.0917 -0.06703,0.23989 v 1.2065 h -0.275166 v -1.74977 h 0.275166 v 0.19049 h 0.04233 q 0.04586,-0.12347 0.134055,-0.17991 0.0882,-0.06 0.208139,-0.06 0.126999,0 0.208138,0.067 0.08467,0.067 0.116417,0.17286 h 0.04233 q 0.119944,-0.23988 0.380999,-0.23988 0.197555,0 0.303388,0.127 0.109361,0.12347 0.109361,0.32455 z"
         id="path397" /><path
         d="m 15.31631,226.4257 q 0,0.21872 -0.07408,0.38805 -0.07056,0.16581 -0.190499,0.28222 -0.119944,0.11289 -0.282222,0.17287 -0.158749,0.06 -0.33161,0.06 -0.176389,0 -0.335138,-0.06 -0.15875,-0.06 -0.278694,-0.17287 -0.119944,-0.11641 -0.194027,-0.28222 -0.07056,-0.16933 -0.07056,-0.38805 v -0.0423 q 0,-0.2152 0.07056,-0.381 0.07408,-0.16934 0.194027,-0.28575 0.123472,-0.11642 0.282221,-0.17639 0.15875,-0.06 0.331611,-0.06 0.172861,0 0.33161,0.06 0.15875,0.06 0.278694,0.17639 0.123472,0.11641 0.194027,0.28575 0.07408,0.1658 0.07408,0.381 z m -0.878415,0.64205 q 0.127,0 0.232833,-0.0423 0.109361,-0.0459 0.190499,-0.13053 0.08114,-0.0847 0.127,-0.20108 0.04586,-0.11995 0.04586,-0.26811 v -0.0423 q 0,-0.14112 -0.04586,-0.25753 -0.04586,-0.11995 -0.127,-0.20461 -0.08114,-0.0847 -0.190499,-0.13053 -0.109361,-0.0494 -0.232833,-0.0494 -0.123472,0 -0.232833,0.0494 -0.109361,0.0459 -0.1905,0.13053 -0.08114,0.0847 -0.126999,0.20461 -0.04586,0.11641 -0.04586,0.25753 v 0.0423 q 0,0.14816 0.04586,0.26811 0.04586,0.11642 0.126999,0.20108 0.08114,0.0847 0.186972,0.13053 0.109361,0.0423 0.236361,0.0423 z"
         id="path399" /><path
         d="m 17.17897,227.01131 h -0.04233 q -0.04233,0.0811 -0.109361,0.14111 -0.0635,0.06 -0.14111,0.0988 -0.07408,0.0388 -0.15875,0.0564 -0.08467,0.0212 -0.162278,0.0212 -0.176388,0 -0.328082,-0.06 -0.151694,-0.06 -0.268111,-0.17287 -0.112888,-0.11288 -0.179916,-0.27869 -0.0635,-0.16933 -0.0635,-0.38453 v -0.0564 q 0,-0.21167 0.06703,-0.37747 0.06703,-0.16933 0.179916,-0.28222 0.112889,-0.11642 0.264583,-0.17639 0.151694,-0.06 0.321027,-0.06 0.179916,0 0.335138,0.0811 0.15875,0.0776 0.243416,0.24342 h 0.04233 v -0.99483 h 0.275166 v 2.46944 H 17.17897 Z m -0.585609,0.0564 q 0.123472,0 0.229305,-0.0459 0.105833,-0.0459 0.183444,-0.13053 0.08114,-0.0847 0.126999,-0.20108 0.04586,-0.11994 0.04586,-0.26458 v -0.0423 q 0,-0.14112 -0.04586,-0.25753 -0.04586,-0.11995 -0.126999,-0.20461 -0.07761,-0.0847 -0.186972,-0.13053 -0.105833,-0.0494 -0.225777,-0.0494 -0.123472,0 -0.232833,0.0459 -0.105833,0.0459 -0.186972,0.13053 -0.07761,0.0847 -0.123472,0.20108 -0.04233,0.11642 -0.04233,0.25753 v 0.0564 q 0,0.14817 0.04233,0.26459 0.04586,0.11641 0.123472,0.20108 0.08114,0.0811 0.186972,0.127 0.105833,0.0423 0.232833,0.0423 z"
         id="path401" /></g><g
       aria-label="mod"
       id="text499"
       style="font-size:3.52777px;line-height:0px;font-family:'Space Mono';-inkscape-font-specification:'Space Mono';stroke:#000000;stroke-width:0.1"
       transform="translate(0,0.50006)"><path
         d="m 13.983893,272.01941 h -0.275166 v -1.25589 q 0,-0.12347 -0.05645,-0.20108 -0.05644,-0.0811 -0.179916,-0.0811 -0.116416,0 -0.1905,0.0882 -0.07056,0.0847 -0.07056,0.26458 v 1.18533 h -0.275166 v -1.27 q 0,-0.11641 -0.0635,-0.1905 -0.0635,-0.0776 -0.169333,-0.0776 -0.127,0 -0.197555,0.0917 -0.06703,0.0917 -0.06703,0.23989 v 1.2065 h -0.275166 v -1.74977 h 0.275166 v 0.19049 h 0.04233 q 0.04586,-0.12347 0.134055,-0.17991 0.08819,-0.06 0.208138,-0.06 0.127,0 0.208139,0.067 0.08467,0.067 0.116416,0.17286 h 0.04233 q 0.119944,-0.23988 0.380999,-0.23988 0.197556,0 0.303389,0.127 0.109361,0.12347 0.109361,0.32455 z"
         id="path435" /><path
         d="m 16.111136,271.16569 q 0,0.21872 -0.07408,0.38805 -0.07056,0.16581 -0.1905,0.28223 -0.119944,0.11288 -0.282221,0.17286 -0.15875,0.06 -0.331611,0.06 -0.176388,0 -0.335138,-0.06 -0.158749,-0.06 -0.278694,-0.17286 -0.119944,-0.11642 -0.194027,-0.28223 -0.07055,-0.16933 -0.07055,-0.38805 v -0.0423 q 0,-0.2152 0.07055,-0.381 0.07408,-0.16934 0.194027,-0.28575 0.123472,-0.11642 0.282222,-0.17639 0.15875,-0.06 0.33161,-0.06 0.172861,0 0.331611,0.06 0.158749,0.06 0.278694,0.17639 0.123472,0.11641 0.194027,0.28575 0.07408,0.1658 0.07408,0.381 z m -0.878415,0.64205 q 0.127,0 0.232833,-0.0423 0.109361,-0.0459 0.1905,-0.13053 0.08114,-0.0847 0.127,-0.20108 0.04586,-0.11994 0.04586,-0.26811 v -0.0423 q 0,-0.14112 -0.04586,-0.25753 -0.04586,-0.11995 -0.127,-0.20461 -0.08114,-0.0847 -0.1905,-0.13053 -0.109361,-0.0494 -0.232833,-0.0494 -0.123472,0 -0.232832,0.0494 -0.109361,0.0459 -0.1905,0.13053 -0.08114,0.0847 -0.127,0.20461 -0.04586,0.11641 -0.04586,0.25753 v 0.0423 q 0,0.14817 0.04586,0.26811 0.04586,0.11642 0.127,0.20108 0.08114,0.0847 0.186972,0.13053 0.109361,0.0423 0.23636,0.0423 z"
         id="path437" /><path
         d="m 17.973797,271.7513 h -0.04233 q -0.04233,0.0811 -0.109361,0.14111 -0.0635,0.06 -0.141111,0.0988 -0.07408,0.0388 -0.15875,0.0564 -0.08467,0.0212 -0.162277,0.0212 -0.176389,0 -0.328083,-0.06 -0.151694,-0.06 -0.26811,-0.17286 -0.112889,-0.11289 -0.179916,-0.2787 -0.0635,-0.16933 -0.0635,-0.38453 v -0.0564 q 0,-0.21167 0.06703,-0.37747 0.06703,-0.16933 0.179917,-0.28222 0.112888,-0.11642 0.264582,-0.17639 0.151694,-0.06 0.321027,-0.06 0.179917,0 0.335139,0.0811 0.158749,0.0776 0.243416,0.24341 h 0.04233 v -0.99483 h 0.275166 v 2.46944 H 17.9738 Z m -0.58561,0.0564 q 0.123472,0 0.229305,-0.0459 0.105833,-0.0459 0.183444,-0.13053 0.08114,-0.0847 0.127,-0.20108 0.04586,-0.11994 0.04586,-0.26458 v -0.0423 q 0,-0.14112 -0.04586,-0.25753 -0.04586,-0.11995 -0.127,-0.20461 -0.07761,-0.0847 -0.186972,-0.13053 -0.105833,-0.0494 -0.225777,-0.0494 -0.123472,0 -0.232833,0.0459 -0.105833,0.0459 -0.186972,0.13053 -0.07761,0.0847 -0.123471,0.20108 -0.04233,0.11642 -0.04233,0.25753 v 0.0564 q 0,0.14817 0.04233,0.26459 0.04586,0.11641 0.123471,0.20108 0.08114,0.0811 0.186972,0.127 0.105833,0.0423 0.232833,0.0423 z"
         id="path439" /></g><path
       style="fill:none;stroke:#000000;stroke-width:0.4;stroke-dasharray:none;stroke-opacity:1"
       d="m 21.252635,252.54417 -12.3535993,-1e-5"
       id="path1129-2-7-3" /><path
       style="fill:none;stroke:#000000;stroke-width:0.4;stroke-dasharray:none;stroke-opacity:1"
       d="m 21.756261,265.99999 -13.3657618,-1e-5"
       id="path1129-2-7-3-3" /><path
       style="fill:none;stroke:#000000;stroke-width:0.4;stroke-dasharray:none;stroke-opacity:1"
       d="m 21.277567,221.57425 -10.937006,-1e-5"
       id="path1129-2-7-3-3-3" /><g
       aria-label="swing"
       id="text3601"
       style="font-size:3.52777px;line-height:0px;font-family:'Space Mono';-inkscape-font-specification:'Space Mono';stroke:#000000;stroke-width:0.1"
       transform="translate(-1.1915787)"><path
         d="m 12.603845,194.7097 q 0,0.127 0.105833,0.19403 0.109361,0.067 0.395111,0.0882 0.306916,0.0247 0.465665,0.14817 0.162278,0.11994 0.162278,0.35277 v 0.0212 q 0,0.127 -0.05292,0.22931 -0.04939,0.0988 -0.141111,0.16933 -0.08819,0.0705 -0.218721,0.10583 -0.127,0.0388 -0.278694,0.0388 -0.204611,0 -0.352777,-0.0529 -0.144639,-0.0564 -0.243416,-0.14464 -0.09525,-0.0917 -0.144639,-0.20461 -0.04939,-0.11641 -0.05644,-0.23283 l 0.261055,-0.0635 q 0.01764,0.20108 0.155222,0.32455 0.137583,0.11995 0.366888,0.11995 0.194027,0 0.310443,-0.0741 0.119945,-0.0776 0.119945,-0.2152 0,-0.14816 -0.116417,-0.21166 -0.116416,-0.0635 -0.377471,-0.0811 -0.303388,-0.0212 -0.465666,-0.14111 -0.162277,-0.11995 -0.162277,-0.34925 v -0.0212 q 0,-0.12347 0.05292,-0.21519 0.05292,-0.0952 0.141111,-0.15875 0.09172,-0.0635 0.204611,-0.0952 0.112888,-0.0317 0.23636,-0.0317 0.172861,0 0.303389,0.0494 0.130527,0.0459 0.218721,0.12347 0.08819,0.0741 0.134056,0.17286 0.04939,0.0988 0.0635,0.19755 l -0.261055,0.0635 q -0.01764,-0.16933 -0.137583,-0.26458 -0.116416,-0.0952 -0.306916,-0.0952 -0.07408,0 -0.144638,0.0176 -0.06703,0.0141 -0.119944,0.0459 -0.05292,0.0317 -0.08467,0.0811 -0.03175,0.0459 -0.03175,0.10936 z"
         id="path377" /><path
         d="m 15.912892,196.00792 h -0.507999 l -0.211666,-1.62277 h -0.04233 l -0.211666,1.62277 h -0.507999 l -0.275166,-1.74977 h 0.282222 l 0.232833,1.62277 h 0.04233 l 0.204611,-1.62277 h 0.507999 l 0.20461,1.62277 h 0.04233 l 0.232833,-1.62277 h 0.282222 z"
         id="path379" /><path
         d="m 17.101748,193.73604 q 0,-0.10231 0.07056,-0.17287 0.07408,-0.0741 0.176388,-0.0741 0.102306,0 0.172861,0.0741 0.07408,0.0706 0.07408,0.17287 0,0.1023 -0.07408,0.17638 -0.07056,0.0706 -0.172861,0.0706 -0.102305,0 -0.176388,-0.0706 -0.07056,-0.0741 -0.07056,-0.17638 z m -0.500943,2.01788 h 0.613832 v -1.24178 h -0.550332 v -0.25399 h 0.825498 v 1.49577 h 0.571499 v 0.254 h -1.460497 z"
         id="path381" /><path
         d="m 18.992631,196.00792 h -0.275166 v -1.74977 h 0.275166 v 0.29633 h 0.04233 q 0.162278,-0.34572 0.564444,-0.34572 0.303388,0 0.483304,0.1905 0.179916,0.18697 0.179916,0.56444 v 1.04422 h -0.275166 v -0.98778 q 0,-0.27516 -0.123472,-0.41275 -0.123472,-0.13758 -0.335138,-0.13758 -0.250471,0 -0.39511,0.17286 -0.141111,0.16934 -0.141111,0.45508 z"
         id="path383" /><path
         d="m 22.206428,195.73981 h -0.04233 q -0.08467,0.15875 -0.232833,0.23989 -0.144638,0.0776 -0.317499,0.0776 -0.176389,0 -0.331611,-0.06 -0.155221,-0.06 -0.275166,-0.17286 -0.116416,-0.11289 -0.186971,-0.2787 -0.06703,-0.16933 -0.06703,-0.38453 v -0.0564 q 0,-0.21167 0.07055,-0.37747 0.07056,-0.16933 0.186972,-0.28222 0.116417,-0.11642 0.271638,-0.17639 0.155222,-0.06 0.324555,-0.06 0.1905,0 0.331611,0.0847 0.144638,0.0811 0.225777,0.23989 h 0.04233 v -0.27516 h 0.275166 v 2.18016 q 0,0.11994 -0.07761,0.19755 -0.07408,0.0776 -0.194027,0.0776 h -1.13947 v -0.254 h 1.040692 q 0.09525,0 0.09525,-0.10583 z m -0.58561,0.0564 q 0.123472,0 0.229305,-0.0459 0.105834,-0.0459 0.183444,-0.13053 0.08114,-0.0847 0.127,-0.20108 0.04586,-0.11994 0.04586,-0.26458 v -0.0423 q 0,-0.14112 -0.04586,-0.25753 -0.04586,-0.11995 -0.127,-0.20461 -0.07761,-0.0847 -0.186971,-0.13053 -0.105833,-0.0494 -0.225778,-0.0494 -0.123472,0 -0.232832,0.0459 -0.105834,0.0459 -0.186972,0.13053 -0.07761,0.0847 -0.123472,0.20108 -0.04233,0.11642 -0.04233,0.25753 v 0.0564 q 0,0.14817 0.04233,0.26459 0.04586,0.11641 0.123472,0.20108 0.08114,0.0811 0.186972,0.127 0.105833,0.0423 0.232832,0.0423 z"
         id="path385" /></g><g
       aria-label="repeat"
       id="text3707"
       style="font-size:3.52777px;line-height:0px;font-family:'Space Mono';-inkscape-font-specification:'Space Mono';stroke:#000000;stroke-width:0.1"
       transform="translate(-1.194015)"><path
         d="m 12.286346,238.97345 h 0.634999 v 0.23283 h 0.04233 q 0.06703,-0.14464 0.1905,-0.21167 0.123472,-0.0705 0.282221,-0.0705 0.264583,0 0.426861,0.17286 0.162277,0.17286 0.17286,0.50447 l -0.289277,0.0423 q 0,-0.24341 -0.116416,-0.34925 -0.116417,-0.10936 -0.28575,-0.10936 -0.10936,0 -0.190499,0.0423 -0.07761,0.0423 -0.130528,0.11641 -0.05292,0.0741 -0.07761,0.17286 -0.02469,0.0988 -0.02469,0.21167 v 0.74083 h 0.444499 v 0.254 h -1.121831 v -0.254 h 0.402166 v -1.24177 h -0.359833 z"
         id="path404" /><path
         d="m 14.7452,239.933 q 0.01058,0.26106 0.162278,0.4198 0.151694,0.15875 0.423332,0.15875 0.123472,0 0.215194,-0.0282 0.09172,-0.0282 0.155222,-0.0776 0.06703,-0.0494 0.105833,-0.11289 0.04233,-0.067 0.06703,-0.14111 l 0.261055,0.0706 q -0.07408,0.24341 -0.275166,0.39864 -0.197555,0.15169 -0.536221,0.15169 -0.186972,0 -0.345722,-0.0635 -0.155222,-0.067 -0.26811,-0.18697 -0.112889,-0.11995 -0.176389,-0.28575 -0.0635,-0.16581 -0.0635,-0.36689 v -0.0847 q 0,-0.18344 0.0635,-0.34219 0.06703,-0.15875 0.183444,-0.27164 0.116417,-0.11641 0.271638,-0.17991 0.15875,-0.067 0.342194,-0.067 0.215194,0 0.370416,0.0811 0.15875,0.0776 0.257527,0.19402 0.102306,0.11642 0.148167,0.254 0.04939,0.13759 0.04939,0.254 v 0.22578 z m 0.58561,-0.74789 q -0.116416,0 -0.218722,0.0388 -0.09878,0.0353 -0.176388,0.1023 -0.07408,0.067 -0.123472,0.15875 -0.04586,0.0882 -0.05997,0.19403 h 1.128886 q -0.0071,-0.11289 -0.05644,-0.20461 -0.04586,-0.0917 -0.123472,-0.15522 -0.07408,-0.0635 -0.172861,-0.0988 -0.09525,-0.0353 -0.197555,-0.0353 z"
         id="path406" /><path
         d="m 16.914777,241.42877 h -0.275166 v -2.45532 h 0.275166 v 0.27516 h 0.04233 q 0.09172,-0.15875 0.254,-0.23989 0.162277,-0.0847 0.352777,-0.0847 0.162277,0 0.306916,0.06 0.144638,0.06 0.253999,0.17286 0.112889,0.11289 0.176389,0.27869 0.06703,0.16581 0.06703,0.37748 v 0.0705 q 0,0.2152 -0.0635,0.381 -0.0635,0.16581 -0.176389,0.27869 -0.109361,0.11289 -0.257527,0.17287 -0.148167,0.0564 -0.313972,0.0564 -0.08467,0 -0.17286,-0.0212 -0.08819,-0.0176 -0.169333,-0.0564 -0.07761,-0.0423 -0.144639,-0.0988 -0.06703,-0.06 -0.112889,-0.14111 h -0.04233 z m 0.58561,-0.91722 q 0.127,0 0.232833,-0.0423 0.105833,-0.0459 0.183444,-0.127 0.08114,-0.0811 0.123472,-0.19755 0.04586,-0.11642 0.04586,-0.26106 v -0.0705 q 0,-0.14111 -0.04586,-0.254 -0.04233,-0.11642 -0.123472,-0.19756 -0.07761,-0.0847 -0.186972,-0.13053 -0.105833,-0.0459 -0.229305,-0.0459 -0.123472,0 -0.229305,0.0494 -0.105833,0.0459 -0.186972,0.13053 -0.07761,0.0847 -0.123472,0.20461 -0.04586,0.11642 -0.04586,0.25753 v 0.0423 q 0,0.14464 0.04586,0.26458 0.04586,0.11642 0.123472,0.20109 0.08114,0.0847 0.186972,0.13052 0.105833,0.0459 0.229305,0.0459 z"
         id="path408" /><path
         d="m 19.063187,239.933 q 0.01058,0.26106 0.162277,0.4198 0.151695,0.15875 0.423333,0.15875 0.123472,0 0.215194,-0.0282 0.09172,-0.0282 0.155222,-0.0776 0.06703,-0.0494 0.105833,-0.11289 0.04233,-0.067 0.06703,-0.14111 l 0.261055,0.0706 q -0.07408,0.24341 -0.275166,0.39864 -0.197555,0.15169 -0.536221,0.15169 -0.186971,0 -0.345721,-0.0635 -0.155222,-0.067 -0.268111,-0.18697 -0.112888,-0.11995 -0.176388,-0.28575 -0.0635,-0.16581 -0.0635,-0.36689 v -0.0847 q 0,-0.18344 0.0635,-0.34219 0.06703,-0.15875 0.183444,-0.27164 0.116416,-0.11641 0.271638,-0.17991 0.15875,-0.067 0.342194,-0.067 0.215194,0 0.370416,0.0811 0.158749,0.0776 0.257527,0.19402 0.102305,0.11642 0.148166,0.254 0.04939,0.13759 0.04939,0.254 v 0.22578 z m 0.58561,-0.74789 q -0.116417,0 -0.218722,0.0388 -0.09878,0.0353 -0.176388,0.1023 -0.07408,0.067 -0.123472,0.15875 -0.04586,0.0882 -0.05997,0.19403 h 1.128886 q -0.0071,-0.11289 -0.05644,-0.20461 -0.04586,-0.0917 -0.123472,-0.15522 -0.07408,-0.0635 -0.172861,-0.0988 -0.09525,-0.0353 -0.197555,-0.0353 z"
         id="path410" /><path
         d="m 22.291095,240.42689 h -0.04233 q -0.08467,0.17639 -0.236361,0.26105 -0.148166,0.0847 -0.313971,0.0847 -0.172861,0 -0.321027,-0.0564 -0.148167,-0.06 -0.261055,-0.17287 -0.109361,-0.11641 -0.172861,-0.28222 -0.0635,-0.1658 -0.0635,-0.38452 v -0.0565 q 0,-0.21519 0.0635,-0.381 0.0635,-0.1658 0.172861,-0.27869 0.112888,-0.11642 0.261055,-0.17639 0.148166,-0.06 0.313971,-0.06 0.179916,0 0.324555,0.0811 0.148166,0.0776 0.232833,0.24341 h 0.04233 v -0.27516 h 0.275166 v 1.38994 q 0,0.10583 0.09525,0.10583 h 0.08819 v 0.254 h -0.186972 q -0.119944,0 -0.197555,-0.0776 -0.07408,-0.0776 -0.07408,-0.19756 z m -0.564443,0.0847 q 0.123472,0 0.225777,-0.0459 0.105833,-0.0459 0.179916,-0.13052 0.07408,-0.0847 0.116417,-0.20109 0.04233,-0.11994 0.04233,-0.26458 v -0.0423 q 0,-0.14111 -0.04233,-0.25753 -0.04233,-0.11994 -0.119944,-0.20461 -0.07408,-0.0847 -0.179917,-0.13053 -0.102305,-0.0494 -0.222249,-0.0494 -0.123472,0 -0.225777,0.0459 -0.102306,0.0459 -0.179917,0.13053 -0.07408,0.0811 -0.116416,0.20108 -0.04233,0.11642 -0.04233,0.25753 v 0.0565 q 0,0.29986 0.155222,0.46919 0.158749,0.1658 0.409221,0.1658 z"
         id="path412" /><path
         d="m 23.12012,238.97345 h 0.550332 v -0.71967 h 0.275166 v 0.71967 h 0.677332 v 0.254 h -0.677332 v 1.13594 q 0,0.10583 0.09525,0.10583 h 0.497415 v 0.254 H 23.94209 q -0.119944,0 -0.197555,-0.0776 -0.07408,-0.0776 -0.07408,-0.19756 v -1.2206 H 23.12012 Z"
         id="path414" /></g><g
       aria-label="freq"
       id="text3711"
       style="font-size:3.52777px;line-height:0px;font-family:'Space Mono';-inkscape-font-specification:'Space Mono';stroke:#000000;stroke-width:0.1"><path
         d="m 5.0488311,244.31364 h 0.5397488 v -0.4445 q 0,-0.11994 0.074083,-0.19755 0.077611,-0.0776 0.1975552,-0.0776 h 0.6914429 v 0.254 H 5.9589957 q -0.09525,0 -0.09525,0.10583 v 0.35983 h 0.7302484 v 0.254 H 5.8637459 v 1.49578 h -0.275166 v -1.49578 H 5.0488311 Z"
         id="path417" /><path
         d="m 7.1266858,244.31364 h 0.6349986 v 0.23283 h 0.042333 q 0.067028,-0.14463 0.1904996,-0.21166 0.1234719,-0.0706 0.2822216,-0.0706 0.2645827,0 0.4268601,0.17286 0.1622775,0.17286 0.1728608,0.50447 l -0.2892772,0.0423 q 0,-0.24342 -0.1164164,-0.34925 -0.1164164,-0.10936 -0.2857494,-0.10936 -0.1093608,0 -0.1904995,0.0423 -0.077611,0.0423 -0.1305275,0.11642 -0.052917,0.0741 -0.077611,0.17286 -0.024694,0.0988 -0.024694,0.21166 v 0.74084 h 0.4444991 v 0.254 H 7.0843526 v -0.254 h 0.4021658 v -1.24178 H 7.1266858 Z"
         id="path419" /><path
         d="m 9.5855398,245.2732 q 0.010583,0.26105 0.1622774,0.4198 0.1516941,0.15875 0.4233328,0.15875 0.123472,0 0.215194,-0.0282 0.09172,-0.0282 0.155221,-0.0776 0.06703,-0.0494 0.105834,-0.11289 0.04233,-0.067 0.06703,-0.14111 l 0.261055,0.0705 q -0.07408,0.24342 -0.275166,0.39864 -0.197555,0.15169 -0.536221,0.15169 -0.1869718,0 -0.3457214,-0.0635 -0.1552219,-0.067 -0.2681105,-0.18697 -0.1128887,-0.11994 -0.1763885,-0.28575 -0.0635,-0.1658 -0.0635,-0.36688 v -0.0847 q 0,-0.18345 0.0635,-0.34219 0.067028,-0.15875 0.183444,-0.27164 0.1164164,-0.11642 0.2716383,-0.17992 0.1587496,-0.067 0.3421941,-0.067 0.215194,0 0.370415,0.0811 0.15875,0.0776 0.257528,0.19403 0.102305,0.11642 0.148166,0.254 0.04939,0.13758 0.04939,0.254 v 0.22578 z m 0.5856102,-0.74789 q -0.116417,0 -0.2187222,0.0388 -0.098778,0.0353 -0.1763885,0.10231 -0.074083,0.067 -0.1234719,0.15875 -0.045861,0.0882 -0.059972,0.19403 h 1.1288867 q -0.0071,-0.11289 -0.05645,-0.20462 -0.04586,-0.0917 -0.123472,-0.15522 -0.07408,-0.0635 -0.17286,-0.0988 -0.09525,-0.0353 -0.197555,-0.0353 z"
         id="path421" /><path
         d="m 12.884003,245.79531 h -0.04233 q -0.04586,0.0811 -0.112888,0.14111 -0.0635,0.0564 -0.141111,0.0988 -0.07408,0.0388 -0.15875,0.0565 -0.08114,0.0212 -0.158749,0.0212 -0.176389,0 -0.328083,-0.06 -0.151694,-0.06 -0.26811,-0.17286 -0.112889,-0.11289 -0.179917,-0.27869 -0.0635,-0.16934 -0.0635,-0.38453 v -0.0564 q 0,-0.21167 0.06703,-0.37747 0.06703,-0.16934 0.179916,-0.28223 0.112889,-0.11641 0.264583,-0.17639 0.151694,-0.06 0.321027,-0.06 0.179916,0 0.331611,0.0847 0.155221,0.0811 0.246943,0.23989 h 0.04233 v -0.27517 h 0.275166 v 2.45533 h -0.275166 z m -0.58561,0.0564 q 0.123472,0 0.229305,-0.0459 0.105833,-0.0459 0.183444,-0.13053 0.08114,-0.0847 0.127,-0.20108 0.04586,-0.11995 0.04586,-0.26458 v -0.0423 q 0,-0.14111 -0.04586,-0.25753 -0.04586,-0.11994 -0.127,-0.20461 -0.07761,-0.0847 -0.186972,-0.13052 -0.105833,-0.0494 -0.225777,-0.0494 -0.123472,0 -0.232833,0.0459 -0.105833,0.0459 -0.186972,0.13053 -0.07761,0.0847 -0.123472,0.20108 -0.04233,0.11642 -0.04233,0.25753 v 0.0564 q 0,0.14817 0.04233,0.26458 0.04586,0.11642 0.123472,0.20109 0.08114,0.0811 0.186972,0.127 0.105833,0.0423 0.232833,0.0423 z"
         id="path423" /></g><g
       aria-label="%gap"
       id="text496"
       style="font-size:3.52777px;line-height:0px;font-family:'Space Mono';-inkscape-font-specification:'Space Mono';stroke:#000000;stroke-width:0.1"><path
         d="m 6.0083849,200.20415 q 0,0.127 -0.042333,0.22578 -0.042333,0.0952 -0.1164164,0.1658 -0.070555,0.067 -0.1658052,0.10231 -0.091722,0.0353 -0.1940274,0.0353 -0.1023053,0 -0.1975551,-0.0353 -0.091722,-0.0353 -0.1658052,-0.10231 -0.070555,-0.0705 -0.1128886,-0.1658 -0.042333,-0.0988 -0.042333,-0.22578 0,-0.127 0.042333,-0.22225 0.042333,-0.0988 0.1128886,-0.16581 0.074083,-0.0705 0.1658052,-0.10583 0.09525,-0.0353 0.1975551,-0.0353 0.1023053,0 0.1940274,0.0353 0.09525,0.0353 0.1658052,0.10583 0.074083,0.067 0.1164164,0.16581 0.042333,0.0952 0.042333,0.22225 z m -0.5185822,0.33866 q 0.137583,0 0.2222495,-0.0917 0.084666,-0.0952 0.084666,-0.24694 0,-0.1517 -0.084666,-0.24342 -0.084666,-0.0953 -0.2222495,-0.0953 -0.137583,0 -0.2222495,0.0953 -0.084666,0.0917 -0.084666,0.24342 0,0.16933 0.084666,0.254 0.084666,0.0847 0.2222495,0.0847 z m 1.2770528,1.11478 q 0,0.127 -0.042333,0.22578 -0.042333,0.0952 -0.1164164,0.1658 -0.070555,0.067 -0.1658052,0.10231 -0.091722,0.0353 -0.1940273,0.0353 -0.1023054,0 -0.1975552,-0.0353 -0.091722,-0.0353 -0.1658051,-0.10231 -0.070555,-0.0705 -0.1128887,-0.1658 -0.042333,-0.0988 -0.042333,-0.22578 0,-0.127 0.042333,-0.22225 0.042333,-0.0988 0.1128887,-0.16581 0.074083,-0.0705 0.1658051,-0.10583 0.09525,-0.0353 0.1975552,-0.0353 0.1023053,0 0.1940273,0.0353 0.09525,0.0353 0.1658052,0.10583 0.074083,0.067 0.1164164,0.16581 0.042333,0.0952 0.042333,0.22225 z m -0.5185822,0.33867 q 0.137583,0 0.2222495,-0.0917 0.084666,-0.0952 0.084666,-0.24694 0,-0.15169 -0.084666,-0.24342 -0.084666,-0.0953 -0.2222495,-0.0953 -0.1375831,0 -0.2222495,0.0953 -0.084666,0.0917 -0.084666,0.24342 0,0.16933 0.084666,0.254 0.084666,0.0847 0.2222495,0.0847 z m 0.4127491,-1.57339 0.084666,0.16228 -1.6686352,0.85019 -0.084666,-0.16228 z"
         id="path1103" /><path
         d="M 8.5836553,201.89748 H 8.541322 q -0.084666,0.15875 -0.2328328,0.23989 -0.1446386,0.0776 -0.3174993,0.0776 -0.1763885,0 -0.3316104,-0.06 -0.1552219,-0.06 -0.2751661,-0.17287 -0.1164164,-0.11288 -0.1869718,-0.27869 -0.067028,-0.16933 -0.067028,-0.38453 v -0.0564 q 0,-0.21167 0.070555,-0.37747 0.070555,-0.16934 0.1869718,-0.28222 0.1164164,-0.11642 0.2716383,-0.17639 0.1552219,-0.06 0.3245548,-0.06 0.1904996,0 0.3316104,0.0847 0.1446386,0.0811 0.2257773,0.23989 h 0.042333 v -0.27517 h 0.275166 v 2.18017 q 0,0.11994 -0.077611,0.19755 -0.074083,0.0776 -0.1940274,0.0776 H 7.4477133 v -0.254 h 1.0406922 q 0.09525,0 0.09525,-0.10583 z m -0.5856099,0.0564 q 0.123472,0 0.2293051,-0.0459 0.1058331,-0.0459 0.183444,-0.13053 0.081139,-0.0847 0.1269997,-0.20108 0.045861,-0.11994 0.045861,-0.26458 v -0.0423 q 0,-0.14111 -0.045861,-0.25752 -0.045861,-0.11995 -0.1269997,-0.20461 -0.077611,-0.0847 -0.1869718,-0.13053 -0.1058331,-0.0494 -0.2257773,-0.0494 -0.1234719,0 -0.2328328,0.0459 -0.1058331,0.0459 -0.1869718,0.13053 -0.077611,0.0847 -0.123472,0.20108 -0.042333,0.11642 -0.042333,0.25753 v 0.0564 q 0,0.14817 0.042333,0.26459 0.045861,0.11641 0.123472,0.20108 0.081139,0.0811 0.1869718,0.127 0.1058331,0.0423 0.2328328,0.0423 z"
         id="path1105" /><path
         d="m 10.682677,201.86926 h -0.04233 q -0.08467,0.17638 -0.23636,0.26105 -0.148167,0.0847 -0.313972,0.0847 -0.1728605,0 -0.3210268,-0.0564 -0.1481663,-0.06 -0.261055,-0.17286 -0.1093609,-0.11641 -0.1728607,-0.28222 -0.0635,-0.1658 -0.0635,-0.38453 v -0.0564 q 0,-0.21519 0.0635,-0.381 0.0635,-0.16581 0.1728607,-0.27869 0.1128887,-0.11642 0.261055,-0.17639 0.1481663,-0.06 0.3139718,-0.06 0.179916,0 0.324555,0.0811 0.148166,0.0776 0.232832,0.24342 h 0.04233 v -0.27517 h 0.275166 v 1.38995 q 0,0.10583 0.09525,0.10583 h 0.0882 v 0.254 h -0.186972 q -0.119944,0 -0.197555,-0.0776 -0.07408,-0.0776 -0.07408,-0.19756 z m -0.564444,0.0847 q 0.123472,0 0.225778,-0.0459 0.105833,-0.0459 0.179916,-0.13053 0.07408,-0.0847 0.116416,-0.20108 0.04233,-0.11994 0.04233,-0.26458 v -0.0423 q 0,-0.14111 -0.04233,-0.25752 -0.04233,-0.11995 -0.119944,-0.20461 -0.07408,-0.0847 -0.179916,-0.13053 -0.102305,-0.0494 -0.22225,-0.0494 -0.1234715,0 -0.2257768,0.0459 -0.1023054,0.0459 -0.1799163,0.13053 -0.074083,0.0811 -0.1164164,0.20108 -0.042333,0.11642 -0.042333,0.25753 v 0.0564 q 0,0.29986 0.1552219,0.4692 0.1587497,0.1658 0.4092209,0.1658 z"
         id="path1107" /><path
         d="m 11.783339,202.87114 h -0.275166 v -2.45533 h 0.275166 v 0.27517 h 0.04233 q 0.09172,-0.15875 0.254,-0.23989 0.162277,-0.0847 0.352777,-0.0847 0.162277,0 0.306916,0.06 0.144638,0.06 0.253999,0.17286 0.112889,0.11289 0.176389,0.27869 0.06703,0.16581 0.06703,0.37747 v 0.0706 q 0,0.21519 -0.0635,0.381 -0.0635,0.1658 -0.176388,0.27869 -0.109361,0.11289 -0.257527,0.17286 -0.148167,0.0564 -0.313972,0.0564 -0.08467,0 -0.172861,-0.0212 -0.08819,-0.0176 -0.169333,-0.0564 -0.07761,-0.0423 -0.144638,-0.0988 -0.06703,-0.06 -0.112889,-0.14111 h -0.04233 z m 0.58561,-0.91722 q 0.126999,0 0.232833,-0.0423 0.105833,-0.0459 0.183444,-0.127 0.08114,-0.0811 0.123472,-0.19756 0.04586,-0.11641 0.04586,-0.26105 v -0.0706 q 0,-0.14111 -0.04586,-0.254 -0.04233,-0.11641 -0.123472,-0.19755 -0.07761,-0.0847 -0.186972,-0.13053 -0.105833,-0.0459 -0.229305,-0.0459 -0.123472,0 -0.229305,0.0494 -0.105833,0.0459 -0.186972,0.13053 -0.07761,0.0847 -0.123472,0.20461 -0.04586,0.11641 -0.04586,0.25752 v 0.0423 q 0,0.14464 0.04586,0.26458 0.04586,0.11642 0.123472,0.20108 0.08114,0.0847 0.186972,0.13053 0.105833,0.0459 0.229305,0.0459 z"
         id="path1109" /></g></g><g
     inkscape:groupmode="layer"
     id="layer2"
     inkscape:label="components"
     style="display:none"><circle
       style="display:inline;fill:#00ff00;fill-opacity:1;fill-rule:evenodd;stroke:none;stroke-width:0.875;stroke-linecap:butt;stroke-linejoin:miter;stroke-miterlimit:4;stroke-dasharray:none;stroke-dashoffset:0;stroke-opacity:1;paint-order:normal"
       id="path4954-7"
       cx="21.375902"
       cy="14"
       inkscape:label="clock"
       r="3.5" /><circle
       cy="40.125233"
       cx="9.1040001"
       id="circle4956-6"
       style="display:inline;fill:#ff0000;fill-opacity:1;fill-rule:evenodd;stroke:none;stroke-width:1.25;stroke-linecap:butt;stroke-linejoin:miter;stroke-miterlimit:4;stroke-dasharray:none;stroke-dashoffset:0;stroke-opacity:1;paint-order:normal"
       inkscape:label="swing"
       r="5" /><circle
       style="display:inline;vector-effect:none;fill:#00ff00;fill-opacity:1;fill-rule:evenodd;stroke:none;stroke-width:0.875;stroke-linecap:butt;stroke-linejoin:miter;stroke-miterlimit:4;stroke-dasharray:none;stroke-dashoffset:0;stroke-opacity:1;paint-order:normal"
       id="path4954-5"
       cx="21.375902"
       cy="53.074265"
       inkscape:label="swingMod"
       r="3.5" /><circle
       cy="84.044189"
       cx="9.1040001"
       id="circle4956"
       style="display:inline;fill:#ff0000;fill-opacity:1;fill-rule:evenodd;stroke:none;stroke-width:1.25;stroke-linecap:butt;stroke-linejoin:miter;stroke-miterlimit:4;stroke-dasharray:none;stroke-dashoffset:0;stroke-opacity:1;paint-order:normal"
       inkscape:label="repeat"
       r="5" /><circle
       style="display:inline;vector-effect:none;fill:#00ff00;fill-opacity:1;fill-rule:evenodd;stroke:none;stroke-width:0.875;stroke-linecap:butt;stroke-linejoin:miter;stroke-miterlimit:4;stroke-dasharray:none;stroke-dashoffset:0;stroke-opacity:1;paint-order:normal"
       id="path4954"
       cx="21.375902"
       cy="97.500008"
       inkscape:label="repeatMod"
       r="3.5" /><circle
       style="display:inline;vector-effect:none;fill:#00ff00;fill-opacity:1;fill-rule:evenodd;stroke:none;stroke-width:0.875;stroke-linecap:butt;stroke-linejoin:miter;stroke-miterlimit:4;stroke-dasharray:none;stroke-dashoffset:0;stroke-opacity:1;paint-order:normal"
       id="path4954-0"
       cx="21.375902"
       cy="84.044189"
       inkscape:label="trigger"
       r="3.5" /><circle
       style="display:inline;fill:#0000ff;fill-opacity:1;fill-rule:evenodd;stroke:none;stroke-width:0.625;stroke-linecap:butt;stroke-linejoin:miter;stroke-miterlimit:4;stroke-dasharray:none;stroke-dashoffset:0;stroke-opacity:1;paint-order:normal"
       id="circle4958"
       cx="21.375902"
       cy="119.5"
       inkscape:label="out"
       r="2.5" /><circle
       cy="52.759602"
       cx="9.1040001"
       id="circle4956-6-3"
       style="display:inline;fill:#ff0000;fill-opacity:1;fill-rule:evenodd;stroke:none;stroke-width:0.875;stroke-linecap:butt;stroke-linejoin:miter;stroke-miterlimit:4;stroke-dasharray:none;stroke-dashoffset:0;stroke-opacity:1;paint-order:normal"
       inkscape:label="swingModAmp"
       r="3.5" /><circle
       cy="97.500008"
       cx="9.1040001"
       id="circle4956-6-3-2"
       style="display:inline;fill:#ff0000;fill-opacity:1;fill-rule:evenodd;stroke:none;stroke-width:0.875;stroke-linecap:butt;stroke-linejoin:miter;stroke-miterlimit:4;stroke-dasharray:none;stroke-dashoffset:0;stroke-opacity:1;paint-order:normal"
       inkscape:label="repeatModAmp"
       r="3.5" /><circle
       inkscape:label="swingLight"
       r="2.3413029"
       cy="26.601303"
       cx="8"
       id="circle66"
       style="display:inline;vector-effect:none;fill:#ff00ff;fill-opacity:1;fill-rule:evenodd;stroke:none;stroke-width:0.585326;stroke-linecap:butt;stroke-linejoin:miter;stroke-miterlimit:4;stroke-dasharray:none;stroke-dashoffset:0;stroke-opacity:1;paint-order:normal" /><circle
       inkscape:label="repeatLight"
       r="2.3413029"
       cy="71.341301"
       cx="8"
       id="circle66-9"
       style="display:inline;vector-effect:none;fill:#ff00ff;fill-opacity:1;fill-rule:evenodd;stroke:none;stroke-width:0.585326;stroke-linecap:butt;stroke-linejoin:miter;stroke-miterlimit:4;stroke-dasharray:none;stroke-dashoffset:0;stroke-opacity:1;paint-order:normal" /><circle
       cy="39.692604"
       cx="21.375902"
       id="circle4956-6-3-6"
       style="display:inline;fill:#ff0000;fill-opacity:1;fill-rule:evenodd;stroke:none;stroke-width:0.875;stroke-linecap:butt;stroke-linejoin:miter;stroke-miterlimit:4;stroke-dasharray:none;stroke-dashoffset:0;stroke-opacity:1;paint-order:normal"
       inkscape:label="swapBtn"
       r="3.5" /></g></svg>
