<?xml version="1.0" encoding="UTF-8" standalone="no"?>
<!-- Created with Inkscape (http://www.inkscape.org/) -->

<svg
   width="40.639999mm"
   height="128.5mm"
   viewBox="0 0 40.639999 128.5"
   version="1.1"
   id="svg1117"
   inkscape:version="1.2.1 (9c6d41e, 2022-07-14)"
   sodipodi:docname="Sesame.svg"
   xml:space="preserve"
   xmlns:inkscape="http://www.inkscape.org/namespaces/inkscape"
   xmlns:sodipodi="http://sodipodi.sourceforge.net/DTD/sodipodi-0.dtd"
   xmlns:xlink="http://www.w3.org/1999/xlink"
   xmlns="http://www.w3.org/2000/svg"
   xmlns:svg="http://www.w3.org/2000/svg"><sodipodi:namedview
     id="namedview1119"
     pagecolor="#676767"
     bordercolor="#ffffff"
     borderopacity="1"
     inkscape:showpageshadow="0"
     inkscape:pageopacity="0"
     inkscape:pagecheckerboard="1"
     inkscape:deskcolor="#505050"
     inkscape:document-units="mm"
     showgrid="false"
     inkscape:zoom="1.077125"
     inkscape:cx="-138.7954"
     inkscape:cy="262.27225"
     inkscape:window-width="1440"
     inkscape:window-height="847"
     inkscape:window-x="0"
     inkscape:window-y="25"
     inkscape:window-maximized="0"
     inkscape:current-layer="layer1" /><defs
     id="defs1114"><linearGradient
       inkscape:collect="always"
       id="linearGradient1139"><stop
         style="stop-color:#000000;stop-opacity:1;"
         offset="0"
         id="stop1135" /><stop
         style="stop-color:#000000;stop-opacity:0;"
         offset="1"
         id="stop1137" /></linearGradient><linearGradient
       inkscape:collect="always"
       xlink:href="#linearGradient1139"
       id="linearGradient1141"
       x1="28.211061"
       y1="33.912003"
       x2="37.418555"
       y2="33.912003"
       gradientUnits="userSpaceOnUse" /></defs><g
     inkscape:label="Layer 1"
     inkscape:groupmode="layer"
     id="layer1"><rect
       style="display:inline;fill:#cccccc;fill-opacity:1;fill-rule:evenodd;stroke:none;stroke-width:0.749814;stroke-linecap:butt;stroke-linejoin:miter;stroke-miterlimit:4;stroke-dasharray:none;stroke-dashoffset:0;stroke-opacity:1;paint-order:normal"
       id="rect420"
       width="40.639999"
       height="128.5"
       x="0"
       y="0" /><g
       id="g561"
       transform="matrix(0.12598419,0,0,0.1259842,-6.440081,110.22583)"
       style="display:inline"><g
         aria-label="Si"
         transform="scale(0.98337622,1.0169048)"
         id="text1585-7"
         style="font-size:49.3413px;line-height:0;font-family:'Space Mono';-inkscape-font-specification:'Space Mono';text-align:center;text-anchor:middle;display:inline;stroke:#000000;stroke-width:0.513973"
         inkscape:label="Silly Black"><path
           d="m 210.37411,26.059765 q 0,-1.677604 -0.69078,-2.960478 -0.64144,-1.282874 -1.77629,-2.121676 -1.13485,-0.838802 -2.61509,-1.282874 -1.48024,-0.444071 -3.1085,-0.444071 -1.4309,0 -2.71377,0.39473 -1.28287,0.345389 -2.31904,1.036167 -0.98683,0.690778 -1.57892,1.726946 -0.5921,0.986826 -0.5921,2.319041 v 0.296048 q 0,1.430897 0.5921,2.467065 0.59209,0.986826 1.72694,1.726945 1.18419,0.690779 2.91114,1.184192 1.72695,0.444071 4.04599,0.78946 5.42754,0.838802 7.99329,3.207185 2.56575,2.319041 2.56575,6.266345 v 0.592096 q 0,2.220358 -0.78947,4.095328 -0.74012,1.825628 -2.2697,3.157843 -1.48023,1.332215 -3.70059,2.072335 -2.22036,0.740119 -5.1315,0.740119 -3.30587,0 -5.87161,-0.937485 -2.51641,-0.986826 -4.24336,-2.66443 -1.6776,-1.726945 -2.56574,-3.996645 -0.88815,-2.319041 -0.88815,-5.032813 v -1.480239 h 4.14467 v 1.184191 q 0,4.5394 2.46707,6.8091 2.5164,2.2697 6.95712,2.2697 3.84862,0 5.77293,-1.677605 1.97366,-1.726945 1.97366,-4.539399 v -0.296048 q 0,-2.713772 -2.023,-4.144669 -1.97365,-1.430898 -6.46371,-2.072335 -2.61509,-0.345389 -4.73676,-1.036167 -2.07234,-0.74012 -3.55258,-1.87497 -1.48024,-1.184191 -2.2697,-2.812454 -0.78946,-1.628263 -0.78946,-3.848621 v -0.592096 q 0,-2.022993 0.8388,-3.700598 0.83881,-1.677604 2.31905,-2.911136 1.52958,-1.233533 3.60191,-1.87497 2.12168,-0.690778 4.63808,-0.690778 2.91114,0 5.18084,0.838802 2.31904,0.838802 3.89796,2.2697 1.57892,1.381556 2.36839,3.305867 0.8388,1.87497 0.8388,3.947304 v 2.072335 h -4.14467 z"
           id="path10376" /><path
           d="m 229.22246,18.855935 q 0,-1.430898 0.98683,-2.417724 1.03616,-1.036167 2.46706,-1.036167 1.4309,0 2.41773,1.036167 1.03616,0.986826 1.03616,2.417724 0,1.430898 -1.03616,2.467065 -0.98683,0.986826 -2.41773,0.986826 -1.4309,0 -2.46706,-0.986826 -0.98683,-1.036167 -0.98683,-2.467065 z M 222.216,47.079159 h 8.58538 V 29.711021 h -7.69724 V 26.158448 H 234.65 v 20.920711 h 7.99329 v 3.552574 H 222.216 Z"
           id="path10378" /></g><g
         aria-label="So"
         transform="scale(0.96475638,1.0365311)"
         id="text1593-7"
         style="font-size:48.4198px;line-height:0;font-family:'Space Mono';-inkscape-font-specification:'Space Mono';text-align:center;text-anchor:middle;display:inline;stroke:#000000;stroke-width:0.504373"
         inkscape:label="Sounds Black"><path
           d="m 213.63113,63.853225 q 0,-1.646273 -0.67788,-2.905188 -0.62945,-1.258914 -1.74311,-2.082051 -1.11366,-0.823137 -2.56625,-1.258915 -1.45259,-0.435778 -3.05045,-0.435778 -1.40417,0 -2.66309,0.387358 -1.25891,0.338939 -2.27573,1.016816 -0.96839,0.677877 -1.54943,1.694693 -0.58104,0.968396 -0.58104,2.275731 v 0.290519 q 0,1.404174 0.58104,2.42099 0.58104,0.968396 1.69469,1.694693 1.16208,0.677877 2.85677,1.162075 1.69469,0.435778 3.97042,0.774717 5.32618,0.823136 7.84401,3.147287 2.51783,2.27573 2.51783,6.149314 v 0.581038 q 0,2.178891 -0.77472,4.018843 -0.72629,1.791533 -2.22731,3.098867 -1.45259,1.307335 -3.63148,2.033632 -2.17889,0.726297 -5.03566,0.726297 -3.24413,0 -5.76196,-0.919976 -2.46941,-0.968396 -4.1641,-2.614669 -1.64627,-1.694693 -2.51783,-3.922004 -0.87156,-2.275731 -0.87156,-4.93882 V 74.7961 h 4.06727 v 1.162075 q 0,4.454622 2.42099,6.681933 2.46941,2.227311 6.82719,2.227311 3.77674,0 5.66512,-1.646274 1.93679,-1.694693 1.93679,-4.454621 v -0.290519 q 0,-2.663089 -1.98521,-4.067263 -1.9368,-1.404174 -6.343,-2.033632 -2.56625,-0.338938 -4.6483,-1.016816 -2.03363,-0.726297 -3.48622,-1.839952 -1.4526,-1.162075 -2.22731,-2.759929 -0.77472,-1.597853 -0.77472,-3.776744 v -0.581038 q 0,-1.985211 0.82314,-3.631485 0.82313,-1.646273 2.27573,-2.856768 1.50101,-1.210495 3.53464,-1.839952 2.08205,-0.677877 4.55146,-0.677877 2.85677,0 5.08408,0.823136 2.27573,0.823137 3.82517,2.227311 1.54943,1.355754 2.32415,3.244127 0.82313,1.839952 0.82313,3.873584 v 2.033631 h -4.06726 z"
           id="path4094" /><path
           d="m 247.33129,76.248694 q 0,3.002028 -1.01682,5.326178 -0.96839,2.275731 -2.61467,3.873584 -1.64627,1.549434 -3.87358,2.37257 -2.17889,0.823137 -4.55146,0.823137 -2.42099,0 -4.59988,-0.823137 -2.17889,-0.823136 -3.82517,-2.37257 -1.64627,-1.597853 -2.66309,-3.873584 -0.96839,-2.32415 -0.96839,-5.326178 v -0.581037 q 0,-2.953608 0.96839,-5.229339 1.01682,-2.32415 2.66309,-3.922004 1.69469,-1.597853 3.87359,-2.42099 2.17889,-0.823136 4.55146,-0.823136 2.37257,0 4.55146,0.823136 2.17889,0.823137 3.82516,2.42099 1.6947,1.597854 2.66309,3.922004 1.01682,2.275731 1.01682,5.229339 z m -12.05653,8.812404 q 1.74311,0 3.1957,-0.581038 1.50102,-0.629457 2.61467,-1.791532 1.11366,-1.162076 1.74312,-2.759929 0.62945,-1.646273 0.62945,-3.679905 v -0.581037 q 0,-1.936792 -0.62945,-3.534646 -0.62946,-1.646273 -1.74312,-2.808348 -1.11365,-1.162075 -2.61467,-1.791533 -1.50101,-0.677877 -3.1957,-0.677877 -1.6947,0 -3.19571,0.677877 -1.50101,0.629458 -2.61467,1.791533 -1.11365,1.162075 -1.74311,2.808348 -0.62946,1.597854 -0.62946,3.534646 v 0.581037 q 0,2.033632 0.62946,3.679905 0.62946,1.597853 1.74311,2.759929 1.11366,1.162075 2.56625,1.791532 1.50101,0.581038 3.24413,0.581038 z"
           id="path4096" /></g><rect
         style="display:inline;fill:none;stroke:#000000;stroke-width:1.29975;stroke-dasharray:none;stroke-opacity:1"
         id="rect1651-0"
         width="62.200249"
         height="86.012749"
         x="181.30812"
         y="10.763638"
         inkscape:label="First Border" /></g><g
       id="g1106"
       transform="translate(52.925182,-71.656575)"
       style="display:inline"><g
         aria-label="Se"
         transform="scale(0.96953,1.0314276)"
         id="text1585-0-4-4"
         style="font-size:6.1299px;line-height:0;font-family:'Space Mono';-inkscape-font-specification:'Space Mono';text-align:center;text-anchor:middle;display:inline;stroke:#000000;stroke-width:0.0638536"
         inkscape:label="Silly Black"><path
           d="m -34.423742,77.28253 q 0,-0.208416 -0.08582,-0.367794 -0.07969,-0.159377 -0.220676,-0.263586 -0.140988,-0.104208 -0.324885,-0.159377 -0.183897,-0.05517 -0.386183,-0.05517 -0.177768,0 -0.337145,0.04904 -0.159377,0.04291 -0.288105,0.128728 -0.122598,0.08582 -0.196157,0.214547 -0.07356,0.122598 -0.07356,0.288105 v 0.03678 q 0,0.177767 0.07356,0.306495 0.07356,0.122598 0.214546,0.214547 0.147118,0.08582 0.361665,0.147117 0.214546,0.05517 0.502651,0.09808 0.674289,0.104208 0.993044,0.398443 0.318755,0.288106 0.318755,0.778498 v 0.07356 q 0,0.275846 -0.09808,0.508782 -0.09195,0.226806 -0.281976,0.392314 -0.183897,0.165507 -0.459742,0.257455 -0.275846,0.09195 -0.63751,0.09195 -0.410703,0 -0.729458,-0.116468 -0.312625,-0.122598 -0.527171,-0.331015 -0.208417,-0.214546 -0.318755,-0.496522 -0.110338,-0.288105 -0.110338,-0.625249 v -0.183897 h 0.514911 v 0.147117 q 0,0.563951 0.306495,0.845926 0.312625,0.281976 0.864316,0.281976 0.478132,0 0.717198,-0.208417 0.245196,-0.214546 0.245196,-0.563951 v -0.03678 q 0,-0.337145 -0.251326,-0.514912 -0.245196,-0.177767 -0.803016,-0.257455 -0.324885,-0.04291 -0.588471,-0.128728 -0.257456,-0.09195 -0.441353,-0.232937 -0.183897,-0.147117 -0.281975,-0.349404 -0.09808,-0.202287 -0.09808,-0.478132 v -0.07356 q 0,-0.251326 0.104208,-0.459742 0.104208,-0.208417 0.288105,-0.361664 0.190027,-0.153248 0.447483,-0.232937 0.263586,-0.08582 0.57621,-0.08582 0.361665,0 0.64364,0.104208 0.288105,0.104208 0.484262,0.281975 0.196157,0.171638 0.294235,0.410704 0.104209,0.232936 0.104209,0.490392 v 0.257456 h -0.514912 z"
           id="path786" /><path
           d="m -32.676724,78.962123 q 0.01839,0.453612 0.281976,0.729458 0.263586,0.275845 0.735588,0.275845 0.214546,0 0.373924,-0.04904 0.159377,-0.04904 0.269715,-0.134858 0.116468,-0.08582 0.183897,-0.196156 0.07356,-0.116469 0.116468,-0.245196 l 0.453613,0.122598 q -0.128728,0.422963 -0.478132,0.692678 -0.343275,0.263586 -0.931745,0.263586 -0.324885,0 -0.60073,-0.110338 -0.269716,-0.116468 -0.465873,-0.324885 -0.196156,-0.208417 -0.306495,-0.496522 -0.110338,-0.288105 -0.110338,-0.637509 v -0.147118 q 0,-0.318755 0.110338,-0.5946 0.116469,-0.275846 0.318755,-0.472003 0.202287,-0.202286 0.472003,-0.312625 0.275845,-0.116468 0.5946,-0.116468 0.373924,0 0.643639,0.140988 0.275846,0.134858 0.447483,0.337145 0.177767,0.202286 0.257456,0.441352 0.08582,0.239066 0.08582,0.441353 v 0.392314 z m 1.017564,-1.299539 q -0.202287,0 -0.380054,0.06743 -0.171637,0.0613 -0.306495,0.177767 -0.128728,0.116468 -0.214546,0.275845 -0.07969,0.153248 -0.104209,0.337145 h 1.961568 q -0.01226,-0.196157 -0.09808,-0.355534 -0.07969,-0.159378 -0.214547,-0.269716 -0.128728,-0.110338 -0.300365,-0.171637 -0.165507,-0.0613 -0.343274,-0.0613 z"
           id="path788" /></g><g
         aria-label="Sa"
         transform="scale(0.95541672,1.0466637)"
         id="text1593-4-5-5"
         style="font-size:6.04184px;line-height:0;font-family:'Space Mono';-inkscape-font-specification:'Space Mono';text-align:center;text-anchor:middle;display:inline;stroke:#000000;stroke-width:0.0629359"
         inkscape:label="Sounds Black"><path
           d="m -35.008764,80.934431 q 0,-0.205422 -0.08459,-0.36251 -0.07854,-0.157088 -0.217506,-0.259799 -0.138963,-0.102711 -0.320218,-0.157088 -0.181255,-0.05438 -0.380636,-0.05438 -0.175213,0 -0.332301,0.04833 -0.157088,0.04229 -0.283967,0.126879 -0.120836,0.08459 -0.193339,0.211464 -0.0725,0.120837 -0.0725,0.283967 v 0.03625 q 0,0.175213 0.0725,0.302092 0.0725,0.120837 0.211465,0.211464 0.145004,0.08459 0.356468,0.145004 0.211465,0.05438 0.495431,0.09667 0.664603,0.102711 0.978778,0.392719 0.314176,0.283967 0.314176,0.767314 v 0.0725 q 0,0.271883 -0.09667,0.501473 -0.09063,0.223548 -0.277925,0.386678 -0.181255,0.163129 -0.453138,0.253757 -0.271883,0.09063 -0.628351,0.09063 -0.404804,0 -0.718979,-0.114795 -0.308134,-0.120837 -0.519599,-0.32626 -0.205422,-0.211464 -0.314175,-0.489389 -0.108753,-0.283966 -0.108753,-0.616267 v -0.181256 h 0.507514 v 0.145004 q 0,0.55585 0.302092,0.833774 0.308134,0.277925 0.8519,0.277925 0.471263,0 0.706895,-0.205423 0.241674,-0.211464 0.241674,-0.555849 v -0.03625 q 0,-0.332301 -0.247716,-0.507514 -0.241673,-0.175214 -0.791481,-0.253758 -0.320217,-0.04229 -0.580017,-0.126878 -0.253757,-0.09063 -0.435012,-0.22959 -0.181255,-0.145004 -0.277925,-0.344385 -0.09667,-0.199381 -0.09667,-0.471264 v -0.0725 q 0,-0.247715 0.102711,-0.453138 0.102711,-0.205422 0.283967,-0.356468 0.187297,-0.151046 0.441054,-0.22959 0.259799,-0.08459 0.567933,-0.08459 0.356468,0 0.634393,0.102711 0.283967,0.102712 0.477305,0.277925 0.193339,0.169171 0.290009,0.404803 0.102711,0.22959 0.102711,0.483347 v 0.253758 h -0.507514 z"
           id="path791" /><path
           d="m -31.456165,83.435753 h -0.0725 q -0.145005,0.302092 -0.404804,0.447096 -0.253757,0.145005 -0.537724,0.145005 -0.29605,0 -0.549807,-0.09667 -0.253757,-0.102711 -0.447096,-0.29605 -0.187297,-0.199381 -0.29605,-0.483347 -0.108753,-0.283967 -0.108753,-0.658561 v -0.09667 q 0,-0.368552 0.108753,-0.652519 0.108753,-0.283966 0.29605,-0.477305 0.193339,-0.199381 0.447096,-0.302092 0.253757,-0.102712 0.537724,-0.102712 0.308134,0 0.555849,0.138963 0.253757,0.13292 0.398762,0.416887 h 0.0725 v -0.471264 h 0.471263 V 83.327 q 0,0.181255 0.16313,0.181255 h 0.151046 v 0.435013 h -0.320218 q -0.205422,0 -0.338343,-0.132921 -0.126878,-0.13292 -0.126878,-0.338343 z m -0.966695,0.145004 q 0.211465,0 0.386678,-0.07854 0.181255,-0.07854 0.308134,-0.223548 0.126878,-0.145004 0.199381,-0.344384 0.0725,-0.205423 0.0725,-0.453138 v -0.0725 q 0,-0.241673 -0.0725,-0.441054 -0.0725,-0.205422 -0.205423,-0.350427 -0.126879,-0.145004 -0.308134,-0.223548 -0.175213,-0.08459 -0.380636,-0.08459 -0.211464,0 -0.386678,0.07854 -0.175213,0.07854 -0.308133,0.223549 -0.126879,0.138962 -0.199381,0.344384 -0.0725,0.199381 -0.0725,0.441055 v 0.09667 q 0,0.513557 0.265841,0.803565 0.271883,0.283966 0.700853,0.283966 z"
           id="path793" /></g><rect
         style="display:inline;fill:none;stroke:#000000;stroke-width:0.163748;stroke-dasharray:none;stroke-opacity:1"
         id="rect1651-5-3-5"
         width="7.8362517"
         height="10.836252"
         x="-36.523308"
         y="77.738449"
         inkscape:label="First Border" /></g><circle
       style="fill:#333333;fill-opacity:1;stroke:none;stroke-width:0.195741;stroke-dasharray:none;stroke-opacity:1"
       id="path2845"
       cx="20.32"
       cy="101.641"
       r="7.5" /><path
       style="fill:none;stroke:#000000;stroke-width:0.3;stroke-dasharray:none;stroke-opacity:1"
       d="M 8.6199908,37.961324 V 52.608468"
       id="path1129" /><path
       style="fill:none;stroke:#000000;stroke-width:0.3;stroke-dasharray:none;stroke-opacity:1"
       d="M 32.569293,38.031235 V 51.22806"
       id="path1131" /><path
       style="fill:none;stroke:#000000;stroke-width:0.3;stroke-dasharray:none;stroke-opacity:1"
       d="M 20.32,71.897179 V 84.921958"
       id="path1133" /><path
       style="fill:none;stroke:#000000;stroke-width:0.3;stroke-dasharray:none"
       d="M 8.2038011,85.054558 H 33.461715"
       id="path1190" /><text
       xml:space="preserve"
       style="font-size:3.175px;line-height:0;font-family:'Space Mono';-inkscape-font-specification:'Space Mono, Normal';fill:none;stroke:#000000;stroke-width:0.3;stroke-dasharray:none"
       x="8.5360069"
       y="88.852066"
       id="text1194"><tspan
         sodipodi:role="line"
         id="tspan1192"
         style="stroke-width:0.3"
         x="8.5360069"
         y="88.852066" /></text><g
       aria-label="CLOCK"
       id="text426"
       style="font-weight:bold;font-size:3.52778px;line-height:0;font-family:'PT Sans';-inkscape-font-specification:'PT Sans Bold';stroke-width:0.3"
       transform="translate(0,0.49127693)"><path
         d="m 17.189147,22.543206 q -0.112889,0.08114 -0.289278,0.116417 -0.172861,0.03528 -0.356306,0.03528 -0.22225,0 -0.423334,-0.06703 -0.197555,-0.07056 -0.34925,-0.22225 -0.151694,-0.155223 -0.243417,-0.39864 -0.08819,-0.246944 -0.08819,-0.596194 0,-0.363362 0.09878,-0.606779 0.102305,-0.246944 0.261055,-0.395111 0.162278,-0.151694 0.359834,-0.215195 0.197556,-0.06703 0.395111,-0.06703 0.211667,0 0.356306,0.02822 0.148167,0.02822 0.243417,0.06703 l -0.09525,0.409222 q -0.08114,-0.0388 -0.194028,-0.05644 -0.109361,-0.01764 -0.268111,-0.01764 -0.292806,0 -0.472723,0.208139 -0.176389,0.208139 -0.176389,0.645584 0,0.1905 0.04233,0.34925 0.04233,0.155222 0.127001,0.268111 0.08819,0.109361 0.215194,0.172861 0.130528,0.05997 0.299861,0.05997 0.158751,0 0.268112,-0.03175 0.109361,-0.03175 0.1905,-0.08114 z"
         id="path344" /><path
         d="m 19.051808,22.645512 h -1.562807 v -2.469446 h 0.483306 v 2.039056 h 1.079501 z"
         id="path346" /><path
         d="m 18.896584,21.410789 q 0,-0.617362 0.271639,-0.948973 0.271639,-0.335139 0.776112,-0.335139 0.264583,0 0.462139,0.09172 0.197556,0.09172 0.328083,0.261056 0.130528,0.169333 0.194028,0.405694 0.0635,0.236362 0.0635,0.52564 0,0.617361 -0.275166,0.9525 -0.271639,0.331612 -0.772584,0.331612 -0.268112,0 -0.465667,-0.09172 -0.197556,-0.09172 -0.328084,-0.261055 -0.127,-0.169334 -0.1905,-0.405695 -0.0635,-0.236361 -0.0635,-0.52564 z m 0.508,0 q 0,0.186972 0.03175,0.345722 0.03175,0.155222 0.09525,0.268111 0.06703,0.112889 0.169334,0.176389 0.102306,0.0635 0.243417,0.0635 0.257528,0 0.398639,-0.201083 0.141111,-0.201084 0.141111,-0.652639 0,-0.179917 -0.03175,-0.335139 -0.02822,-0.155223 -0.09172,-0.27164 -0.0635,-0.116416 -0.165806,-0.179916 -0.102305,-0.06703 -0.250472,-0.06703 -0.257528,0 -0.398639,0.208139 -0.141112,0.204611 -0.141112,0.645584 z"
         id="path348" /><path
         d="m 23.009969,22.543206 q -0.112889,0.08114 -0.289278,0.116417 -0.172861,0.03528 -0.356306,0.03528 -0.22225,0 -0.423333,-0.06703 -0.197556,-0.07056 -0.349251,-0.22225 -0.151694,-0.155223 -0.243416,-0.39864 -0.08819,-0.246944 -0.08819,-0.596194 0,-0.363362 0.09878,-0.606779 0.102306,-0.246944 0.261056,-0.395111 0.162277,-0.151694 0.359833,-0.215195 0.197556,-0.06703 0.395112,-0.06703 0.211666,0 0.356305,0.02822 0.148167,0.02822 0.243417,0.06703 l -0.09525,0.409222 q -0.08114,-0.0388 -0.194028,-0.05644 -0.109361,-0.01764 -0.268111,-0.01764 -0.292806,0 -0.472723,0.208139 -0.176389,0.208139 -0.176389,0.645584 0,0.1905 0.04233,0.34925 0.04233,0.155222 0.127,0.268111 0.08819,0.109361 0.215194,0.172861 0.130528,0.05997 0.299862,0.05997 0.15875,0 0.268111,-0.03175 0.109361,-0.03175 0.1905,-0.08114 z"
         id="path350" /><path
         d="m 23.92013,21.590705 h -0.127 v 1.054807 h -0.483306 v -2.469446 h 0.483306 v 1.093611 l 0.112889,-0.04939 0.680861,-1.044222 h 0.550334 l -0.719667,1.037167 -0.1905,0.134056 0.197555,0.137583 0.821973,1.16064 H 24.65038 Z"
         id="path352" /></g><g
       aria-label="SWING"
       id="text1034"
       style="font-weight:bold;font-size:3.52777px;line-height:0;font-family:'PT Sans';-inkscape-font-specification:'PT Sans Bold';stroke-width:0.3"><path
         d="m 4.7306277,31.382468 q 0,-0.112889 -0.084666,-0.183444 -0.081139,-0.07056 -0.2081385,-0.127 Q 4.3143508,31.012052 4.1661844,30.95208 4.0215459,30.88858 3.8945462,30.800386 3.7710742,30.708664 3.6864077,30.574609 3.605269,30.440553 3.605269,30.232415 q 0,-0.179916 0.059972,-0.310444 0.059972,-0.134055 0.169333,-0.222249 0.1128886,-0.0882 0.2645827,-0.130528 0.1516941,-0.04233 0.3386659,-0.04233 0.215194,0 0.4056936,0.0388 0.1904996,0.03528 0.3139715,0.105833 l -0.1516941,0.405694 q -0.077611,-0.04939 -0.2328328,-0.08819 -0.1552219,-0.04233 -0.3351382,-0.04233 -0.1693329,0 -0.2610549,0.06703 -0.088194,0.06703 -0.088194,0.179916 0,0.105833 0.081139,0.176389 0.084666,0.07056 0.2081384,0.130527 0.1269998,0.05997 0.2716383,0.123472 0.1481664,0.0635 0.2716383,0.155222 0.1269998,0.08819 0.2081385,0.22225 0.084666,0.130527 0.084666,0.328082 0,0.197555 -0.067028,0.342194 -0.0635,0.141111 -0.183444,0.236361 -0.1164164,0.09525 -0.2857494,0.14111 -0.1658052,0.04586 -0.3668881,0.04586 -0.2645827,0 -0.4656656,-0.04939 -0.2010829,-0.04939 -0.2963327,-0.09878 l 0.1552219,-0.412749 q 0.038805,0.02117 0.098778,0.04586 0.0635,0.02469 0.1411108,0.04586 0.077611,0.02117 0.1622775,0.03528 0.088194,0.01411 0.1799162,0.01411 0.215194,0 0.3280826,-0.07056 0.1164165,-0.07408 0.1164165,-0.222249 z"
         id="path355" /><path
         d="m 6.177009,30.955608 0.045861,0.437443 h 0.014111 l 0.049389,-0.444499 0.4303879,-1.372302 h 0.3174993 l 0.4233325,1.379358 0.049389,0.437443 h 0.014111 L 7.574006,30.948552 7.8738664,29.57625 H 8.3642265 L 7.6833668,32.063327 H 7.358812 L 6.9178407,30.691025 6.8578686,30.313554 h -0.017639 l -0.059972,0.380999 -0.4374435,1.368774 H 6.0006205 L 5.3232887,29.57625 h 0.5256377 z"
         id="path357" /><path
         d="m 8.6252797,29.57625 h 0.4833045 v 2.469439 H 8.6252797 Z"
         id="path359" /><path
         d="M 10.195137,30.758053 10.00111,30.369998 h -0.017639 l 0.056444,0.388055 v 1.287636 H 9.5813049 v -2.487078 h 0.352777 l 0.9348591,1.315858 0.186972,0.377471 h 0.01764 l -0.05645,-0.377471 V 29.57625 h 0.45861 v 2.487077 H 11.12294 Z"
         id="path361" /><path
         d="m 12.770408,30.758053 h 0.920748 v 1.100664 q -0.148166,0.123472 -0.356305,0.179916 -0.204611,0.05644 -0.405693,0.05644 -0.236361,0 -0.440972,-0.07408 -0.201083,-0.07408 -0.349249,-0.229305 -0.148166,-0.158749 -0.232833,-0.402166 -0.08467,-0.243416 -0.08467,-0.578554 0,-0.349249 0.09878,-0.592665 0.102306,-0.246944 0.264583,-0.398638 0.165805,-0.155222 0.370416,-0.22225 0.204611,-0.07055 0.416277,-0.07055 0.211666,0 0.370416,0.03175 0.162277,0.03175 0.257527,0.06703 l -0.09878,0.405694 q -0.08819,-0.03528 -0.197555,-0.05292 -0.109361,-0.02117 -0.278694,-0.02117 -0.151694,0 -0.278694,0.04586 -0.126999,0.04586 -0.222249,0.151694 -0.09172,0.102305 -0.144639,0.264583 -0.04939,0.162277 -0.04939,0.39511 0,0.222249 0.04939,0.384527 0.04939,0.158749 0.137583,0.264583 0.08819,0.102305 0.204611,0.151694 0.119944,0.04939 0.254,0.04939 0.09172,0 0.179916,-0.02117 0.08819,-0.02469 0.148166,-0.07056 v -0.465665 l -0.532693,-0.05645 z"
         id="path363" /></g><g
       aria-label="DELAY"
       id="text1038"
       style="font-weight:bold;font-size:3.52777px;line-height:0;font-family:'PT Sans';-inkscape-font-specification:'PT Sans Bold';stroke-width:0.3"><path
         d="m 27.962034,29.574487 q 0.07408,-0.01058 0.165806,-0.01764 0.09525,-0.0071 0.194027,-0.01058 0.09878,-0.0035 0.190499,-0.0035 0.09525,-0.0035 0.169333,-0.0035 0.328083,0 0.560916,0.09172 0.232833,0.09172 0.377471,0.257527 0.144639,0.165805 0.211666,0.39511 0.06703,0.229305 0.06703,0.504471 0,0.250472 -0.0635,0.483305 -0.0635,0.232832 -0.211666,0.412749 -0.148166,0.179916 -0.391582,0.289277 -0.239889,0.109361 -0.596194,0.109361 -0.05644,0 -0.151694,-0.0035 -0.09172,-0.0035 -0.194027,-0.01058 -0.09878,-0.0035 -0.1905,-0.01058 -0.09172,-0.0035 -0.137583,-0.01058 z m 0.758471,0.39511 q -0.07761,0 -0.15875,0.0035 -0.07761,0.0035 -0.116416,0.01058 v 1.654524 q 0.01411,0.0035 0.04586,0.0071 0.03528,0 0.07408,0.0035 0.0388,0 0.07408,0.0035 0.03528,0 0.05292,0 0.20461,0 0.338666,-0.07056 0.137583,-0.07408 0.215194,-0.194027 0.08114,-0.119944 0.112888,-0.275166 0.03175,-0.15875 0.03175,-0.324555 0,-0.144638 -0.02822,-0.289277 -0.02822,-0.148166 -0.105833,-0.264583 -0.07408,-0.116416 -0.204611,-0.190499 -0.130527,-0.07408 -0.33161,-0.07408 z"
         id="path366" /><path
         d="m 30.244499,29.574487 h 1.464025 v 0.430388 h -0.98072 v 0.575027 h 0.892526 v 0.430388 h -0.892526 v 0.603248 h 0.998359 v 0.430388 h -1.481664 z"
         id="path368" /><path
         d="m 33.648795,32.043926 h -1.562802 v -2.469439 h 0.483304 v 2.039051 h 1.079498 z"
         id="path370" /><path
         d="m 34.685954,31.497122 h -0.758471 l -0.186972,0.546804 h -0.483304 l 0.888998,-2.487078 h 0.356305 l 0.888998,2.487078 h -0.507999 z m -0.634999,-0.388055 h 0.529166 l -0.183444,-0.550332 -0.07408,-0.388055 h -0.01764 l -0.07408,0.391583 z"
         id="path372" /><path
         d="m 35.885389,31.126706 -0.811387,-1.552219 h 0.575027 l 0.451554,0.927804 0.04939,0.261055 h 0.01764 l 0.05292,-0.268111 0.437444,-0.920748 h 0.518582 l -0.807859,1.548691 v 0.920748 h -0.483305 z"
         id="path374" /></g><g
       aria-label="REPEAT"
       id="text1042"
       style="font-weight:bold;font-size:3.52777px;line-height:0;font-family:'PT Sans';-inkscape-font-specification:'PT Sans Bold';stroke-width:0.3"><path
         d="m 14.601493,62.916576 q 0.08114,-0.01411 0.172861,-0.0247 0.09525,-0.01411 0.186972,-0.02117 0.09525,-0.0071 0.183444,-0.01058 0.08819,-0.0035 0.162277,-0.0035 0.172861,0 0.338666,0.03175 0.169333,0.03175 0.29986,0.109361 0.134056,0.07761 0.211667,0.215194 0.08114,0.134055 0.08114,0.338665 0,0.303389 -0.141111,0.493888 -0.14111,0.1905 -0.377471,0.264583 l 0.172861,0.109361 0.564443,0.941914 h -0.557388 l -0.560915,-0.966608 -0.254,-0.04586 v 1.01247 h -0.483304 z m 0.740832,0.370416 q -0.07408,0 -0.148167,0.0035 -0.07056,0.0035 -0.109361,0.01411 v 0.716137 h 0.204611 q 0.201083,0 0.321027,-0.09172 0.119944,-0.09172 0.119944,-0.303388 0,-0.15875 -0.09878,-0.246944 -0.09878,-0.09172 -0.289277,-0.09172 z"
         id="path391" /><path
         d="m 16.725208,62.891881 h 1.464024 v 0.430388 h -0.98072 v 0.575027 h 0.892526 v 0.430388 h -0.892526 v 0.603249 h 0.998359 v 0.430387 h -1.481663 z"
         id="path393" /><path
         d="m 18.566702,62.916576 q 0.148166,-0.02822 0.324554,-0.04233 0.179917,-0.01764 0.356305,-0.01764 0.183444,0 0.366888,0.03175 0.186972,0.02822 0.335138,0.119944 0.148167,0.08819 0.239889,0.250472 0.09525,0.158749 0.09525,0.416276 0,0.232833 -0.08114,0.395111 -0.08114,0.158749 -0.215194,0.261055 -0.134055,0.102305 -0.306916,0.148166 -0.169333,0.04586 -0.352777,0.04586 -0.01764,0 -0.05644,0 -0.03881,0 -0.08114,0 -0.04233,-0.0035 -0.08467,-0.0071 -0.0388,-0.0035 -0.05644,-0.0071 v 0.850192 h -0.483304 z m 0.719665,0.356305 q -0.07056,0 -0.134056,0.0071 -0.0635,0.0035 -0.102305,0.01058 v 0.800804 q 0.01411,0.0035 0.04233,0.0071 0.02822,0.0035 0.05997,0.0071 0.03175,0 0.05997,0 0.03175,0 0.04586,0 0.09525,0 0.186972,-0.01764 0.09525,-0.01764 0.169333,-0.0635 0.07408,-0.04939 0.116417,-0.134056 0.04586,-0.08467 0.04586,-0.222249 0,-0.116417 -0.04233,-0.1905 -0.04233,-0.07761 -0.112888,-0.123472 -0.06703,-0.04586 -0.155222,-0.0635 -0.08819,-0.01764 -0.179916,-0.01764 z"
         id="path395" /><path
         d="m 20.584581,62.891881 h 1.464025 v 0.430388 h -0.980721 v 0.575027 h 0.892526 v 0.430388 h -0.892526 v 0.603249 h 0.998359 v 0.430387 h -1.481663 z"
         id="path397" /><path
         d="m 23.643156,64.814516 h -0.758471 l -0.186972,0.546804 h -0.483304 l 0.888998,-2.487077 h 0.356305 l 0.888998,2.487077 h -0.507999 z m -0.634999,-0.388055 h 0.529166 l -0.183444,-0.550332 -0.07408,-0.388054 h -0.01764 l -0.07408,0.391582 z"
         id="path399" /><path
         d="m 26.038506,63.322269 h -0.719665 v 2.039051 h -0.483305 v -2.039051 h -0.723193 v -0.430388 h 1.926163 z"
         id="path401" /></g><g
       aria-label="OUT"
       id="text1046"
       style="font-weight:bold;font-size:3.52777px;line-height:0;font-family:'PT Sans';-inkscape-font-specification:'PT Sans Bold';fill:#cccccc;stroke-width:0.3"><path
         d="m 17.11679,98.670546 q 0,-0.617359 0.271638,-0.94897 0.271639,-0.335138 0.77611,-0.335138 0.264582,0 0.462138,0.09172 0.197555,0.09172 0.328082,0.261055 0.130528,0.169333 0.194027,0.405694 0.0635,0.23636 0.0635,0.525637 0,0.61736 -0.275166,0.952498 -0.271638,0.331611 -0.772581,0.331611 -0.268111,0 -0.465666,-0.09172 -0.197555,-0.09172 -0.328083,-0.261055 -0.126999,-0.169333 -0.190499,-0.405694 -0.0635,-0.236361 -0.0635,-0.525638 z m 0.507999,0 q 0,0.186972 0.03175,0.345722 0.03175,0.155222 0.09525,0.26811 0.06703,0.112889 0.169333,0.176389 0.102305,0.0635 0.243416,0.0635 0.257527,0 0.398638,-0.201083 0.14111,-0.201083 0.14111,-0.652638 0,-0.179916 -0.03175,-0.335138 -0.02822,-0.155222 -0.09172,-0.271638 -0.0635,-0.116417 -0.165806,-0.179916 -0.102305,-0.06703 -0.250471,-0.06703 -0.257528,0 -0.398638,0.208138 -0.141111,0.204611 -0.141111,0.645582 z"
         id="path420" /><path
         d="m 20.898553,97.435827 h 0.45861 v 1.594552 q 0,0.239888 -0.0635,0.412749 -0.0635,0.172861 -0.176388,0.285749 -0.112889,0.112889 -0.275166,0.165805 -0.162278,0.05292 -0.356305,0.05292 -0.938387,0 -0.938387,-0.857248 v -1.654524 h 0.483305 v 1.559274 q 0,0.144639 0.02469,0.246944 0.02822,0.09878 0.08467,0.162277 0.05645,0.05997 0.141111,0.0882 0.08467,0.02469 0.197555,0.02469 0.22225,0 0.321027,-0.123472 0.09878,-0.123472 0.09878,-0.398638 z"
         id="path422" /><path
         d="m 23.52321,97.866215 h -0.719665 v 2.039051 H 22.32024 v -2.039051 h -0.723193 v -0.430388 h 1.926163 z"
         id="path424" /></g><g
       aria-label="mod"
       id="text1154"
       style="font-weight:bold;font-size:3.52778px;line-height:0;font-family:'PT Sans';-inkscape-font-specification:'PT Sans Bold';stroke-width:0.3"><path
         d="m 6.4874521,93.632378 v -0.959557 q 0,-0.243416 -0.045861,-0.345722 -0.045861,-0.102306 -0.1905001,-0.102306 -0.1199445,0 -0.1940279,0.06703 -0.074083,0.0635 -0.112889,0.165806 v 1.174751 H 5.4855626 v -1.76389 h 0.3563058 l 0.052917,0.232833 h 0.014111 q 0.081139,-0.112889 0.2046113,-0.197556 0.127,-0.08467 0.3245557,-0.08467 0.1693335,0 0.2751669,0.07055 0.1093611,0.06703 0.1693334,0.229306 0.081139,-0.137583 0.208139,-0.218722 0.1270001,-0.08114 0.3069169,-0.08114 0.1481668,0 0.2504724,0.03528 0.1058334,0.03528 0.1693334,0.123473 0.067028,0.08467 0.098778,0.229305 0.03175,0.144639 0.03175,0.36689 v 1.058334 H 7.4893417 v -0.991307 q 0,-0.208139 -0.045861,-0.310444 -0.042333,-0.105834 -0.1940279,-0.105834 -0.1234723,0 -0.1975557,0.06703 -0.070556,0.06703 -0.1058334,0.183445 v 1.157112 z"
         id="path404" /><path
         d="m 8.2407532,92.750433 q 0,-0.448028 0.2187224,-0.687918 0.2187223,-0.243416 0.6138337,-0.243416 0.2116668,0 0.3668891,0.06703 0.1552224,0.06703 0.257528,0.190501 0.1023056,0.119944 0.1516945,0.292805 0.052917,0.172862 0.052917,0.381001 0,0.448028 -0.2187223,0.691445 -0.2151946,0.239889 -0.610306,0.239889 -0.2116668,0 -0.3668891,-0.06703 -0.1552223,-0.06703 -0.2610557,-0.186973 -0.1023057,-0.123472 -0.1552224,-0.296333 -0.049389,-0.172861 -0.049389,-0.381 z m 0.4727226,0 q 0,0.116416 0.021167,0.215194 0.021167,0.09878 0.0635,0.172861 0.042333,0.07408 0.1093612,0.116417 0.070556,0.03881 0.1658056,0.03881 0.1799168,0 0.2681113,-0.130528 0.088195,-0.130528 0.088195,-0.41275 0,-0.243417 -0.081139,-0.391584 -0.081139,-0.151695 -0.2751669,-0.151695 -0.1693334,0 -0.2645835,0.127001 -0.09525,0.127 -0.09525,0.416278 z"
         id="path406" /><path
         d="m 11.71914,93.011488 q 0,0.148167 0.0035,0.296334 0.0035,0.148167 0.03175,0.328083 h -0.328084 l -0.0635,-0.229305 h -0.01411 q -0.07055,0.123472 -0.204611,0.201083 -0.130528,0.07408 -0.310445,0.07408 -0.331611,0 -0.515056,-0.218723 -0.183444,-0.218722 -0.183444,-0.684389 0,-0.451556 0.204611,-0.702028 0.204611,-0.250473 0.599723,-0.250473 0.109361,0 0.179917,0.01411 0.07056,0.01058 0.141111,0.03881 v -0.716139 h 0.458611 z m -0.779639,0.282223 q 0.134055,0 0.211667,-0.0635 0.07761,-0.06703 0.109361,-0.1905 v -0.74789 q -0.04939,-0.0388 -0.109361,-0.05644 -0.05997,-0.02117 -0.155223,-0.02117 -0.194028,0 -0.292805,0.130528 -0.09525,0.130528 -0.09525,0.448028 0,0.225778 0.07761,0.363361 0.08114,0.137584 0.254,0.137584 z"
         id="path408" /></g><g
       aria-label="trig"
       id="text1158"
       style="font-weight:bold;font-size:3.52777px;line-height:0;font-family:'PT Sans';-inkscape-font-specification:'PT Sans Bold';stroke-width:0.3"><path
         d="m 30.022247,91.538643 h 0.243416 v -0.33161 l 0.45861,-0.130528 v 0.462138 h 0.430388 v 0.388055 h -0.430388 v 0.677332 q 0,0.183444 0.03528,0.264583 0.0388,0.07761 0.141111,0.07761 0.07055,0 0.119944,-0.01411 0.05292,-0.01411 0.116416,-0.04233 l 0.08114,0.352777 q -0.09525,0.04586 -0.222249,0.07761 -0.127,0.03175 -0.257528,0.03175 -0.243416,0 -0.359832,-0.123472 -0.112889,-0.127 -0.112889,-0.412749 v -0.888998 h -0.243416 z"
         id="path411" /><path
         d="m 32.410544,91.969031 q -0.109361,-0.0388 -0.197555,-0.0388 -0.123472,0 -0.208139,0.06703 -0.08114,0.0635 -0.109361,0.165806 v 1.139469 h -0.45861 v -1.763885 h 0.356305 l 0.05292,0.232833 h 0.01411 q 0.05997,-0.130527 0.162277,-0.201083 0.102306,-0.07055 0.239889,-0.07055 0.09172,0 0.208138,0.0388 z"
         id="path413" /><path
         d="m 32.717459,91.538643 h 0.45861 v 1.763885 h -0.45861 z m -0.06703,-0.497415 q 0,-0.102306 0.07408,-0.172861 0.07761,-0.07408 0.211666,-0.07408 0.134055,0 0.215194,0.07408 0.08467,0.07055 0.08467,0.172861 0,0.102305 -0.08467,0.172861 -0.08114,0.06703 -0.215194,0.06703 -0.134055,0 -0.211666,-0.06703 -0.07408,-0.07056 -0.07408,-0.172861 z"
         id="path415" /><path
         d="m 35.11634,93.302528 q 0,0.384527 -0.208139,0.564444 -0.208138,0.183444 -0.582082,0.183444 -0.253999,0 -0.402166,-0.03528 -0.144638,-0.03528 -0.218721,-0.07408 l 0.09525,-0.363361 q 0.08114,0.03175 0.186971,0.0635 0.109361,0.03175 0.268111,0.03175 0.239888,0 0.324555,-0.105833 0.08819,-0.102305 0.08819,-0.289277 v -0.112889 h -0.01411 q -0.123472,0.165806 -0.437444,0.165806 -0.342193,0 -0.511526,-0.211667 -0.165805,-0.211666 -0.165805,-0.66322 0,-0.472722 0.225777,-0.716138 0.225777,-0.243416 0.656165,-0.243416 0.225777,0 0.402166,0.03175 0.179916,0.03175 0.292805,0.07408 z m -0.77611,-0.338666 q 0.134056,0 0.204611,-0.05997 0.07408,-0.05997 0.112889,-0.179916 v -0.793748 q -0.109361,-0.04586 -0.271639,-0.04586 -0.176388,0 -0.275166,0.134055 -0.09878,0.130528 -0.09878,0.419805 0,0.257527 0.08467,0.391582 0.08467,0.134055 0.243416,0.134055 z"
         id="path417" /></g><g
       aria-label="mod"
       id="text1162"
       style="font-weight:bold;font-size:3.52777px;line-height:0;font-family:'PT Sans';-inkscape-font-specification:'PT Sans Bold';stroke-width:0.3"><path
         d="m 30.436763,59.982082 v -0.959553 q 0,-0.243416 -0.04586,-0.345722 -0.04586,-0.102305 -0.1905,-0.102305 -0.119944,0 -0.194027,0.06703 -0.07408,0.0635 -0.112889,0.165805 v 1.174747 h -0.45861 v -1.763885 h 0.356305 l 0.05292,0.232833 h 0.01411 q 0.08114,-0.112888 0.20461,-0.197555 0.127,-0.08467 0.324555,-0.08467 0.169333,0 0.275166,0.07055 0.109361,0.06703 0.169333,0.229305 0.08114,-0.137583 0.208139,-0.218722 0.126999,-0.08114 0.306916,-0.08114 0.148166,0 0.250471,0.03528 0.105833,0.03528 0.169333,0.123472 0.06703,0.08467 0.09878,0.229305 0.03175,0.144639 0.03175,0.366888 v 1.058331 h -0.45861 v -0.991303 q 0,-0.208138 -0.04586,-0.310444 -0.04233,-0.105833 -0.194028,-0.105833 -0.123472,0 -0.197555,0.06703 -0.07055,0.06703 -0.105833,0.183444 v 1.157108 z"
         id="path377" /><path
         d="m 32.190059,59.10014 q 0,-0.448027 0.218722,-0.687915 0.218721,-0.243416 0.613832,-0.243416 0.211666,0 0.366888,0.06703 0.155222,0.06703 0.257527,0.1905 0.102305,0.119944 0.151694,0.292805 0.05292,0.17286 0.05292,0.380999 0,0.448027 -0.218722,0.691443 -0.215194,0.239888 -0.610304,0.239888 -0.211667,0 -0.366888,-0.06703 -0.155222,-0.06703 -0.261055,-0.186972 -0.102306,-0.123472 -0.155222,-0.296333 -0.04939,-0.172861 -0.04939,-0.380999 z m 0.472721,0 q 0,0.116416 0.02117,0.215194 0.02117,0.09878 0.0635,0.172861 0.04233,0.07408 0.10936,0.116416 0.07056,0.03881 0.165806,0.03881 0.179916,0 0.26811,-0.130527 0.08819,-0.130528 0.08819,-0.412749 0,-0.243416 -0.08114,-0.391583 -0.08114,-0.151694 -0.275166,-0.151694 -0.169333,0 -0.264583,0.127 -0.09525,0.127 -0.09525,0.416277 z"
         id="path379" /><path
         d="m 35.668436,59.361195 q 0,0.148166 0.0035,0.296333 0.0035,0.148166 0.03175,0.328082 h -0.328082 l -0.0635,-0.229305 h -0.01411 q -0.07056,0.123472 -0.204611,0.201083 -0.130527,0.07408 -0.310444,0.07408 -0.33161,0 -0.515054,-0.218722 -0.183444,-0.218721 -0.183444,-0.684387 0,-0.451555 0.204611,-0.702026 0.20461,-0.250472 0.59972,-0.250472 0.109361,0 0.179917,0.01411 0.07056,0.01058 0.141111,0.03881 v -0.716138 h 0.45861 z m -0.779638,0.282221 q 0.134056,0 0.211667,-0.0635 0.07761,-0.06703 0.109361,-0.1905 V 58.64153 q -0.04939,-0.03881 -0.109361,-0.05645 -0.05997,-0.02117 -0.155222,-0.02117 -0.194028,0 -0.292805,0.130527 -0.09525,0.130528 -0.09525,0.448027 0,0.225777 0.07761,0.36336 0.08114,0.137583 0.253999,0.137583 z"
         id="path381" /></g><g
       aria-label="mod"
       id="text1166"
       style="font-weight:bold;font-size:3.52777px;line-height:0;font-family:'PT Sans';-inkscape-font-specification:'PT Sans Bold';stroke-width:0.3"><path
         d="m 6.4874583,59.982082 v -0.959553 q 0,-0.243416 -0.045861,-0.345722 -0.045861,-0.102305 -0.1904996,-0.102305 -0.1199442,0 -0.1940274,0.06703 -0.074083,0.0635 -0.1128886,0.165805 v 1.174747 H 5.4855716 v -1.763885 h 0.3563047 l 0.052917,0.232833 h 0.014111 q 0.081139,-0.112888 0.2046106,-0.197555 0.1269998,-0.08467 0.3245549,-0.08467 0.1693329,0 0.275166,0.07055 0.1093609,0.06703 0.169333,0.229305 0.081139,-0.137583 0.2081384,-0.218722 0.1269998,-0.08114 0.306916,-0.08114 0.1481664,0 0.2504717,0.03528 0.1058331,0.03528 0.169333,0.123472 0.067028,0.08467 0.098777,0.229305 0.03175,0.144639 0.03175,0.366888 v 1.058331 H 7.489345 v -0.991303 q 0,-0.208138 -0.045861,-0.310444 -0.042333,-0.105833 -0.1940273,-0.105833 -0.123472,0 -0.1975551,0.06703 -0.070555,0.06703 -0.1058331,0.183444 v 1.157108 z"
         id="path384" /><path
         d="m 8.2407543,59.10014 q 0,-0.448027 0.2187218,-0.687915 0.2187217,-0.243416 0.613832,-0.243416 0.2116662,0 0.366888,0.06703 0.1552219,0.06703 0.2575273,0.1905 0.1023053,0.119944 0.1516941,0.292805 0.052917,0.17286 0.052917,0.380999 0,0.448027 -0.2187217,0.691443 -0.215194,0.239888 -0.6103042,0.239888 -0.2116662,0 -0.3668881,-0.06703 Q 8.5511981,59.897416 8.445365,59.777472 8.3430597,59.654 8.2901431,59.481139 8.2407543,59.308278 8.2407543,59.10014 Z m 0.4727212,0 q 0,0.116416 0.021167,0.215194 0.021167,0.09878 0.0635,0.172861 0.042333,0.07408 0.1093609,0.116416 0.070555,0.03881 0.1658052,0.03881 0.1799162,0 0.2681105,-0.130527 0.088194,-0.130528 0.088194,-0.412749 0,-0.243416 -0.081139,-0.391583 -0.081139,-0.151694 -0.275166,-0.151694 -0.169333,0 -0.2645828,0.127 -0.09525,0.127 -0.09525,0.416277 z"
         id="path386" /><path
         d="m 11.719131,59.361195 q 0,0.148166 0.0035,0.296333 0.0035,0.148166 0.03175,0.328082 h -0.328083 l -0.0635,-0.229305 h -0.01411 q -0.07056,0.123472 -0.20461,0.201083 -0.130528,0.07408 -0.310444,0.07408 -0.331611,0 -0.515055,-0.218722 -0.183444,-0.218721 -0.183444,-0.684387 0,-0.451555 0.204611,-0.702026 0.204611,-0.250472 0.599721,-0.250472 0.109361,0 0.179916,0.01411 0.07056,0.01058 0.141111,0.03881 v -0.716138 h 0.45861 z m -0.779637,0.282221 q 0.134055,0 0.211666,-0.0635 0.07761,-0.06703 0.109361,-0.1905 V 58.64153 q -0.04939,-0.03881 -0.109361,-0.05645 -0.05997,-0.02117 -0.155222,-0.02117 -0.194027,0 -0.292805,0.130527 -0.09525,0.130528 -0.09525,0.448027 0,0.225777 0.07761,0.36336 0.08114,0.137583 0.254,0.137583 z"
         id="path388" /></g></g><g
     inkscape:groupmode="layer"
     id="layer2"
     inkscape:label="components"
     style="display:none"><circle
       cy="72.880699"
       cx="20.32"
       id="circle4956"
       style="display:inline;fill:#ff0000;fill-opacity:1;fill-rule:evenodd;stroke:none;stroke-width:1.25;stroke-linecap:butt;stroke-linejoin:miter;stroke-miterlimit:4;stroke-dasharray:none;stroke-dashoffset:0;stroke-opacity:1;paint-order:normal"
       inkscape:label="repeat"
       r="5" /><circle
       style="display:inline;vector-effect:none;fill:#0000ff;fill-opacity:1;fill-rule:evenodd;stroke:none;stroke-width:0.625;stroke-linecap:butt;stroke-linejoin:miter;stroke-miterlimit:4;stroke-dasharray:none;stroke-dashoffset:0;stroke-opacity:1;paint-order:normal"
       id="circle4958"
       cx="20.32"
       cy="104.64082"
       inkscape:label="out"
       r="2.5" /><circle
       cy="39.000179"
       cx="8.6199903"
       id="circle4956-6"
       style="display:inline;fill:#ff0000;fill-opacity:1;fill-rule:evenodd;stroke:none;stroke-width:1.25;stroke-linecap:butt;stroke-linejoin:miter;stroke-miterlimit:4;stroke-dasharray:none;stroke-dashoffset:0;stroke-opacity:1;paint-order:normal"
       inkscape:label="swing"
       r="5" /><circle
       cy="39.000179"
       cx="32.569294"
       id="circle4956-4"
       style="display:inline;fill:#ff0000;fill-opacity:1;fill-rule:evenodd;stroke:none;stroke-width:1.25;stroke-linecap:butt;stroke-linejoin:miter;stroke-miterlimit:4;stroke-dasharray:none;stroke-dashoffset:0;stroke-opacity:1;paint-order:normal"
       inkscape:label="delay"
       r="5" /><circle
       style="display:inline;vector-effect:none;fill:#00ff00;fill-opacity:1;fill-rule:evenodd;stroke:none;stroke-width:0.875;stroke-linecap:butt;stroke-linejoin:miter;stroke-miterlimit:4;stroke-dasharray:none;stroke-dashoffset:0;stroke-opacity:1;paint-order:normal"
       id="path4954-7"
       cx="20.32"
       cy="28.824726"
       inkscape:label="clock"
       r="3.5" /><circle
       style="display:inline;vector-effect:none;fill:#00ff00;fill-opacity:1;fill-rule:evenodd;stroke:none;stroke-width:0.875;stroke-linecap:butt;stroke-linejoin:miter;stroke-miterlimit:4;stroke-dasharray:none;stroke-dashoffset:0;stroke-opacity:1;paint-order:normal"
       id="path4954"
       cx="8.6199903"
       cy="85.054558"
       inkscape:label="repeatMod"
       r="3.5" /><circle
       style="display:inline;vector-effect:none;fill:#00ff00;fill-opacity:1;fill-rule:evenodd;stroke:none;stroke-width:0.875;stroke-linecap:butt;stroke-linejoin:miter;stroke-miterlimit:4;stroke-dasharray:none;stroke-dashoffset:0;stroke-opacity:1;paint-order:normal"
       id="path4954-5"
       cx="8.6199903"
       cy="51.500179"
       inkscape:label="swingMod"
       r="3.5" /><circle
       style="display:inline;vector-effect:none;fill:#00ff00;fill-opacity:1;fill-rule:evenodd;stroke:none;stroke-width:0.875;stroke-linecap:butt;stroke-linejoin:miter;stroke-miterlimit:4;stroke-dasharray:none;stroke-dashoffset:0;stroke-opacity:1;paint-order:normal"
       id="path4954-1"
       cx="32.569294"
       cy="51.500179"
       inkscape:label="delayMod"
       r="3.5" /><circle
       style="display:inline;vector-effect:none;fill:#00ff00;fill-opacity:1;fill-rule:evenodd;stroke:none;stroke-width:0.875;stroke-linecap:butt;stroke-linejoin:miter;stroke-miterlimit:4;stroke-dasharray:none;stroke-dashoffset:0;stroke-opacity:1;paint-order:normal"
       id="path4954-0"
       cx="32.569294"
       cy="85.054558"
       inkscape:label="trigger"
       r="3.5" /><circle
       inkscape:label="light"
       cy="44.105099"
       cx="20.619991"
       id="circle66"
       style="display:inline;vector-effect:none;fill:#ff00ff;fill-opacity:1;fill-rule:evenodd;stroke:none;stroke-width:0.625;stroke-linecap:butt;stroke-linejoin:miter;stroke-miterlimit:4;stroke-dasharray:none;stroke-dashoffset:0;stroke-opacity:1;paint-order:normal"
       r="2.5" /></g></svg>
