<?xml version="1.0" encoding="UTF-8" standalone="no"?>
<!-- Created with Inkscape (http://www.inkscape.org/) -->

<svg
   width="30.48mm"
   height="128.5mm"
   viewBox="0 0 30.480002 128.50002"
   version="1.1"
   id="svg8"
   inkscape:version="1.2.1 (9c6d41e, 2022-07-14)"
   sodipodi:docname="Sesame.svg"
   xml:space="preserve"
   xmlns:inkscape="http://www.inkscape.org/namespaces/inkscape"
   xmlns:sodipodi="http://sodipodi.sourceforge.net/DTD/sodipodi-0.dtd"
   xmlns:xlink="http://www.w3.org/1999/xlink"
   xmlns="http://www.w3.org/2000/svg"
   xmlns:svg="http://www.w3.org/2000/svg"
   xmlns:rdf="http://www.w3.org/1999/02/22-rdf-syntax-ns#"
   xmlns:cc="http://creativecommons.org/ns#"
   xmlns:dc="http://purl.org/dc/elements/1.1/"><defs
     id="defs2"><rect
       x="11.111678"
       y="28.284271"
       width="85.862966"
       height="48.487323"
       id="rect951" /><rect
       x="27.274119"
       y="437.39605"
       width="66.670068"
       height="39.395949"
       id="rect1515" /><rect
       x="17.172593"
       y="348.50263"
       width="54.548237"
       height="40.406102"
       id="rect1503" /><rect
       x="15.152288"
       y="238.396"
       width="88.893424"
       height="21.213204"
       id="rect1345" /><linearGradient
       inkscape:collect="always"
       id="linearGradient1128"><stop
         style="stop-color:#000000;stop-opacity:1;"
         offset="0"
         id="stop1124" /><stop
         style="stop-color:#000000;stop-opacity:0;"
         offset="1"
         id="stop1126" /></linearGradient><rect
       x="13.131983"
       y="28.284271"
       width="93.944187"
       height="31.314729"
       id="rect262" /><rect
       x="38.385797"
       y="46.467017"
       width="44.446712"
       height="42.426407"
       id="rect252" /><linearGradient
       inkscape:collect="always"
       xlink:href="#linearGradient1128"
       id="linearGradient1130"
       x1="21.486854"
       y1="180.23652"
       x2="26.847229"
       y2="180.23652"
       gradientUnits="userSpaceOnUse" /><rect
       x="11.111678"
       y="28.284271"
       width="85.862968"
       height="48.487324"
       id="rect951-1" /><rect
       x="11.111678"
       y="28.284271"
       width="85.862968"
       height="48.487324"
       id="rect951-1-5" /><rect
       x="11.111678"
       y="28.284271"
       width="85.862968"
       height="48.487324"
       id="rect951-1-2" /><rect
       x="11.111678"
       y="28.284271"
       width="85.862968"
       height="48.487324"
       id="rect951-1-9" /><linearGradient
       id="SVGID_1_"
       gradientUnits="userSpaceOnUse"
       x1="11.33881"
       y1="-0.0090399999"
       x2="11.33881"
       y2="22.666759">
		<stop
   offset="0"
   style="stop-color:#B0ACAE"
   id="stop1910" />
		<stop
   offset="1"
   style="stop-color:#000000"
   id="stop1912" />
	</linearGradient><linearGradient
       id="SVGID_2_"
       gradientUnits="userSpaceOnUse"
       x1="4.5368199"
       y1="-4120.5469"
       x2="22.556919"
       y2="-4120.5469"
       gradientTransform="rotate(90,-2053.495,-2055.713)">
		<stop
   offset="0"
   style="stop-color:#232223"
   id="stop1921" />
		<stop
   offset="1"
   style="stop-color:#1F1E1F"
   id="stop1923" />
	</linearGradient></defs><sodipodi:namedview
     id="base"
     pagecolor="#ffffff"
     bordercolor="#666666"
     borderopacity="1.0"
     inkscape:pageopacity="0.0"
     inkscape:pageshadow="2"
     inkscape:zoom="1.8492413"
     inkscape:cx="77.599391"
     inkscape:cy="198.18939"
     inkscape:document-units="mm"
     inkscape:current-layer="layer2"
     showgrid="false"
     units="mm"
     inkscape:snap-bbox="true"
     inkscape:snap-page="true"
     inkscape:bbox-nodes="false"
     inkscape:snap-bbox-edge-midpoints="false"
     inkscape:window-width="1440"
     inkscape:window-height="847"
     inkscape:window-x="0"
     inkscape:window-y="25"
     inkscape:window-maximized="0"
     inkscape:snap-bbox-midpoints="true"
     inkscape:snap-nodes="false"
     inkscape:showpageshadow="0"
     inkscape:pagecheckerboard="0"
     inkscape:deskcolor="#d1d1d1" /><metadata
     id="metadata5"><rdf:RDF><cc:Work
         rdf:about=""><dc:format>image/svg+xml</dc:format><dc:type
           rdf:resource="http://purl.org/dc/dcmitype/StillImage" /><dc:title /></cc:Work></rdf:RDF></metadata><g
     inkscape:label="Layer 1"
     inkscape:groupmode="layer"
     id="layer1"
     transform="translate(0,-168.49998)"><rect
       style="display:inline;opacity:1;vector-effect:none;fill:#cccccc;fill-opacity:1;fill-rule:evenodd;stroke:none;stroke-width:0.64935839;stroke-linecap:butt;stroke-linejoin:miter;stroke-miterlimit:4;stroke-dasharray:none;stroke-dashoffset:0;stroke-opacity:1;paint-order:normal"
       id="rect420"
       width="30.48"
       height="128.5"
       x="5.9211732e-17"
       y="168.49997" /><g
       id="g561"
       transform="matrix(0.12598419,0,0,0.1259842,-11.520081,278.72581)"
       style="display:inline"><g
         aria-label="Si"
         transform="scale(0.98337622,1.0169048)"
         id="text1585-7"
         style="font-size:49.3413px;line-height:0;font-family:'Space Mono';-inkscape-font-specification:'Space Mono';text-align:center;text-anchor:middle;display:inline;stroke:#000000;stroke-width:0.513973"
         inkscape:label="Silly Black"><path
           d="m 210.37411,26.059765 q 0,-1.677604 -0.69078,-2.960478 -0.64144,-1.282874 -1.77629,-2.121676 -1.13485,-0.838802 -2.61509,-1.282874 -1.48024,-0.444071 -3.1085,-0.444071 -1.4309,0 -2.71377,0.39473 -1.28287,0.345389 -2.31904,1.036167 -0.98683,0.690778 -1.57892,1.726946 -0.5921,0.986826 -0.5921,2.319041 v 0.296048 q 0,1.430897 0.5921,2.467065 0.59209,0.986826 1.72694,1.726945 1.18419,0.690779 2.91114,1.184192 1.72695,0.444071 4.04599,0.78946 5.42754,0.838802 7.99329,3.207185 2.56575,2.319041 2.56575,6.266345 v 0.592096 q 0,2.220358 -0.78947,4.095328 -0.74012,1.825628 -2.2697,3.157843 -1.48023,1.332215 -3.70059,2.072335 -2.22036,0.740119 -5.1315,0.740119 -3.30587,0 -5.87161,-0.937485 -2.51641,-0.986826 -4.24336,-2.66443 -1.6776,-1.726945 -2.56574,-3.996645 -0.88815,-2.319041 -0.88815,-5.032813 v -1.480239 h 4.14467 v 1.184191 q 0,4.5394 2.46707,6.8091 2.5164,2.2697 6.95712,2.2697 3.84862,0 5.77293,-1.677605 1.97366,-1.726945 1.97366,-4.539399 v -0.296048 q 0,-2.713772 -2.023,-4.144669 -1.97365,-1.430898 -6.46371,-2.072335 -2.61509,-0.345389 -4.73676,-1.036167 -2.07234,-0.74012 -3.55258,-1.87497 -1.48024,-1.184191 -2.2697,-2.812454 -0.78946,-1.628263 -0.78946,-3.848621 v -0.592096 q 0,-2.022993 0.8388,-3.700598 0.83881,-1.677604 2.31905,-2.911136 1.52958,-1.233533 3.60191,-1.87497 2.12168,-0.690778 4.63808,-0.690778 2.91114,0 5.18084,0.838802 2.31904,0.838802 3.89796,2.2697 1.57892,1.381556 2.36839,3.305867 0.8388,1.87497 0.8388,3.947304 v 2.072335 h -4.14467 z"
           id="path10376" /><path
           d="m 229.22246,18.855935 q 0,-1.430898 0.98683,-2.417724 1.03616,-1.036167 2.46706,-1.036167 1.4309,0 2.41773,1.036167 1.03616,0.986826 1.03616,2.417724 0,1.430898 -1.03616,2.467065 -0.98683,0.986826 -2.41773,0.986826 -1.4309,0 -2.46706,-0.986826 -0.98683,-1.036167 -0.98683,-2.467065 z M 222.216,47.079159 h 8.58538 V 29.711021 h -7.69724 V 26.158448 H 234.65 v 20.920711 h 7.99329 v 3.552574 H 222.216 Z"
           id="path10378" /></g><g
         aria-label="So"
         transform="scale(0.96475638,1.0365311)"
         id="text1593-7"
         style="font-size:48.4198px;line-height:0;font-family:'Space Mono';-inkscape-font-specification:'Space Mono';text-align:center;text-anchor:middle;display:inline;stroke:#000000;stroke-width:0.504373"
         inkscape:label="Sounds Black"><path
           d="m 213.63113,63.853225 q 0,-1.646273 -0.67788,-2.905188 -0.62945,-1.258914 -1.74311,-2.082051 -1.11366,-0.823137 -2.56625,-1.258915 -1.45259,-0.435778 -3.05045,-0.435778 -1.40417,0 -2.66309,0.387358 -1.25891,0.338939 -2.27573,1.016816 -0.96839,0.677877 -1.54943,1.694693 -0.58104,0.968396 -0.58104,2.275731 v 0.290519 q 0,1.404174 0.58104,2.42099 0.58104,0.968396 1.69469,1.694693 1.16208,0.677877 2.85677,1.162075 1.69469,0.435778 3.97042,0.774717 5.32618,0.823136 7.84401,3.147287 2.51783,2.27573 2.51783,6.149314 v 0.581038 q 0,2.178891 -0.77472,4.018843 -0.72629,1.791533 -2.22731,3.098867 -1.45259,1.307335 -3.63148,2.033632 -2.17889,0.726297 -5.03566,0.726297 -3.24413,0 -5.76196,-0.919976 -2.46941,-0.968396 -4.1641,-2.614669 -1.64627,-1.694693 -2.51783,-3.922004 -0.87156,-2.275731 -0.87156,-4.93882 V 74.7961 h 4.06727 v 1.162075 q 0,4.454622 2.42099,6.681933 2.46941,2.227311 6.82719,2.227311 3.77674,0 5.66512,-1.646274 1.93679,-1.694693 1.93679,-4.454621 v -0.290519 q 0,-2.663089 -1.98521,-4.067263 -1.9368,-1.404174 -6.343,-2.033632 -2.56625,-0.338938 -4.6483,-1.016816 -2.03363,-0.726297 -3.48622,-1.839952 -1.4526,-1.162075 -2.22731,-2.759929 -0.77472,-1.597853 -0.77472,-3.776744 v -0.581038 q 0,-1.985211 0.82314,-3.631485 0.82313,-1.646273 2.27573,-2.856768 1.50101,-1.210495 3.53464,-1.839952 2.08205,-0.677877 4.55146,-0.677877 2.85677,0 5.08408,0.823136 2.27573,0.823137 3.82517,2.227311 1.54943,1.355754 2.32415,3.244127 0.82313,1.839952 0.82313,3.873584 v 2.033631 h -4.06726 z"
           id="path4094" /><path
           d="m 247.33129,76.248694 q 0,3.002028 -1.01682,5.326178 -0.96839,2.275731 -2.61467,3.873584 -1.64627,1.549434 -3.87358,2.37257 -2.17889,0.823137 -4.55146,0.823137 -2.42099,0 -4.59988,-0.823137 -2.17889,-0.823136 -3.82517,-2.37257 -1.64627,-1.597853 -2.66309,-3.873584 -0.96839,-2.32415 -0.96839,-5.326178 v -0.581037 q 0,-2.953608 0.96839,-5.229339 1.01682,-2.32415 2.66309,-3.922004 1.69469,-1.597853 3.87359,-2.42099 2.17889,-0.823136 4.55146,-0.823136 2.37257,0 4.55146,0.823136 2.17889,0.823137 3.82516,2.42099 1.6947,1.597854 2.66309,3.922004 1.01682,2.275731 1.01682,5.229339 z m -12.05653,8.812404 q 1.74311,0 3.1957,-0.581038 1.50102,-0.629457 2.61467,-1.791532 1.11366,-1.162076 1.74312,-2.759929 0.62945,-1.646273 0.62945,-3.679905 v -0.581037 q 0,-1.936792 -0.62945,-3.534646 -0.62946,-1.646273 -1.74312,-2.808348 -1.11365,-1.162075 -2.61467,-1.791533 -1.50101,-0.677877 -3.1957,-0.677877 -1.6947,0 -3.19571,0.677877 -1.50101,0.629458 -2.61467,1.791533 -1.11365,1.162075 -1.74311,2.808348 -0.62946,1.597854 -0.62946,3.534646 v 0.581037 q 0,2.033632 0.62946,3.679905 0.62946,1.597853 1.74311,2.759929 1.11366,1.162075 2.56625,1.791532 1.50101,0.581038 3.24413,0.581038 z"
           id="path4096" /></g><rect
         style="display:inline;fill:none;stroke:#000000;stroke-width:1.29975;stroke-dasharray:none;stroke-opacity:1"
         id="rect1651-0"
         width="62.200249"
         height="86.012749"
         x="181.30812"
         y="10.763638"
         inkscape:label="First Border" /></g><g
       id="g1106"
       transform="translate(47.845181,96.843405)"
       style="display:inline"
       inkscape:label="g1106"><g
         aria-label="Se"
         transform="scale(0.96953,1.0314276)"
         id="text1585-0-4-4"
         style="font-size:6.1299px;line-height:0;font-family:'Space Mono';-inkscape-font-specification:'Space Mono';text-align:center;text-anchor:middle;display:inline;stroke:#000000;stroke-width:0.0638536"
         inkscape:label="Silly Black"><path
           d="m -34.423742,77.28253 q 0,-0.208416 -0.08582,-0.367794 -0.07969,-0.159377 -0.220676,-0.263586 -0.140988,-0.104208 -0.324885,-0.159377 -0.183897,-0.05517 -0.386183,-0.05517 -0.177768,0 -0.337145,0.04904 -0.159377,0.04291 -0.288105,0.128728 -0.122598,0.08582 -0.196157,0.214547 -0.07356,0.122598 -0.07356,0.288105 v 0.03678 q 0,0.177767 0.07356,0.306495 0.07356,0.122598 0.214546,0.214547 0.147118,0.08582 0.361665,0.147117 0.214546,0.05517 0.502651,0.09808 0.674289,0.104208 0.993044,0.398443 0.318755,0.288106 0.318755,0.778498 v 0.07356 q 0,0.275846 -0.09808,0.508782 -0.09195,0.226806 -0.281976,0.392314 -0.183897,0.165507 -0.459742,0.257455 -0.275846,0.09195 -0.63751,0.09195 -0.410703,0 -0.729458,-0.116468 -0.312625,-0.122598 -0.527171,-0.331015 -0.208417,-0.214546 -0.318755,-0.496522 -0.110338,-0.288105 -0.110338,-0.625249 v -0.183897 h 0.514911 v 0.147117 q 0,0.563951 0.306495,0.845926 0.312625,0.281976 0.864316,0.281976 0.478132,0 0.717198,-0.208417 0.245196,-0.214546 0.245196,-0.563951 v -0.03678 q 0,-0.337145 -0.251326,-0.514912 -0.245196,-0.177767 -0.803016,-0.257455 -0.324885,-0.04291 -0.588471,-0.128728 -0.257456,-0.09195 -0.441353,-0.232937 -0.183897,-0.147117 -0.281975,-0.349404 -0.09808,-0.202287 -0.09808,-0.478132 v -0.07356 q 0,-0.251326 0.104208,-0.459742 0.104208,-0.208417 0.288105,-0.361664 0.190027,-0.153248 0.447483,-0.232937 0.263586,-0.08582 0.57621,-0.08582 0.361665,0 0.64364,0.104208 0.288105,0.104208 0.484262,0.281975 0.196157,0.171638 0.294235,0.410704 0.104209,0.232936 0.104209,0.490392 v 0.257456 h -0.514912 z"
           id="path786" /><path
           d="m -32.676724,78.962123 q 0.01839,0.453612 0.281976,0.729458 0.263586,0.275845 0.735588,0.275845 0.214546,0 0.373924,-0.04904 0.159377,-0.04904 0.269715,-0.134858 0.116468,-0.08582 0.183897,-0.196156 0.07356,-0.116469 0.116468,-0.245196 l 0.453613,0.122598 q -0.128728,0.422963 -0.478132,0.692678 -0.343275,0.263586 -0.931745,0.263586 -0.324885,0 -0.60073,-0.110338 -0.269716,-0.116468 -0.465873,-0.324885 -0.196156,-0.208417 -0.306495,-0.496522 -0.110338,-0.288105 -0.110338,-0.637509 v -0.147118 q 0,-0.318755 0.110338,-0.5946 0.116469,-0.275846 0.318755,-0.472003 0.202287,-0.202286 0.472003,-0.312625 0.275845,-0.116468 0.5946,-0.116468 0.373924,0 0.643639,0.140988 0.275846,0.134858 0.447483,0.337145 0.177767,0.202286 0.257456,0.441352 0.08582,0.239066 0.08582,0.441353 v 0.392314 z m 1.017564,-1.299539 q -0.202287,0 -0.380054,0.06743 -0.171637,0.0613 -0.306495,0.177767 -0.128728,0.116468 -0.214546,0.275845 -0.07969,0.153248 -0.104209,0.337145 h 1.961568 q -0.01226,-0.196157 -0.09808,-0.355534 -0.07969,-0.159378 -0.214547,-0.269716 -0.128728,-0.110338 -0.300365,-0.171637 -0.165507,-0.0613 -0.343274,-0.0613 z"
           id="path788" /></g><g
         aria-label="Sa"
         transform="scale(0.95541672,1.0466637)"
         id="text1593-4-5-5"
         style="font-size:6.04184px;line-height:0;font-family:'Space Mono';-inkscape-font-specification:'Space Mono';text-align:center;text-anchor:middle;display:inline;stroke:#000000;stroke-width:0.0629359"
         inkscape:label="Sounds Black"><path
           d="m -35.008764,80.934431 q 0,-0.205422 -0.08459,-0.36251 -0.07854,-0.157088 -0.217506,-0.259799 -0.138963,-0.102711 -0.320218,-0.157088 -0.181255,-0.05438 -0.380636,-0.05438 -0.175213,0 -0.332301,0.04833 -0.157088,0.04229 -0.283967,0.126879 -0.120836,0.08459 -0.193339,0.211464 -0.0725,0.120837 -0.0725,0.283967 v 0.03625 q 0,0.175213 0.0725,0.302092 0.0725,0.120837 0.211465,0.211464 0.145004,0.08459 0.356468,0.145004 0.211465,0.05438 0.495431,0.09667 0.664603,0.102711 0.978778,0.392719 0.314176,0.283967 0.314176,0.767314 v 0.0725 q 0,0.271883 -0.09667,0.501473 -0.09063,0.223548 -0.277925,0.386678 -0.181255,0.163129 -0.453138,0.253757 -0.271883,0.09063 -0.628351,0.09063 -0.404804,0 -0.718979,-0.114795 -0.308134,-0.120837 -0.519599,-0.32626 -0.205422,-0.211464 -0.314175,-0.489389 -0.108753,-0.283966 -0.108753,-0.616267 v -0.181256 h 0.507514 v 0.145004 q 0,0.55585 0.302092,0.833774 0.308134,0.277925 0.8519,0.277925 0.471263,0 0.706895,-0.205423 0.241674,-0.211464 0.241674,-0.555849 v -0.03625 q 0,-0.332301 -0.247716,-0.507514 -0.241673,-0.175214 -0.791481,-0.253758 -0.320217,-0.04229 -0.580017,-0.126878 -0.253757,-0.09063 -0.435012,-0.22959 -0.181255,-0.145004 -0.277925,-0.344385 -0.09667,-0.199381 -0.09667,-0.471264 v -0.0725 q 0,-0.247715 0.102711,-0.453138 0.102711,-0.205422 0.283967,-0.356468 0.187297,-0.151046 0.441054,-0.22959 0.259799,-0.08459 0.567933,-0.08459 0.356468,0 0.634393,0.102711 0.283967,0.102712 0.477305,0.277925 0.193339,0.169171 0.290009,0.404803 0.102711,0.22959 0.102711,0.483347 v 0.253758 h -0.507514 z"
           id="path791" /><path
           d="m -31.456165,83.435753 h -0.0725 q -0.145005,0.302092 -0.404804,0.447096 -0.253757,0.145005 -0.537724,0.145005 -0.29605,0 -0.549807,-0.09667 -0.253757,-0.102711 -0.447096,-0.29605 -0.187297,-0.199381 -0.29605,-0.483347 -0.108753,-0.283967 -0.108753,-0.658561 v -0.09667 q 0,-0.368552 0.108753,-0.652519 0.108753,-0.283966 0.29605,-0.477305 0.193339,-0.199381 0.447096,-0.302092 0.253757,-0.102712 0.537724,-0.102712 0.308134,0 0.555849,0.138963 0.253757,0.13292 0.398762,0.416887 h 0.0725 v -0.471264 h 0.471263 V 83.327 q 0,0.181255 0.16313,0.181255 h 0.151046 v 0.435013 h -0.320218 q -0.205422,0 -0.338343,-0.132921 -0.126878,-0.13292 -0.126878,-0.338343 z m -0.966695,0.145004 q 0.211465,0 0.386678,-0.07854 0.181255,-0.07854 0.308134,-0.223548 0.126878,-0.145004 0.199381,-0.344384 0.0725,-0.205423 0.0725,-0.453138 v -0.0725 q 0,-0.241673 -0.0725,-0.441054 -0.0725,-0.205422 -0.205423,-0.350427 -0.126879,-0.145004 -0.308134,-0.223548 -0.175213,-0.08459 -0.380636,-0.08459 -0.211464,0 -0.386678,0.07854 -0.175213,0.07854 -0.308133,0.223549 -0.126879,0.138962 -0.199381,0.344384 -0.0725,0.199381 -0.0725,0.441055 v 0.09667 q 0,0.513557 0.265841,0.803565 0.271883,0.283966 0.700853,0.283966 z"
           id="path793" /></g><rect
         style="display:inline;fill:none;stroke:#000000;stroke-width:0.163748;stroke-dasharray:none;stroke-opacity:1"
         id="rect1651-5-3-5"
         width="7.8362517"
         height="10.836252"
         x="-36.523308"
         y="77.738449"
         inkscape:label="First Border" /></g><path
       style="fill:none;stroke:#000000;stroke-width:0.323976;stroke-dasharray:none;stroke-opacity:1"
       d="m 7.9110904,242.2347 14.3521296,0"
       id="path1129-0"
       sodipodi:nodetypes="cc" /><circle
       style="display:inline;fill:#333333;fill-opacity:1;stroke:none;stroke-width:0.195741;stroke-dasharray:none;stroke-opacity:1"
       id="path2845"
       cx="15.24"
       cy="268.20386"
       r="7.5" /><path
       style="fill:none;stroke:#000000;stroke-width:0.3;stroke-dasharray:none;stroke-opacity:1"
       d="M 8.382141,255.7347 H 23.025323"
       id="path1129-5" /><path
       style="fill:none;stroke:#000000;stroke-width:0.305095;stroke-dasharray:none;stroke-opacity:1"
       d="M 8.0959997,255.44377 V 242.18782"
       id="path1129-2" /><path
       style="fill:none;stroke:#000000;stroke-width:0.3;stroke-dasharray:none;stroke-opacity:1"
       d="m 8.0972318,225.41851 14.1867852,0"
       id="path1129-5-9"
       sodipodi:nodetypes="cc" /><path
       style="fill:none;stroke:#000000;stroke-width:0.307839;stroke-dasharray:none;stroke-opacity:1"
       d="M 8.0959997,225.52375 V 212.02831"
       id="path1129-2-7" /><g
       aria-label="CLOCK"
       id="text3273"
       style="font-weight:bold;font-size:3.52777px;line-height:0;font-family:'Space Mono';-inkscape-font-specification:'Space Mono Bold';stroke-width:0.3"><path
         d="m 10.893791,191.34836 q 0.134055,0 0.218722,-0.0388 0.08819,-0.0423 0.134055,-0.10936 0.04939,-0.0706 0.06703,-0.15875 0.01764,-0.0917 0.01764,-0.18698 v -0.0635 H 11.7969 v 0.0635 q 0,0.44098 -0.232833,0.68086 -0.229305,0.23636 -0.670276,0.23636 -0.423333,0 -0.670277,-0.25752 -0.2469434,-0.25753 -0.2469434,-0.75142 v -0.55033 q 0,-0.23636 0.063499,-0.42333 0.0635,-0.1905 0.183444,-0.3175 0.119945,-0.13053 0.289278,-0.19756 0.169333,-0.0705 0.380999,-0.0705 0.218722,0 0.388055,0.0635 0.169332,0.0635 0.282221,0.18344 0.116417,0.11995 0.172861,0.28928 0.05997,0.16933 0.05997,0.381 v 0.0635 h -0.465666 v -0.0635 q 0,-0.0882 -0.02117,-0.17639 -0.02117,-0.0882 -0.07056,-0.15875 -0.04939,-0.0706 -0.134055,-0.11289 -0.08467,-0.0459 -0.211666,-0.0459 -0.116417,0 -0.201083,0.0459 -0.08467,0.0423 -0.141111,0.11995 -0.05644,0.0741 -0.08467,0.17638 -0.0247,0.0988 -0.0247,0.20814 v 0.62089 q 0,0.11994 0.0247,0.22225 0.02469,0.0988 0.07761,0.17286 0.05292,0.0741 0.137583,0.11642 0.08819,0.0388 0.211666,0.0388 z"
         id="path3303" /><path
         d="m 12.255508,189.25287 h 0.465666 v 2.02494 h 1.121831 v 0.4445 h -1.587497 z"
         id="path3305" /><path
         d="m 14.294558,190.21242 q 0,-0.47978 0.239888,-0.74436 0.243416,-0.26458 0.670276,-0.26458 0.42686,0 0.666749,0.26458 0.243416,0.26458 0.243416,0.74436 v 0.55033 q 0,0.49389 -0.243416,0.75142 -0.239889,0.25752 -0.666749,0.25752 -0.42686,0 -0.670276,-0.25752 -0.239888,-0.25753 -0.239888,-0.75142 z m 0.910164,1.13594 q 0.127,0 0.211666,-0.0388 0.08467,-0.0423 0.137583,-0.11642 0.05292,-0.0741 0.07408,-0.17639 0.02117,-0.1023 0.02117,-0.22578 v -0.60677 q 0,-0.11642 -0.02469,-0.21872 -0.0247,-0.10231 -0.07761,-0.17639 -0.05292,-0.0741 -0.137583,-0.11642 -0.08467,-0.0459 -0.204611,-0.0459 -0.119944,0 -0.20461,0.0459 -0.08467,0.0423 -0.137583,0.11642 -0.05292,0.0741 -0.07761,0.17639 -0.02469,0.1023 -0.02469,0.21872 v 0.60677 q 0,0.12348 0.02117,0.22578 0.02117,0.10231 0.07408,0.17639 0.05292,0.0741 0.137583,0.11642 0.08467,0.0388 0.211666,0.0388 z"
         id="path3307" /><path
         d="m 17.370771,191.34836 q 0.134055,0 0.218722,-0.0388 0.08819,-0.0423 0.134055,-0.10936 0.04939,-0.0706 0.06703,-0.15875 0.01764,-0.0917 0.01764,-0.18698 v -0.0635 h 0.465666 v 0.0635 q 0,0.44098 -0.232833,0.68086 -0.229305,0.23636 -0.670276,0.23636 -0.423332,0 -0.670276,-0.25752 -0.246944,-0.25753 -0.246944,-0.75142 v -0.55033 q 0,-0.23636 0.0635,-0.42333 0.0635,-0.1905 0.183444,-0.3175 0.119944,-0.13053 0.289277,-0.19756 0.169333,-0.0705 0.380999,-0.0705 0.218722,0 0.388055,0.0635 0.169333,0.0635 0.282221,0.18344 0.116417,0.11995 0.172861,0.28928 0.05997,0.16933 0.05997,0.381 v 0.0635 h -0.465666 v -0.0635 q 0,-0.0882 -0.02117,-0.17639 -0.02117,-0.0882 -0.07056,-0.15875 -0.04939,-0.0706 -0.134055,-0.11289 -0.08467,-0.0459 -0.211666,-0.0459 -0.116416,0 -0.201083,0.0459 -0.08467,0.0423 -0.141111,0.11995 -0.05644,0.0741 -0.08467,0.17638 -0.0247,0.0988 -0.0247,0.20814 v 0.62089 q 0,0.11994 0.0247,0.22225 0.02469,0.0988 0.07761,0.17286 0.05292,0.0741 0.137583,0.11642 0.08819,0.0388 0.211666,0.0388 z"
         id="path3309" /><path
         d="M 19.180515,191.72231 H 18.71485 v -2.46944 h 0.465665 v 1.01247 h 0.102306 l 0.652637,-1.01247 h 0.525638 v 0.0212 l -0.761998,1.18181 v 0.0635 l 0.804331,1.1818 v 0.0212 h -0.546804 l -0.673804,-1.01247 h -0.102306 z"
         id="path3311" /></g><g
       aria-label="SWING"
       id="text3277"
       style="font-weight:bold;font-size:3.52777px;line-height:0;font-family:'Space Mono';-inkscape-font-specification:'Space Mono Bold';stroke-width:0.3"><path
         d="m 4.2295673,203.93055 q 0,-0.14816 -0.1164164,-0.25752 -0.1128887,-0.10936 -0.3210271,-0.10936 -0.1763885,0 -0.2786938,0.0741 -0.1023054,0.0705 -0.1023054,0.19403 0,0.0635 0.024694,0.11641 0.024694,0.0494 0.084666,0.0917 0.0635,0.0388 0.1622774,0.0706 0.1023054,0.0318 0.2575273,0.06 0.3880547,0.0706 0.5926653,0.23636 0.2046107,0.16581 0.2046107,0.49036 v 0.0423 q 0,0.17286 -0.0635,0.31397 -0.059972,0.13758 -0.1763885,0.23636 -0.1164164,0.0988 -0.2822216,0.15169 -0.1658052,0.0529 -0.3739436,0.0529 -0.2434161,0 -0.430388,-0.067 -0.183444,-0.0705 -0.3069159,-0.1905 -0.123472,-0.12347 -0.1869719,-0.28575 -0.0635,-0.1658 -0.0635,-0.35983 v -0.10583 h 0.4656656 v 0.0847 q 0,0.22225 0.1269997,0.35631 0.1305275,0.13053 0.4021658,0.13053 0.2116662,0 0.3139716,-0.0917 0.1023053,-0.0917 0.1023053,-0.21872 0,-0.06 -0.021167,-0.11289 -0.021167,-0.0564 -0.074083,-0.0988 -0.052917,-0.0459 -0.1446386,-0.0811 -0.091722,-0.0353 -0.2328328,-0.06 -0.1869718,-0.0318 -0.3421937,-0.0811 -0.1552219,-0.0529 -0.2716383,-0.13759 -0.1128886,-0.0847 -0.1763885,-0.21166 -0.0635,-0.127 -0.0635,-0.31045 v -0.0212 q 0,-0.1517 0.059972,-0.2787 0.0635,-0.13053 0.1728607,-0.22577 0.1128886,-0.0953 0.2681105,-0.14817 0.1587497,-0.0529 0.352777,-0.0529 0.2187218,0 0.3880547,0.0635 0.169333,0.06 0.2822216,0.16581 0.1164164,0.10583 0.1728608,0.24341 0.059972,0.13759 0.059972,0.28928 v 0.127 H 4.2295673 Z"
         id="path3314" /><path
         d="M 6.9318374,205.64505 H 6.1204503 l -0.1128887,-1.87677 v -0.33867 h -0.084666 v 0.33867 l -0.1128886,1.87677 H 4.9986194 l -0.084666,-2.46944 h 0.4233324 l 0.056444,1.87677 v 0.3175 h 0.084666 v -0.3175 l 0.1128887,-1.87677 H 6.339172 l 0.1128886,1.87677 v 0.3175 h 0.084666 v -0.3175 l 0.056444,-1.87677 h 0.4233324 z"
         id="path3316" /><path
         d="M 7.2987237,203.17561 H 8.94972 v 0.4445 H 8.3570547 v 1.58044 H 8.94972 v 0.4445 H 7.2987237 v -0.4445 H 7.891389 v -1.58044 H 7.2987237 Z"
         id="path3318" /><path
         d="m 10.618353,205.41222 h 0.0635 v -2.23661 h 0.465666 v 2.46944 h -0.910165 l -0.2892771,-2.23661 h -0.0635 v 2.23661 H 9.4189114 v -2.46944 h 0.9101646 z"
         id="path3320" /><path
         d="m 12.279931,204.39622 h 1.058331 v 1.24883 H 12.91493 v -0.27517 h -0.0635 q -0.04233,0.13759 -0.162277,0.23284 -0.119944,0.0917 -0.359833,0.0917 -0.169333,0 -0.317499,-0.0635 -0.148166,-0.0635 -0.257527,-0.18697 -0.109361,-0.127 -0.172861,-0.31045 -0.0635,-0.18697 -0.0635,-0.43391 v -0.57856 q 0,-0.23988 0.06703,-0.42333 0.07056,-0.18697 0.190499,-0.31397 0.123472,-0.127 0.292805,-0.1905 0.169333,-0.067 0.373944,-0.067 0.211666,0 0.377471,0.0706 0.165805,0.067 0.282222,0.1905 0.116416,0.11994 0.176388,0.28575 0.05997,0.16227 0.05997,0.34925 v 0.0423 h -0.465665 v -0.0423 q 0,-0.22225 -0.116417,-0.33514 -0.112888,-0.11642 -0.321027,-0.11642 -0.197555,0 -0.324555,0.13406 -0.126999,0.13052 -0.126999,0.45155 v 0.52211 q 0,0.5715 0.465665,0.5715 0.208139,0 0.313972,-0.10936 0.109361,-0.11289 0.109361,-0.29986 h -0.592666 z"
         id="path3322" /></g><g
       aria-label="swap"
       id="text3281"
       style="font-weight:bold;font-size:3.52777px;line-height:0;font-family:'Space Mono';-inkscape-font-specification:'Space Mono Bold';stroke-width:0.3"
       transform="translate(0,0.71538347)"><path
         d="m 18.817427,204.53006 q 0,0.0847 0.08819,0.12348 0.08819,0.0353 0.321027,0.06 0.26811,0.0282 0.437443,0.16228 0.169333,0.13052 0.169333,0.36688 v 0.0212 q 0,0.26105 -0.190499,0.41628 -0.1905,0.15522 -0.536221,0.15522 -0.204611,0 -0.34925,-0.0529 -0.144638,-0.0529 -0.239888,-0.13053 -0.09525,-0.0811 -0.148166,-0.17638 -0.04939,-0.0988 -0.06703,-0.1905 l 0.409221,-0.13406 q 0.02822,0.11289 0.116417,0.19756 0.09172,0.0847 0.278694,0.0847 0.165805,0 0.225777,-0.0494 0.0635,-0.0529 0.0635,-0.11288 0,-0.0353 -0.01764,-0.0635 -0.01411,-0.0318 -0.05644,-0.0565 -0.04233,-0.0282 -0.116417,-0.0459 -0.07055,-0.0176 -0.179916,-0.0282 -0.296333,-0.0247 -0.472721,-0.1517 -0.172861,-0.13052 -0.172861,-0.381 v -0.0212 q 0,-0.13053 0.05644,-0.22931 0.05645,-0.0988 0.148167,-0.1658 0.09172,-0.0706 0.211666,-0.10584 0.119944,-0.0353 0.246944,-0.0353 0.165805,0 0.285749,0.0423 0.123472,0.0388 0.208139,0.10583 0.08467,0.0635 0.137583,0.14464 0.05292,0.0776 0.08114,0.1517 l -0.402165,0.16227 q -0.03175,-0.0952 -0.109361,-0.14816 -0.07761,-0.0565 -0.201083,-0.0565 -0.112889,0 -0.169333,0.0423 -0.05644,0.0388 -0.05644,0.0988 z"
         id="path3325" /><path
         d="m 22.133529,205.78595 h -0.769054 l -0.09878,-1.32644 v -0.21167 h -0.08467 v 0.21167 l -0.09878,1.32644 h -0.769054 l -0.116416,-1.74977 h 0.409221 l 0.07761,1.32644 v 0.21166 h 0.08467 v -0.21166 l 0.08819,-1.32644 h 0.733776 l 0.08819,1.32644 v 0.21166 h 0.08467 v -0.21166 l 0.07761,-1.32644 h 0.409221 z"
         id="path3327" /><path
         d="m 23.71044,205.53195 q -0.07055,0.16581 -0.197555,0.23636 -0.127,0.067 -0.296333,0.067 -0.158749,0 -0.29986,-0.06 -0.137583,-0.06 -0.243416,-0.17639 -0.105833,-0.11642 -0.169333,-0.28222 -0.05997,-0.16581 -0.05997,-0.37748 v -0.0564 q 0,-0.20814 0.05997,-0.37394 0.05997,-0.16581 0.162277,-0.28222 0.102305,-0.11642 0.236361,-0.17639 0.137583,-0.0635 0.292805,-0.0635 0.186971,0 0.29986,0.0635 0.116416,0.0635 0.183444,0.19755 h 0.0635 v -0.21166 h 0.444499 v 1.2206 q 0,0.10584 0.09525,0.10584 h 0.06703 v 0.42333 h -0.303388 q -0.119944,0 -0.197555,-0.0706 -0.07408,-0.0706 -0.07408,-0.18344 z m -0.39511,-0.11994 q 0.194027,0 0.310444,-0.127 0.116416,-0.13053 0.116416,-0.35278 v -0.0423 q 0,-0.22225 -0.116416,-0.34925 -0.116417,-0.13053 -0.310444,-0.13053 -0.194028,0 -0.310444,0.13053 -0.116416,0.127 -0.116416,0.34925 v 0.0423 q 0,0.22225 0.116416,0.35278 0.116416,0.127 0.310444,0.127 z"
         id="path3329" /><path
         d="m 25.089796,206.4915 h -0.444499 v -2.45532 h 0.444499 v 0.254 h 0.0635 q 0.07055,-0.14464 0.204611,-0.22225 0.134055,-0.0811 0.342193,-0.0811 0.155222,0 0.292805,0.06 0.141111,0.06 0.243416,0.17639 0.105833,0.11289 0.165806,0.27869 0.0635,0.16581 0.0635,0.37747 v 0.0635 q 0,0.2152 -0.05997,0.381 -0.05997,0.16581 -0.162277,0.28222 -0.102305,0.11289 -0.243416,0.17286 -0.137583,0.0565 -0.299861,0.0565 -0.119944,0 -0.208138,-0.0247 -0.08819,-0.0247 -0.155222,-0.067 -0.0635,-0.0423 -0.109361,-0.0952 -0.04233,-0.0565 -0.07408,-0.11642 h -0.0635 z m 0.465666,-1.07949 q 0.208138,0 0.335138,-0.127 0.130527,-0.13053 0.130527,-0.35278 v -0.0423 q 0,-0.22225 -0.130527,-0.34925 -0.127,-0.13053 -0.335138,-0.13053 -0.208139,0 -0.338666,0.13405 -0.127,0.13053 -0.127,0.34573 v 0.0423 q 0,0.21519 0.127,0.34925 0.130527,0.13053 0.338666,0.13053 z"
         id="path3331" /></g><g
       aria-label="mod"
       id="text3285"
       style="font-weight:bold;font-size:3.52777px;line-height:0;font-family:'Space Mono';-inkscape-font-specification:'Space Mono Bold';stroke-width:0.3"><path
         d="m 21.205726,219.85036 h -0.444499 v -1.22767 q 0,-0.0741 -0.0388,-0.10936 -0.03528,-0.0388 -0.09525,-0.0388 -0.07056,0 -0.112889,0.0423 -0.0388,0.0423 -0.0388,0.127 v 1.2065 h -0.444499 v -1.22767 q 0,-0.0741 -0.04233,-0.10936 -0.03881,-0.0388 -0.09525,-0.0388 -0.0635,0 -0.105833,0.0423 -0.04233,0.0423 -0.04233,0.127 v 1.2065 h -0.444499 v -1.74978 h 0.444499 v 0.16934 h 0.0635 q 0.02117,-0.0953 0.09525,-0.15523 0.07761,-0.0635 0.201083,-0.0635 0.116417,0 0.197555,0.0635 0.08114,0.06 0.109361,0.15523 h 0.0635 q 0.02822,-0.0953 0.116416,-0.15523 0.09172,-0.0635 0.225778,-0.0635 0.176388,0 0.282221,0.11995 0.105833,0.11641 0.105833,0.32455 z"
         id="path3334" /><path
         d="m 23.322387,218.99664 q 0,0.21872 -0.07408,0.38805 -0.07408,0.16581 -0.201082,0.28222 -0.127,0.11289 -0.292805,0.17286 -0.162278,0.06 -0.342194,0.06 -0.179916,0 -0.345721,-0.06 -0.162278,-0.06 -0.289278,-0.17286 -0.126999,-0.11641 -0.201083,-0.28222 -0.07408,-0.16933 -0.07408,-0.38805 v -0.0423 q 0,-0.21519 0.07408,-0.381 0.07408,-0.16933 0.201083,-0.28575 0.127,-0.11641 0.289278,-0.17638 0.165805,-0.06 0.345721,-0.06 0.179916,0 0.342194,0.06 0.165805,0.06 0.292805,0.17638 0.126999,0.11642 0.201082,0.28575 0.07408,0.16581 0.07408,0.381 z m -0.910165,0.47977 q 0.09525,0 0.179916,-0.0317 0.08467,-0.0317 0.148167,-0.0917 0.0635,-0.06 0.09878,-0.14464 0.03881,-0.0882 0.03881,-0.19755 v -0.0706 q 0,-0.10936 -0.03881,-0.19402 -0.03528,-0.0882 -0.09878,-0.14817 -0.0635,-0.06 -0.148167,-0.0917 -0.08467,-0.0318 -0.179916,-0.0318 -0.09525,0 -0.179916,0.0318 -0.08467,0.0317 -0.148167,0.0917 -0.0635,0.06 -0.102305,0.14817 -0.03528,0.0847 -0.03528,0.19402 v 0.0706 q 0,0.10936 0.03528,0.19755 0.0388,0.0847 0.102305,0.14464 0.0635,0.06 0.148167,0.0917 0.08467,0.0317 0.179916,0.0317 z"
         id="path3336" /><path
         d="m 25.02277,219.59636 h -0.0635 q -0.02822,0.06 -0.07055,0.11641 -0.03881,0.0529 -0.105833,0.0952 -0.0635,0.0423 -0.155222,0.067 -0.08819,0.0247 -0.215194,0.0247 -0.162278,0 -0.303388,-0.0565 -0.137583,-0.06 -0.243417,-0.17286 -0.102305,-0.11642 -0.162277,-0.28222 -0.05644,-0.16581 -0.05644,-0.381 v -0.0635 q 0,-0.21167 0.05997,-0.37747 0.0635,-0.16581 0.169333,-0.2787 0.109361,-0.11641 0.250471,-0.17638 0.144639,-0.06 0.303389,-0.06 0.211666,0 0.335138,0.0811 0.123472,0.0776 0.194027,0.22225 h 0.0635 v -0.97366 h 0.444499 v 2.46944 H 25.02277 Z m -0.465666,-0.11995 q 0.208139,0 0.335139,-0.13052 0.130527,-0.13406 0.130527,-0.34925 v -0.0423 q 0,-0.21519 -0.130527,-0.34572 -0.127,-0.13405 -0.335139,-0.13405 -0.208138,0 -0.338666,0.13052 -0.126999,0.127 -0.126999,0.34925 v 0.0423 q 0,0.22225 0.126999,0.35277 0.130528,0.127 0.338666,0.127 z"
         id="path3338" /></g><g
       aria-label="mod"
       id="text3289"
       style="font-weight:bold;font-size:3.52777px;line-height:0;font-family:'Space Mono';-inkscape-font-specification:'Space Mono Bold';stroke-width:0.3"><path
         d="m 21.205726,250.68268 h -0.444499 v -1.22767 q 0,-0.0741 -0.0388,-0.10936 -0.03528,-0.0388 -0.09525,-0.0388 -0.07056,0 -0.112889,0.0423 -0.0388,0.0423 -0.0388,0.127 v 1.2065 h -0.444499 v -1.22767 q 0,-0.0741 -0.04233,-0.10936 -0.03881,-0.0388 -0.09525,-0.0388 -0.0635,0 -0.105833,0.0423 -0.04233,0.0423 -0.04233,0.127 v 1.2065 h -0.444499 v -1.74978 h 0.444499 v 0.16934 h 0.0635 q 0.02117,-0.0952 0.09525,-0.15522 0.07761,-0.0635 0.201083,-0.0635 0.116417,0 0.197555,0.0635 0.08114,0.06 0.109361,0.15522 h 0.0635 q 0.02822,-0.0952 0.116416,-0.15522 0.09172,-0.0635 0.225778,-0.0635 0.176388,0 0.282221,0.11994 0.105833,0.11642 0.105833,0.32455 z"
         id="path3359" /><path
         d="m 23.322387,249.82896 q 0,0.21872 -0.07408,0.38805 -0.07408,0.16581 -0.201082,0.28222 -0.127,0.11289 -0.292805,0.17286 -0.162278,0.06 -0.342194,0.06 -0.179916,0 -0.345721,-0.06 -0.162278,-0.06 -0.289278,-0.17286 -0.126999,-0.11641 -0.201083,-0.28222 -0.07408,-0.16933 -0.07408,-0.38805 v -0.0423 q 0,-0.21519 0.07408,-0.38099 0.07408,-0.16934 0.201083,-0.28575 0.127,-0.11642 0.289278,-0.17639 0.165805,-0.06 0.345721,-0.06 0.179916,0 0.342194,0.06 0.165805,0.06 0.292805,0.17639 0.126999,0.11641 0.201082,0.28575 0.07408,0.1658 0.07408,0.38099 z m -0.910165,0.47977 q 0.09525,0 0.179916,-0.0317 0.08467,-0.0318 0.148167,-0.0917 0.0635,-0.06 0.09878,-0.14464 0.03881,-0.0882 0.03881,-0.19755 v -0.0706 q 0,-0.10936 -0.03881,-0.19402 -0.03528,-0.0882 -0.09878,-0.14817 -0.0635,-0.06 -0.148167,-0.0917 -0.08467,-0.0318 -0.179916,-0.0318 -0.09525,0 -0.179916,0.0318 -0.08467,0.0317 -0.148167,0.0917 -0.0635,0.06 -0.102305,0.14817 -0.03528,0.0847 -0.03528,0.19402 v 0.0706 q 0,0.10936 0.03528,0.19755 0.0388,0.0847 0.102305,0.14464 0.0635,0.06 0.148167,0.0917 0.08467,0.0317 0.179916,0.0317 z"
         id="path3361" /><path
         d="m 25.02277,250.42868 h -0.0635 q -0.02822,0.06 -0.07055,0.11642 -0.03881,0.0529 -0.105833,0.0952 -0.0635,0.0423 -0.155222,0.067 -0.08819,0.0247 -0.215194,0.0247 -0.162278,0 -0.303388,-0.0564 -0.137583,-0.06 -0.243417,-0.17286 -0.102305,-0.11641 -0.162277,-0.28222 -0.05644,-0.1658 -0.05644,-0.381 v -0.0635 q 0,-0.21166 0.05997,-0.37747 0.0635,-0.16581 0.169333,-0.27869 0.109361,-0.11642 0.250471,-0.17639 0.144639,-0.06 0.303389,-0.06 0.211666,0 0.335138,0.0811 0.123472,0.0776 0.194027,0.22225 h 0.0635 v -0.97366 h 0.444499 v 2.46944 H 25.02277 Z m -0.465666,-0.11995 q 0.208139,0 0.335139,-0.13052 0.130527,-0.13406 0.130527,-0.34925 v -0.0423 q 0,-0.21519 -0.130527,-0.34572 -0.127,-0.13405 -0.335139,-0.13405 -0.208138,0 -0.338666,0.13053 -0.126999,0.127 -0.126999,0.34924 v 0.0423 q 0,0.22225 0.126999,0.35277 0.130528,0.127 0.338666,0.127 z"
         id="path3363" /></g><g
       aria-label="trig"
       id="text3293"
       style="font-weight:bold;font-size:3.52777px;line-height:0;font-family:'Space Mono';-inkscape-font-specification:'Space Mono Bold';stroke-width:0.3"><path
         d="m 18.27415,234.87115 h 0.518582 v -0.71966 h 0.444499 v 0.71966 h 0.631471 v 0.42333 h -0.631471 v 0.79728 q 0,0.10583 0.09525,0.10583 h 0.472721 v 0.42334 H 19.06437 q -0.119944,0 -0.197555,-0.0776 -0.07408,-0.0776 -0.07408,-0.19755 v -1.05128 H 18.27415 Z"
         id="path3350" /><path
         d="m 20.397865,234.87115 h 0.740832 v 0.254 h 0.0635 q 0.04939,-0.14464 0.165805,-0.22225 0.119944,-0.0811 0.285749,-0.0811 0.261055,0 0.419805,0.16581 0.15875,0.16228 0.15875,0.49741 v 0.0776 l -0.45861,0.0423 v -0.0494 q 0,-0.14464 -0.07408,-0.22931 -0.07408,-0.0882 -0.222249,-0.0882 -0.148166,0 -0.232833,0.10231 -0.08467,0.1023 -0.08467,0.2928 v 0.56444 h 0.402165 v 0.42334 h -1.206497 v -0.42334 h 0.359833 v -0.90311 h -0.3175 z"
         id="path3352" /><path
         d="m 22.673275,236.19759 h 0.592666 v -0.90311 h -0.550333 v -0.42333 h 0.994832 v 1.32644 h 0.507999 v 0.42334 h -1.545164 z m 1.146525,-1.84502 q 0,0.0706 -0.02822,0.13406 -0.02469,0.06 -0.07056,0.10583 -0.04586,0.0423 -0.109361,0.0706 -0.05997,0.0247 -0.127,0.0247 -0.07055,0 -0.130527,-0.0247 -0.05997,-0.0282 -0.105833,-0.0706 -0.04586,-0.0459 -0.07408,-0.10583 -0.0247,-0.0635 -0.0247,-0.13406 0,-0.0706 0.0247,-0.13053 0.02822,-0.0635 0.07408,-0.10583 0.04586,-0.0459 0.105833,-0.0706 0.05997,-0.0282 0.130527,-0.0282 0.06703,0 0.127,0.0282 0.0635,0.0247 0.109361,0.0706 0.04586,0.0423 0.07056,0.10583 0.02822,0.06 0.02822,0.13053 z"
         id="path3354" /><path
         d="m 26.049349,236.36693 h -0.0635 q -0.02822,0.06 -0.07056,0.11641 -0.03881,0.0529 -0.105833,0.0952 -0.0635,0.0423 -0.155222,0.067 -0.08819,0.0247 -0.215194,0.0247 -0.162278,0 -0.303388,-0.0564 -0.137583,-0.06 -0.243416,-0.17286 -0.102306,-0.11642 -0.162278,-0.28222 -0.05644,-0.16581 -0.05644,-0.381 v -0.0635 q 0,-0.21167 0.05997,-0.37747 0.0635,-0.16581 0.169333,-0.2787 0.109361,-0.11641 0.250472,-0.17638 0.144638,-0.06 0.303388,-0.06 0.211666,0 0.335138,0.0811 0.123472,0.0776 0.194027,0.22225 h 0.0635 v -0.254 h 0.444499 v 2.18016 q 0,0.11995 -0.07761,0.19756 -0.07408,0.0776 -0.194027,0.0776 h -1.178275 v -0.42333 h 0.910164 q 0.09525,0 0.09525,-0.10584 z m -0.465666,-0.11995 q 0.208139,0 0.335139,-0.13053 0.130527,-0.13405 0.130527,-0.34924 v -0.0423 q 0,-0.21519 -0.130527,-0.34572 -0.127,-0.13405 -0.335139,-0.13405 -0.208138,0 -0.338665,0.13052 -0.127,0.127 -0.127,0.34925 v 0.0423 q 0,0.22225 0.127,0.35277 0.130527,0.127 0.338665,0.127 z"
         id="path3356" /></g><g
       aria-label="REPT"
       id="text3297"
       style="font-weight:bold;font-size:3.52777px;line-height:0;font-family:'Space Mono';-inkscape-font-specification:'Space Mono Bold';stroke-width:0.3"><path
         d="M 5.6600774,235.52783 H 5.1944117 V 234.787 q 0,-0.0847 -0.045861,-0.13758 -0.042333,-0.0529 -0.1446385,-0.0529 H 4.4676911 v 0.93133 H 4.0020255 v -2.46944 h 0.9454423 q 0.1904996,0 0.3351382,0.0529 0.1446386,0.0529 0.2398884,0.14817 0.098777,0.0917 0.1481663,0.21519 0.052917,0.12347 0.052917,0.26458 v 0.0847 q 0,0.15169 -0.081139,0.28575 -0.081139,0.13053 -0.2504716,0.20108 v 0.0635 q 0.1234719,0.0141 0.1940273,0.0953 0.074083,0.0811 0.074083,0.20461 z M 4.4676911,234.152 h 0.444499 q 0.169333,0 0.2575273,-0.0776 0.088194,-0.0811 0.088194,-0.22578 v -0.0423 q 0,-0.12347 -0.088194,-0.21167 -0.088194,-0.0917 -0.2575273,-0.0917 h -0.444499 z"
         id="path3341" /><path
         d="m 6.1927689,233.05839 h 1.5592743 v 0.4445 H 6.6584345 v 0.56445 H 7.70971 v 0.44449 H 6.6584345 v 0.5715 h 1.135942 v 0.4445 H 6.1927689 Z"
         id="path3343" /><path
         d="m 8.7821503,234.5965 v 0.93133 H 8.3164847 v -2.46944 h 0.966609 q 0.1904995,0 0.3316103,0.0635 0.1411108,0.06 0.2328329,0.16228 0.09525,0.0988 0.1411108,0.22931 0.049388,0.127 0.049388,0.26105 v 0.0847 q 0,0.13758 -0.049388,0.27164 -0.045861,0.13052 -0.1411108,0.23636 -0.091722,0.1023 -0.2328329,0.1658 -0.1411108,0.0635 -0.3316103,0.0635 z m 0,-0.4445 h 0.4550823 q 0.1552219,0 0.2434162,-0.0847 0.091722,-0.0847 0.091722,-0.21873 v -0.0423 q 0,-0.13406 -0.091722,-0.21872 -0.088194,-0.0847 -0.2434162,-0.0847 H 8.7821503 Z"
         id="path3345" /><path
         d="m 10.411978,233.05839 h 1.777996 v 0.4445 h -0.656165 v 2.02494 h -0.465666 v -2.02494 h -0.656165 z"
         id="path3347" /></g><g
       aria-label="OUT"
       id="text3301"
       style="font-weight:bold;font-size:3.52777px;line-height:0;font-family:'Space Mono';-inkscape-font-specification:'Space Mono Bold';fill:#cccccc;stroke-width:0.3"><path
         d="m 12.181425,264.95819 q 0,-0.47977 0.239888,-0.74436 0.243416,-0.26458 0.670276,-0.26458 0.42686,0 0.666749,0.26458 0.243416,0.26459 0.243416,0.74436 v 0.55034 q 0,0.49388 -0.243416,0.75141 -0.239889,0.25753 -0.666749,0.25753 -0.42686,0 -0.670276,-0.25753 -0.239888,-0.25753 -0.239888,-0.75141 z m 0.910164,1.13594 q 0.127,0 0.211666,-0.0388 0.08467,-0.0423 0.137584,-0.11642 0.05292,-0.0741 0.07408,-0.17639 0.02117,-0.1023 0.02117,-0.22577 v -0.60678 q 0,-0.11642 -0.02469,-0.21872 -0.02469,-0.10231 -0.07761,-0.17639 -0.05292,-0.0741 -0.137583,-0.11642 -0.08467,-0.0459 -0.204611,-0.0459 -0.119944,0 -0.20461,0.0459 -0.08467,0.0423 -0.137583,0.11642 -0.05292,0.0741 -0.07761,0.17639 -0.02469,0.1023 -0.02469,0.21872 v 0.60678 q 0,0.12347 0.02117,0.22577 0.02117,0.10231 0.07408,0.17639 0.05292,0.0741 0.137583,0.11642 0.08467,0.0388 0.211666,0.0388 z"
         id="path3366" /><path
         d="m 16.139581,263.99864 v 1.61572 q 0,0.42333 -0.225777,0.66322 -0.22225,0.23989 -0.663221,0.23989 -0.440972,0 -0.666749,-0.23989 -0.222249,-0.23989 -0.222249,-0.66322 v -1.61572 h 0.465665 v 1.61572 q 0,0.21872 0.102306,0.34219 0.102305,0.12347 0.321027,0.12347 0.218721,0 0.321027,-0.12347 0.102305,-0.12347 0.102305,-0.34219 v -1.61572 z"
         id="path3368" /><path
         d="m 16.520578,263.99864 h 1.777996 v 0.4445 h -0.656165 v 2.02494 h -0.465666 v -2.02494 h -0.656165 z"
         id="path3370" /></g></g><g
     inkscape:groupmode="layer"
     id="layer2"
     inkscape:label="components"
     style="display:none"><circle
       style="display:inline;fill:#00ff00;fill-opacity:1;fill-rule:evenodd;stroke:none;stroke-width:0.875;stroke-linecap:butt;stroke-linejoin:miter;stroke-miterlimit:4;stroke-dasharray:none;stroke-dashoffset:0;stroke-opacity:1;paint-order:normal"
       id="path4954-7"
       cx="15.24"
       cy="28.683685"
       inkscape:label="clock"
       r="3.5" /><circle
       cy="43.4189"
       cx="8.0959997"
       id="circle4956-6"
       style="display:inline;fill:#ff0000;fill-opacity:1;fill-rule:evenodd;stroke:none;stroke-width:1.25;stroke-linecap:butt;stroke-linejoin:miter;stroke-miterlimit:4;stroke-dasharray:none;stroke-dashoffset:0;stroke-opacity:1;paint-order:normal"
       inkscape:label="swing"
       r="5" /><circle
       style="display:inline;vector-effect:none;fill:#00ff00;fill-opacity:1;fill-rule:evenodd;stroke:none;stroke-width:0.875;stroke-linecap:butt;stroke-linejoin:miter;stroke-miterlimit:4;stroke-dasharray:none;stroke-dashoffset:0;stroke-opacity:1;paint-order:normal"
       id="path4954-5"
       cx="22.384001"
       cy="56.918526"
       inkscape:label="swingMod"
       r="3.5" /><circle
       cy="73.734726"
       cx="8.0959997"
       id="circle4956"
       style="display:inline;fill:#ff0000;fill-opacity:1;fill-rule:evenodd;stroke:none;stroke-width:1.25;stroke-linecap:butt;stroke-linejoin:miter;stroke-miterlimit:4;stroke-dasharray:none;stroke-dashoffset:0;stroke-opacity:1;paint-order:normal"
       inkscape:label="repeat"
       r="5" /><circle
       style="display:inline;vector-effect:none;fill:#00ff00;fill-opacity:1;fill-rule:evenodd;stroke:none;stroke-width:0.875;stroke-linecap:butt;stroke-linejoin:miter;stroke-miterlimit:4;stroke-dasharray:none;stroke-dashoffset:0;stroke-opacity:1;paint-order:normal"
       id="path4954"
       cx="22.384001"
       cy="87.234726"
       inkscape:label="repeatMod"
       r="3.5" /><circle
       style="display:inline;vector-effect:none;fill:#00ff00;fill-opacity:1;fill-rule:evenodd;stroke:none;stroke-width:0.875;stroke-linecap:butt;stroke-linejoin:miter;stroke-miterlimit:4;stroke-dasharray:none;stroke-dashoffset:0;stroke-opacity:1;paint-order:normal"
       id="path4954-0"
       cx="22.384001"
       cy="73.734726"
       inkscape:label="trigger"
       r="3.5" /><circle
       style="display:inline;vector-effect:none;fill:#0000ff;fill-opacity:1;fill-rule:evenodd;stroke:none;stroke-width:0.625;stroke-linecap:butt;stroke-linejoin:miter;stroke-miterlimit:4;stroke-dasharray:none;stroke-dashoffset:0;stroke-opacity:1;paint-order:normal"
       id="circle4958"
       cx="15.24"
       cy="102.70366"
       inkscape:label="out"
       r="2.5" /><circle
       cy="56.918526"
       cx="8.0959997"
       id="circle4956-6-3"
       style="display:inline;fill:#ff0000;fill-opacity:1;fill-rule:evenodd;stroke:none;stroke-width:0.875;stroke-linecap:butt;stroke-linejoin:miter;stroke-miterlimit:4;stroke-dasharray:none;stroke-dashoffset:0;stroke-opacity:1;paint-order:normal"
       inkscape:label="swingModAmp"
       r="3.5" /><circle
       cy="87.234726"
       cx="8.0959997"
       id="circle4956-6-3-2"
       style="display:inline;fill:#ff0000;fill-opacity:1;fill-rule:evenodd;stroke:none;stroke-width:0.875;stroke-linecap:butt;stroke-linejoin:miter;stroke-miterlimit:4;stroke-dasharray:none;stroke-dashoffset:0;stroke-opacity:1;paint-order:normal"
       inkscape:label="repeatModAmp"
       r="3.5" /><circle
       inkscape:label="swingLight"
       r="2.3413029"
       cy="49.519966"
       cx="15.24"
       id="circle66"
       style="display:inline;vector-effect:none;fill:#ff00ff;fill-opacity:1;fill-rule:evenodd;stroke:none;stroke-width:0.585326;stroke-linecap:butt;stroke-linejoin:miter;stroke-miterlimit:4;stroke-dasharray:none;stroke-dashoffset:0;stroke-opacity:1;paint-order:normal" /><circle
       inkscape:label="repeatLight"
       r="2.3413029"
       cy="80.484726"
       cx="15.24"
       id="circle66-9"
       style="display:inline;vector-effect:none;fill:#ff00ff;fill-opacity:1;fill-rule:evenodd;stroke:none;stroke-width:0.585326;stroke-linecap:butt;stroke-linejoin:miter;stroke-miterlimit:4;stroke-dasharray:none;stroke-dashoffset:0;stroke-opacity:1;paint-order:normal" /><circle
       cy="43.4189"
       cx="22.384001"
       id="circle4956-6-3-6"
       style="display:inline;fill:#ff0000;fill-opacity:1;fill-rule:evenodd;stroke:none;stroke-width:0.875;stroke-linecap:butt;stroke-linejoin:miter;stroke-miterlimit:4;stroke-dasharray:none;stroke-dashoffset:0;stroke-opacity:1;paint-order:normal"
       inkscape:label="swingModAmp"
       r="3.5" /></g></svg>
